{
	"asset":{
		"generator":"Khronos glTF Blender I/O v5.1.20",
		"version":"2.0"
	},
	"scene":0,
	"scenes":[
		{
			"name":"Scene",
			"nodes":[
				0,
				1,
				2,
				3,
				4,
				5,
				6,
				7,
				8,
				9,
				10,
				11,
				12,
				13,
				14,
				15,
				16,
				17,
				18,
				19,
				20,
				21,
				22,
				23,
				24,
				25,
				26,
				27,
				28,
				29,
				30,
				31,
				32,
				33,
				34,
				35,
				36,
				37,
				38,
				39,
				40,
				41,
				42,
				43,
				44,
				45,
				46,
				47,
				48,
				49,
				50,
				51,
				52,
				53,
				54,
				55,
				56,
				57,
				58,
				59,
				60,
				61,
				62,
				63,
				64,
				65,
				66,
				67,
				68,
				69,
				70,
				71,
				72,
				73,
				74,
				75,
				76,
				77,
				78,
				79,
				80,
				81,
				82,
				83,
				84,
				85,
				86,
				87,
				88,
				89,
				90,
				91,
				92,
				93,
				94,
				95,
				96,
				97,
				98,
				99,
				100,
				101,
				102,
				103,
				104,
				105,
				106,
				107,
				108,
				109,
				110,
				111,
				112,
				113,
				114,
				115,
				116,
				117,
				118,
				119,
				120,
				121,
				122,
				123,
				124,
				125,
				126,
				127,
				128,
				129,
				130,
				131,
				132,
				133,
				134,
				135,
				136,
				137,
				138,
				139,
				140,
				141,
				142,
				143,
				144,
				145,
				146,
				147,
				148,
				149,
				150,
				151,
				152,
				153,
				154,
				155,
				156,
				157,
				158,
				159,
				160,
				161,
				162,
				163,
				164,
				165,
				166,
				167,
				168
			]
		}
	],
	"nodes":[
		{
			"name":"Cube.039",
			"translation":[
				31.002111434936523,
				6.195373058319092,
				24.333084106445312
			]
		},
		{
			"mesh":0,
			"name":"Cube",
			"translation":[
				27.62059783935547,
				-0.9696114659309387,
				0
			]
		},
		{
			"mesh":1,
			"name":"Cube.001",
			"translation":[
				33.53435134887695,
				0,
				0
			]
		},
		{
			"mesh":2,
			"name":"7rigahama",
			"rotation":[
				0.5,
				0.5,
				-0.5,
				0.5
			],
			"scale":[
				6.254002571105957,
				6.254002571105957,
				6.254002571105957
			],
			"translation":[
				33.57168960571289,
				-2.772162437438965,
				19.189800262451172
			]
		},
		{
			"mesh":2,
			"name":"7rigahama.001",
			"rotation":[
				0.5,
				0.5,
				-0.5,
				0.5
			],
			"scale":[
				6.254002571105957,
				6.254002571105957,
				6.254002571105957
			],
			"translation":[
				33.57168960571289,
				-2.772162437438965,
				5.603762626647949
			]
		},
		{
			"mesh":2,
			"name":"7rigahama.002",
			"rotation":[
				0.5,
				0.5,
				-0.5,
				0.5
			],
			"scale":[
				6.254002571105957,
				6.254002571105957,
				6.254002571105957
			],
			"translation":[
				33.57168960571289,
				-2.772162437438965,
				-5.528650283813477
			]
		},
		{
			"mesh":2,
			"name":"7rigahama.003",
			"rotation":[
				0.5,
				0.5,
				-0.5,
				0.5
			],
			"scale":[
				6.254002571105957,
				6.254002571105957,
				6.254002571105957
			],
			"translation":[
				33.57168960571289,
				-2.772162437438965,
				-19.114688873291016
			]
		},
		{
			"mesh":3,
			"name":"Cube.002",
			"scale":[
				0.1034257635474205,
				0.1034257635474205,
				0.1034257635474205
			],
			"translation":[
				33.34484100341797,
				1.1634913682937622,
				21.456823348999023
			]
		},
		{
			"mesh":3,
			"name":"Cube.003",
			"scale":[
				0.1034257635474205,
				0.1034257635474205,
				0.1034257635474205
			],
			"translation":[
				33.34484100341797,
				1.1634913682937622,
				17.185449600219727
			]
		},
		{
			"mesh":3,
			"name":"Cube.005",
			"scale":[
				0.1034257635474205,
				0.1034257635474205,
				0.1034257635474205
			],
			"translation":[
				33.34484100341797,
				1.1634913682937622,
				12.915748596191406
			]
		},
		{
			"mesh":3,
			"name":"Cube.006",
			"scale":[
				0.1034257635474205,
				0.1034257635474205,
				0.1034257635474205
			],
			"translation":[
				33.34484100341797,
				1.1634913682937622,
				8.635022163391113
			]
		},
		{
			"mesh":3,
			"name":"Cube.007",
			"scale":[
				0.1034257635474205,
				0.1034257635474205,
				0.1034257635474205
			],
			"translation":[
				33.34484100341797,
				1.1634913682937622,
				4.365321159362793
			]
		},
		{
			"mesh":3,
			"name":"Cube.008",
			"scale":[
				0.1034257635474205,
				0.1034257635474205,
				0.1034257635474205
			],
			"translation":[
				33.34484100341797,
				1.1634913682937622,
				0.0939474105834961
			]
		},
		{
			"mesh":3,
			"name":"Cube.009",
			"scale":[
				0.1034257635474205,
				0.1034257635474205,
				0.1034257635474205
			],
			"translation":[
				33.34484100341797,
				1.1634913682937622,
				-4.175753593444824
			]
		},
		{
			"mesh":3,
			"name":"Cube.010",
			"scale":[
				0.1034257635474205,
				0.1034257635474205,
				0.1034257635474205
			],
			"translation":[
				33.34484100341797,
				1.1634913682937622,
				-8.444050788879395
			]
		},
		{
			"mesh":3,
			"name":"Cube.011",
			"scale":[
				0.1034257635474205,
				0.1034257635474205,
				0.1034257635474205
			],
			"translation":[
				33.34484100341797,
				1.1634913682937622,
				-12.713750839233398
			]
		},
		{
			"mesh":3,
			"name":"Cube.012",
			"scale":[
				0.1034257635474205,
				0.1034257635474205,
				0.1034257635474205
			],
			"translation":[
				33.34484100341797,
				1.1634913682937622,
				-16.985124588012695
			]
		},
		{
			"mesh":3,
			"name":"Cube.013",
			"scale":[
				0.1034257635474205,
				0.1034257635474205,
				0.1034257635474205
			],
			"translation":[
				33.34484100341797,
				1.1634913682937622,
				-21.25482749938965
			]
		},
		{
			"mesh":3,
			"name":"Cube.014",
			"scale":[
				0.1034257635474205,
				0.1034257635474205,
				0.1034257635474205
			],
			"translation":[
				33.34484100341797,
				1.1634913682937622,
				-25.546836853027344
			]
		},
		{
			"mesh":4,
			"name":"Cube.015",
			"translation":[
				30.47965431213379,
				-0.9524511694908142,
				0
			]
		},
		{
			"mesh":5,
			"name":"Cube.018",
			"translation":[
				8.41911792755127,
				5.832960605621338,
				9.445622444152832
			]
		},
		{
			"mesh":5,
			"name":"Cube.017",
			"translation":[
				8.41911792755127,
				5.832960605621338,
				14.537881851196289
			]
		},
		{
			"mesh":5,
			"name":"Cube.019",
			"translation":[
				8.41911792755127,
				5.832960605621338,
				19.63591194152832
			]
		},
		{
			"mesh":5,
			"name":"Cube.020",
			"translation":[
				8.41911792755127,
				5.832960605621338,
				24.728172302246094
			]
		},
		{
			"mesh":5,
			"name":"Cube.021",
			"translation":[
				8.41911792755127,
				5.832960605621338,
				-10.98351764678955
			]
		},
		{
			"mesh":5,
			"name":"Cube.022",
			"translation":[
				8.41911792755127,
				5.832960605621338,
				-5.89125919342041
			]
		},
		{
			"mesh":5,
			"name":"Cube.023",
			"translation":[
				8.41911792755127,
				5.832960605621338,
				-0.7932281494140625
			]
		},
		{
			"mesh":5,
			"name":"Cube.024",
			"translation":[
				8.41911792755127,
				5.832960605621338,
				4.2990312576293945
			]
		},
		{
			"mesh":5,
			"name":"Cube.025",
			"translation":[
				8.41911792755127,
				5.832960605621338,
				-21.19015884399414
			]
		},
		{
			"mesh":5,
			"name":"Cube.026",
			"translation":[
				8.41911792755127,
				5.832960605621338,
				-16.097900390625
			]
		},
		{
			"mesh":6,
			"name":"Cube.027",
			"translation":[
				8.41911792755127,
				5.837137699127197,
				-26.259689331054688
			]
		},
		{
			"mesh":7,
			"name":"Cube.028",
			"rotation":[
				-0.7071068286895752,
				0,
				0,
				0.7071068286895752
			],
			"translation":[
				8.41911792755127,
				7.161049842834473,
				11.780712127685547
			]
		},
		{
			"mesh":7,
			"name":"Cube.029",
			"rotation":[
				-0.7071068286895752,
				0,
				0,
				0.7071068286895752
			],
			"translation":[
				8.41911792755127,
				10.245818138122559,
				11.780712127685547
			]
		},
		{
			"mesh":7,
			"name":"Cube.030",
			"rotation":[
				-0.7071068286895752,
				0,
				0,
				0.7071068286895752
			],
			"translation":[
				8.41911792755127,
				13.32764720916748,
				11.780712127685547
			]
		},
		{
			"mesh":8,
			"name":"Cube.031",
			"rotation":[
				-0.7071068286895752,
				0,
				0,
				0.7071068286895752
			],
			"translation":[
				1.81874418258667,
				13.32764720916748,
				11.780712127685547
			]
		},
		{
			"mesh":9,
			"name":"kamakograss",
			"rotation":[
				0,
				0.7071068286895752,
				0,
				0.7071068286895752
			],
			"scale":[
				-2.9753170013427734,
				-2.9753170013427734,
				-2.9753170013427734
			],
			"translation":[
				9.40437126159668,
				4.838484287261963,
				20.438037872314453
			]
		},
		{
			"mesh":9,
			"name":"kamakograss.001",
			"rotation":[
				-0.7071068286895752,
				0,
				0.7071068286895752,
				1.5454311608209537e-08
			],
			"scale":[
				2.9753170013427734,
				2.9753170013427734,
				2.9753170013427734
			],
			"translation":[
				9.40437126159668,
				4.838484287261963,
				9.480350494384766
			]
		},
		{
			"mesh":9,
			"name":"kamakograss.002",
			"rotation":[
				0,
				0.7071068286895752,
				0,
				0.7071068286895752
			],
			"scale":[
				-2.9753170013427734,
				-2.9753170013427734,
				-2.9753170013427734
			],
			"translation":[
				9.40437126159668,
				4.838484287261963,
				-0.7348136901855469
			]
		},
		{
			"mesh":9,
			"name":"kamakograss.003",
			"rotation":[
				-0.7071068286895752,
				0,
				0.7071068286895752,
				1.5454311608209537e-08
			],
			"scale":[
				2.9753170013427734,
				2.9753170013427734,
				2.9753170013427734
			],
			"translation":[
				9.40437126159668,
				4.838484287261963,
				-11.692501068115234
			]
		},
		{
			"mesh":9,
			"name":"kamakograss.004",
			"rotation":[
				0,
				0.7071068286895752,
				0,
				0.7071068286895752
			],
			"scale":[
				-2.9753170013427734,
				-2.9753170013427734,
				-2.9753170013427734
			],
			"translation":[
				9.40437126159668,
				4.838484287261963,
				-20.43776512145996
			]
		},
		{
			"mesh":10,
			"name":"Cube.016",
			"rotation":[
				0.4125618040561676,
				0,
				0,
				0.9109296202659607
			],
			"scale":[
				0.3116471767425537,
				0.3116472065448761,
				0.3116472065448761
			],
			"translation":[
				8.888448715209961,
				12.257913589477539,
				18.12928009033203
			]
		},
		{
			"mesh":10,
			"name":"Cube.032",
			"rotation":[
				0,
				-0.4125618040561676,
				-0.9109296202659607,
				0
			],
			"scale":[
				-0.3116471767425537,
				-0.3116472065448761,
				-0.3116472065448761
			],
			"translation":[
				8.888448715209961,
				12.257913589477539,
				17.660558700561523
			]
		},
		{
			"mesh":10,
			"name":"Cube.033",
			"rotation":[
				0.4125618040561676,
				0,
				0,
				0.9109296202659607
			],
			"scale":[
				0.3116471767425537,
				0.3116472065448761,
				0.3116472065448761
			],
			"translation":[
				8.888448715209961,
				9.162923812866211,
				18.12928009033203
			]
		},
		{
			"mesh":10,
			"name":"Cube.034",
			"rotation":[
				0,
				-0.4125618040561676,
				-0.9109296202659607,
				0
			],
			"scale":[
				-0.3116471767425537,
				-0.3116472065448761,
				-0.3116472065448761
			],
			"translation":[
				8.888448715209961,
				9.162923812866211,
				17.660558700561523
			]
		},
		{
			"mesh":10,
			"name":"Cube.035",
			"rotation":[
				0.4125618040561676,
				0,
				0,
				0.9109296202659607
			],
			"scale":[
				0.3116471767425537,
				0.3116472065448761,
				0.3116472065448761
			],
			"translation":[
				8.888448715209961,
				6.027351379394531,
				18.12928009033203
			]
		},
		{
			"mesh":10,
			"name":"Cube.036",
			"rotation":[
				0,
				-0.4125618040561676,
				-0.9109296202659607,
				0
			],
			"scale":[
				-0.3116471767425537,
				-0.3116472065448761,
				-0.3116472065448761
			],
			"translation":[
				8.888448715209961,
				6.027351379394531,
				17.660558700561523
			]
		},
		{
			"mesh":10,
			"name":"Cube.037",
			"rotation":[
				0.4125618040561676,
				0,
				0,
				0.9109296202659607
			],
			"scale":[
				0.3116471767425537,
				0.3116472065448761,
				0.3116472065448761
			],
			"translation":[
				8.888448715209961,
				12.257913589477539,
				7.945216655731201
			]
		},
		{
			"mesh":10,
			"name":"Cube.038",
			"rotation":[
				0,
				-0.4125618040561676,
				-0.9109296202659607,
				0
			],
			"scale":[
				-0.3116471767425537,
				-0.3116472065448761,
				-0.3116472065448761
			],
			"translation":[
				8.888448715209961,
				12.257913589477539,
				7.476495265960693
			]
		},
		{
			"mesh":10,
			"name":"Cube.041",
			"rotation":[
				0.4125618040561676,
				0,
				0,
				0.9109296202659607
			],
			"scale":[
				0.3116471767425537,
				0.3116472065448761,
				0.3116472065448761
			],
			"translation":[
				8.888448715209961,
				9.162923812866211,
				7.945216655731201
			]
		},
		{
			"mesh":10,
			"name":"Cube.042",
			"rotation":[
				0,
				-0.4125618040561676,
				-0.9109296202659607,
				0
			],
			"scale":[
				-0.3116471767425537,
				-0.3116472065448761,
				-0.3116472065448761
			],
			"translation":[
				8.888448715209961,
				9.162923812866211,
				7.476495265960693
			]
		},
		{
			"mesh":10,
			"name":"Cube.043",
			"rotation":[
				0.4125618040561676,
				0,
				0,
				0.9109296202659607
			],
			"scale":[
				0.3116471767425537,
				0.3116472065448761,
				0.3116472065448761
			],
			"translation":[
				8.888448715209961,
				6.027351379394531,
				7.945216655731201
			]
		},
		{
			"mesh":10,
			"name":"Cube.044",
			"rotation":[
				0,
				-0.4125618040561676,
				-0.9109296202659607,
				0
			],
			"scale":[
				-0.3116471767425537,
				-0.3116472065448761,
				-0.3116472065448761
			],
			"translation":[
				8.888448715209961,
				6.027351379394531,
				7.476495265960693
			]
		},
		{
			"mesh":10,
			"name":"Cube.045",
			"rotation":[
				0.4125618040561676,
				0,
				0,
				0.9109296202659607
			],
			"scale":[
				0.3116471767425537,
				0.3116472065448761,
				0.3116472065448761
			],
			"translation":[
				8.888448715209961,
				12.257913589477539,
				-2.2858757972717285
			]
		},
		{
			"mesh":10,
			"name":"Cube.046",
			"rotation":[
				0,
				-0.4125618040561676,
				-0.9109296202659607,
				0
			],
			"scale":[
				-0.3116471767425537,
				-0.3116472065448761,
				-0.3116472065448761
			],
			"translation":[
				8.888448715209961,
				12.257913589477539,
				-2.7545971870422363
			]
		},
		{
			"mesh":10,
			"name":"Cube.047",
			"rotation":[
				0.4125618040561676,
				0,
				0,
				0.9109296202659607
			],
			"scale":[
				0.3116471767425537,
				0.3116472065448761,
				0.3116472065448761
			],
			"translation":[
				8.888448715209961,
				9.162923812866211,
				-2.2858757972717285
			]
		},
		{
			"mesh":10,
			"name":"Cube.048",
			"rotation":[
				0,
				-0.4125618040561676,
				-0.9109296202659607,
				0
			],
			"scale":[
				-0.3116471767425537,
				-0.3116472065448761,
				-0.3116472065448761
			],
			"translation":[
				8.888448715209961,
				9.162923812866211,
				-2.7545971870422363
			]
		},
		{
			"mesh":10,
			"name":"Cube.049",
			"rotation":[
				0.4125618040561676,
				0,
				0,
				0.9109296202659607
			],
			"scale":[
				0.3116471767425537,
				0.3116472065448761,
				0.3116472065448761
			],
			"translation":[
				8.888448715209961,
				6.027351379394531,
				-2.2858757972717285
			]
		},
		{
			"mesh":10,
			"name":"Cube.050",
			"rotation":[
				0,
				-0.4125618040561676,
				-0.9109296202659607,
				0
			],
			"scale":[
				-0.3116471767425537,
				-0.3116472065448761,
				-0.3116472065448761
			],
			"translation":[
				8.888448715209961,
				6.027351379394531,
				-2.7545971870422363
			]
		},
		{
			"mesh":10,
			"name":"Cube.051",
			"rotation":[
				0.4125618040561676,
				0,
				0,
				0.9109296202659607
			],
			"scale":[
				0.3116471767425537,
				0.3116472065448761,
				0.3116472065448761
			],
			"translation":[
				8.888448715209961,
				12.257913589477539,
				-12.481330871582031
			]
		},
		{
			"mesh":10,
			"name":"Cube.052",
			"rotation":[
				0,
				-0.4125618040561676,
				-0.9109296202659607,
				0
			],
			"scale":[
				-0.3116471767425537,
				-0.3116472065448761,
				-0.3116472065448761
			],
			"translation":[
				8.888448715209961,
				12.257913589477539,
				-12.950052261352539
			]
		},
		{
			"mesh":10,
			"name":"Cube.053",
			"rotation":[
				0.4125618040561676,
				0,
				0,
				0.9109296202659607
			],
			"scale":[
				0.3116471767425537,
				0.3116472065448761,
				0.3116472065448761
			],
			"translation":[
				8.888448715209961,
				9.162923812866211,
				-12.481330871582031
			]
		},
		{
			"mesh":10,
			"name":"Cube.054",
			"rotation":[
				0,
				-0.4125618040561676,
				-0.9109296202659607,
				0
			],
			"scale":[
				-0.3116471767425537,
				-0.3116472065448761,
				-0.3116472065448761
			],
			"translation":[
				8.888448715209961,
				9.162923812866211,
				-12.950052261352539
			]
		},
		{
			"mesh":10,
			"name":"Cube.055",
			"rotation":[
				0.4125618040561676,
				0,
				0,
				0.9109296202659607
			],
			"scale":[
				0.3116471767425537,
				0.3116472065448761,
				0.3116472065448761
			],
			"translation":[
				8.888448715209961,
				6.027351379394531,
				-12.481330871582031
			]
		},
		{
			"mesh":10,
			"name":"Cube.056",
			"rotation":[
				0,
				-0.4125618040561676,
				-0.9109296202659607,
				0
			],
			"scale":[
				-0.3116471767425537,
				-0.3116472065448761,
				-0.3116472065448761
			],
			"translation":[
				8.888448715209961,
				6.027351379394531,
				-12.950052261352539
			]
		},
		{
			"mesh":10,
			"name":"Cube.057",
			"rotation":[
				0.4125618040561676,
				0,
				0,
				0.9109296202659607
			],
			"scale":[
				0.3116471767425537,
				0.3116472065448761,
				0.3116472065448761
			],
			"translation":[
				8.888448715209961,
				12.257913589477539,
				-22.685222625732422
			]
		},
		{
			"mesh":10,
			"name":"Cube.058",
			"rotation":[
				0,
				-0.4125618040561676,
				-0.9109296202659607,
				0
			],
			"scale":[
				-0.3116471767425537,
				-0.3116472065448761,
				-0.3116472065448761
			],
			"translation":[
				8.888448715209961,
				12.257913589477539,
				-23.15394401550293
			]
		},
		{
			"mesh":10,
			"name":"Cube.059",
			"rotation":[
				0.4125618040561676,
				0,
				0,
				0.9109296202659607
			],
			"scale":[
				0.3116471767425537,
				0.3116472065448761,
				0.3116472065448761
			],
			"translation":[
				8.888448715209961,
				9.162923812866211,
				-22.685222625732422
			]
		},
		{
			"mesh":10,
			"name":"Cube.060",
			"rotation":[
				0,
				-0.4125618040561676,
				-0.9109296202659607,
				0
			],
			"scale":[
				-0.3116471767425537,
				-0.3116472065448761,
				-0.3116472065448761
			],
			"translation":[
				8.888448715209961,
				9.162923812866211,
				-23.15394401550293
			]
		},
		{
			"mesh":10,
			"name":"Cube.061",
			"rotation":[
				0.4125618040561676,
				0,
				0,
				0.9109296202659607
			],
			"scale":[
				0.3116471767425537,
				0.3116472065448761,
				0.3116472065448761
			],
			"translation":[
				8.888448715209961,
				6.027351379394531,
				-22.685222625732422
			]
		},
		{
			"mesh":10,
			"name":"Cube.062",
			"rotation":[
				0,
				-0.4125618040561676,
				-0.9109296202659607,
				0
			],
			"scale":[
				-0.3116471767425537,
				-0.3116472065448761,
				-0.3116472065448761
			],
			"translation":[
				8.888448715209961,
				6.027351379394531,
				-23.15394401550293
			]
		},
		{
			"mesh":11,
			"name":"Cube.040",
			"translation":[
				11.535900115966797,
				3.5375795364379883,
				21.68337631225586
			]
		},
		{
			"mesh":9,
			"name":"kamakograss.005",
			"scale":[
				-2.5852653980255127,
				-2.5852653980255127,
				-2.5852653980255127
			],
			"translation":[
				6.101186275482178,
				4.838484287261963,
				24.687103271484375
			]
		},
		{
			"mesh":9,
			"name":"kamakograss.006",
			"scale":[
				-2.5852653980255127,
				-2.5852653980255127,
				-2.5852653980255127
			],
			"translation":[
				6.101186275482178,
				4.838484287261963,
				-24.59689712524414
			]
		},
		{
			"mesh":12,
			"name":"Cube.004",
			"translation":[
				27.59288787841797,
				0,
				0
			]
		},
		{
			"mesh":13,
			"name":"Plane",
			"rotation":[
				0,
				-1,
				0,
				7.549790836947068e-08
			],
			"scale":[
				1.814571738243103,
				1.814571738243103,
				1.814571738243103
			],
			"translation":[
				31.062715530395508,
				0.040797583758831024,
				-0.49597740173339844
			]
		},
		{
			"mesh":14,
			"name":"Plane.003",
			"rotation":[
				0,
				0,
				-0.7071068286895752,
				0.7071068286895752
			],
			"scale":[
				0.27293112874031067,
				0.42872709035873413,
				0.42872709035873413
			],
			"translation":[
				10.052449226379395,
				5.107545852661133,
				25.543622970581055
			]
		},
		{
			"mesh":14,
			"name":"Plane.001",
			"rotation":[
				0,
				0,
				-0.7071068286895752,
				0.7071068286895752
			],
			"scale":[
				0.21114781498908997,
				0.33167630434036255,
				0.33167630434036255
			],
			"translation":[
				10.188821792602539,
				5.047764778137207,
				25.543622970581055
			]
		},
		{
			"mesh":14,
			"name":"Plane.002",
			"rotation":[
				0,
				0,
				-0.7071068286895752,
				0.7071068286895752
			],
			"scale":[
				0.27293112874031067,
				0.42872709035873413,
				0.42872709035873413
			],
			"translation":[
				10.321070671081543,
				5.107545852661133,
				25.463945388793945
			]
		},
		{
			"mesh":14,
			"name":"Plane.004",
			"rotation":[
				0,
				0,
				-0.7071068286895752,
				0.7071068286895752
			],
			"scale":[
				0.21114781498908997,
				0.33167630434036255,
				0.33167630434036255
			],
			"translation":[
				10.457443237304688,
				5.047764778137207,
				25.587921142578125
			]
		},
		{
			"mesh":14,
			"name":"Plane.005",
			"rotation":[
				0,
				0,
				-0.7071068286895752,
				0.7071068286895752
			],
			"scale":[
				0.32521525025367737,
				0.5108563303947449,
				0.5108563303947449
			],
			"translation":[
				9.727948188781738,
				5.154484272003174,
				25.25044059753418
			]
		},
		{
			"mesh":14,
			"name":"Plane.006",
			"rotation":[
				0,
				0,
				-0.7071068286895752,
				0.7071068286895752
			],
			"scale":[
				0.2909146845340729,
				0.45697611570358276,
				0.5110673308372498
			],
			"translation":[
				9.89259147644043,
				5.154484272003174,
				25.25044059753418
			]
		},
		{
			"mesh":14,
			"name":"Plane.007",
			"rotation":[
				0,
				0,
				-0.7071068286895752,
				0.7071068286895752
			],
			"scale":[
				0.21114781498908997,
				0.33167630434036255,
				0.33167630434036255
			],
			"translation":[
				10.747279167175293,
				5.047764778137207,
				7.138280868530273
			]
		},
		{
			"mesh":14,
			"name":"Plane.008",
			"rotation":[
				0,
				0,
				-0.7071068286895752,
				0.7071068286895752
			],
			"scale":[
				0.27293112874031067,
				0.42872709035873413,
				0.42872709035873413
			],
			"translation":[
				10.504589080810547,
				5.107545852661133,
				16.909889221191406
			]
		},
		{
			"mesh":14,
			"name":"Plane.009",
			"rotation":[
				0,
				0,
				-0.7071068286895752,
				0.7071068286895752
			],
			"scale":[
				0.21114781498908997,
				0.33167630434036255,
				0.33167630434036255
			],
			"translation":[
				10.188821792602539,
				5.047764778137207,
				7.269441604614258
			]
		},
		{
			"mesh":14,
			"name":"Plane.010",
			"rotation":[
				0,
				0,
				-0.7071068286895752,
				0.7071068286895752
			],
			"scale":[
				0.21114781498908997,
				0.33167630434036255,
				0.33167630434036255
			],
			"translation":[
				10.606502532958984,
				5.047764778137207,
				7.138280868530273
			]
		},
		{
			"mesh":14,
			"name":"Plane.011",
			"rotation":[
				0,
				0,
				-0.7071068286895752,
				0.7071068286895752
			],
			"scale":[
				0.27293112874031067,
				0.42872709035873413,
				0.42872709035873413
			],
			"translation":[
				10.646078109741211,
				5.107545852661133,
				25.490386962890625
			]
		},
		{
			"mesh":14,
			"name":"Plane.012",
			"rotation":[
				0,
				0,
				-0.7071068286895752,
				0.7071068286895752
			],
			"scale":[
				0.21114781498908997,
				0.33167630434036255,
				0.33167630434036255
			],
			"translation":[
				10.83354377746582,
				5.047764778137207,
				25.426029205322266
			]
		},
		{
			"mesh":14,
			"name":"Plane.013",
			"rotation":[
				0,
				0,
				-0.7071068286895752,
				0.7071068286895752
			],
			"scale":[
				0.21114781498908997,
				0.33167630434036255,
				0.33167630434036255
			],
			"translation":[
				9.942452430725098,
				5.047764778137207,
				7.269441604614258
			]
		},
		{
			"mesh":14,
			"name":"Plane.014",
			"rotation":[
				0,
				0,
				-0.7071068286895752,
				0.7071068286895752
			],
			"scale":[
				0.22794438898563385,
				0.3580608069896698,
				0.3580608069896698
			],
			"translation":[
				10.319808959960938,
				5.047764778137207,
				10.023323059082031
			]
		},
		{
			"mesh":14,
			"name":"Plane.015",
			"rotation":[
				0,
				0,
				-0.7071068286895752,
				0.7071068286895752
			],
			"scale":[
				0.27293112874031067,
				0.42872709035873413,
				0.42872709035873413
			],
			"translation":[
				10.0587739944458,
				5.107545852661133,
				17.024816513061523
			]
		},
		{
			"mesh":14,
			"name":"Plane.016",
			"rotation":[
				0,
				0,
				-0.7071068286895752,
				0.7071068286895752
			],
			"scale":[
				0.21114781498908997,
				0.33167630434036255,
				0.33167630434036255
			],
			"translation":[
				10.853191375732422,
				5.047764778137207,
				7.138280868530273
			]
		},
		{
			"mesh":14,
			"name":"Plane.017",
			"rotation":[
				0,
				0,
				-0.7071068286895752,
				0.7071068286895752
			],
			"scale":[
				0.16347645223140717,
				0.25679293274879456,
				0.25679293274879456
			],
			"translation":[
				10.729175567626953,
				5.047764778137207,
				25.73261260986328
			]
		},
		{
			"mesh":15,
			"name":"Plane.018",
			"rotation":[
				0.5,
				0.5,
				-0.5,
				0.4999999701976776
			],
			"scale":[
				1.0411536693572998,
				1.0411536693572998,
				1.0411536693572998
			],
			"translation":[
				12.406509399414062,
				0.9720324873924255,
				24.949466705322266
			]
		},
		{
			"mesh":15,
			"name":"Plane.019",
			"rotation":[
				0.5,
				0.5,
				-0.5,
				0.4999999701976776
			],
			"scale":[
				1.0411536693572998,
				1.0411536693572998,
				1.0411536693572998
			],
			"translation":[
				12.406509399414062,
				0.9720324873924255,
				22.874248504638672
			]
		},
		{
			"mesh":15,
			"name":"Plane.020",
			"rotation":[
				0.5,
				0.5,
				-0.5,
				0.4999999701976776
			],
			"scale":[
				1.0411536693572998,
				1.0411536693572998,
				1.0411536693572998
			],
			"translation":[
				12.406509399414062,
				0.9720324873924255,
				20.798358917236328
			]
		},
		{
			"mesh":15,
			"name":"Plane.021",
			"rotation":[
				0.5,
				0.5,
				-0.5,
				0.4999999701976776
			],
			"scale":[
				1.0411536693572998,
				1.0411536693572998,
				1.0411536693572998
			],
			"translation":[
				12.406509399414062,
				0.9720324873924255,
				18.723140716552734
			]
		},
		{
			"mesh":15,
			"name":"Plane.022",
			"rotation":[
				0.5,
				0.5,
				-0.5,
				0.4999999701976776
			],
			"scale":[
				1.0411536693572998,
				1.0411536693572998,
				1.0411536693572998
			],
			"translation":[
				12.406509399414062,
				0.9720324873924255,
				16.63898468017578
			]
		},
		{
			"mesh":15,
			"name":"Plane.023",
			"rotation":[
				0.5,
				0.5,
				-0.5,
				0.4999999701976776
			],
			"scale":[
				1.0411536693572998,
				1.0411536693572998,
				1.0411536693572998
			],
			"translation":[
				12.406509399414062,
				0.9720324873924255,
				14.563763618469238
			]
		},
		{
			"mesh":15,
			"name":"Plane.024",
			"rotation":[
				0.5,
				0.5,
				-0.5,
				0.4999999701976776
			],
			"scale":[
				1.0411536693572998,
				1.0411536693572998,
				1.0411536693572998
			],
			"translation":[
				12.406509399414062,
				0.9720324873924255,
				12.487874984741211
			]
		},
		{
			"mesh":15,
			"name":"Plane.025",
			"rotation":[
				0.5,
				0.5,
				-0.5,
				0.4999999701976776
			],
			"scale":[
				1.0411536693572998,
				1.0411536693572998,
				1.0411536693572998
			],
			"translation":[
				12.406509399414062,
				0.9720324873924255,
				10.412656784057617
			]
		},
		{
			"mesh":15,
			"name":"Plane.026",
			"rotation":[
				0.5,
				0.5,
				-0.5,
				0.4999999701976776
			],
			"scale":[
				1.0411536693572998,
				1.0411536693572998,
				1.0411536693572998
			],
			"translation":[
				12.406509399414062,
				0.9720324873924255,
				8.337568283081055
			]
		},
		{
			"mesh":15,
			"name":"Plane.027",
			"rotation":[
				0.5,
				0.5,
				-0.5,
				0.4999999701976776
			],
			"scale":[
				1.0411536693572998,
				1.0411536693572998,
				1.0411536693572998
			],
			"translation":[
				12.406509399414062,
				0.9720324873924255,
				6.262351036071777
			]
		},
		{
			"mesh":15,
			"name":"Plane.028",
			"rotation":[
				0.5,
				0.5,
				-0.5,
				0.4999999701976776
			],
			"scale":[
				1.0411536693572998,
				1.0411536693572998,
				1.0411536693572998
			],
			"translation":[
				12.406509399414062,
				0.9720324873924255,
				4.186461925506592
			]
		},
		{
			"mesh":15,
			"name":"Plane.029",
			"rotation":[
				0.5,
				0.5,
				-0.5,
				0.4999999701976776
			],
			"scale":[
				1.0411536693572998,
				1.0411536693572998,
				1.0411536693572998
			],
			"translation":[
				12.406509399414062,
				0.9720324873924255,
				2.111243724822998
			]
		},
		{
			"mesh":15,
			"name":"Plane.030",
			"rotation":[
				0.5,
				0.5,
				-0.5,
				0.4999999701976776
			],
			"scale":[
				1.0411536693572998,
				1.0411536693572998,
				1.0411536693572998
			],
			"translation":[
				12.406509399414062,
				0.9720324873924255,
				0.027085181325674057
			]
		},
		{
			"mesh":15,
			"name":"Plane.031",
			"rotation":[
				0.5,
				0.5,
				-0.5,
				0.4999999701976776
			],
			"scale":[
				1.0411536693572998,
				1.0411536693572998,
				1.0411536693572998
			],
			"translation":[
				12.406509399414062,
				0.9720324873924255,
				-2.048133373260498
			]
		},
		{
			"mesh":15,
			"name":"Plane.032",
			"rotation":[
				0.5,
				0.5,
				-0.5,
				0.4999999701976776
			],
			"scale":[
				1.0411536693572998,
				1.0411536693572998,
				1.0411536693572998
			],
			"translation":[
				12.406509399414062,
				0.9720324873924255,
				-4.124022006988525
			]
		},
		{
			"mesh":15,
			"name":"Plane.033",
			"rotation":[
				0.5,
				0.5,
				-0.5,
				0.4999999701976776
			],
			"scale":[
				1.0411536693572998,
				1.0411536693572998,
				1.0411536693572998
			],
			"translation":[
				12.406509399414062,
				0.9720324873924255,
				-6.199240207672119
			]
		},
		{
			"mesh":15,
			"name":"Plane.034",
			"rotation":[
				0.5,
				0.5,
				-0.5,
				0.4999999701976776
			],
			"scale":[
				1.0411536693572998,
				1.0411536693572998,
				1.0411536693572998
			],
			"translation":[
				12.406509399414062,
				0.9720324873924255,
				-8.260828971862793
			]
		},
		{
			"mesh":15,
			"name":"Plane.035",
			"rotation":[
				0.5,
				0.5,
				-0.5,
				0.4999999701976776
			],
			"scale":[
				1.0411536693572998,
				1.0411536693572998,
				1.0411536693572998
			],
			"translation":[
				12.406509399414062,
				0.9720324873924255,
				-10.336047172546387
			]
		},
		{
			"mesh":15,
			"name":"Plane.036",
			"rotation":[
				0.5,
				0.5,
				-0.5,
				0.4999999701976776
			],
			"scale":[
				1.0411536693572998,
				1.0411536693572998,
				1.0411536693572998
			],
			"translation":[
				12.406509399414062,
				0.9720324873924255,
				-12.411935806274414
			]
		},
		{
			"mesh":15,
			"name":"Plane.037",
			"rotation":[
				0.5,
				0.5,
				-0.5,
				0.4999999701976776
			],
			"scale":[
				1.0411536693572998,
				1.0411536693572998,
				1.0411536693572998
			],
			"translation":[
				12.406509399414062,
				0.9720324873924255,
				-14.487154960632324
			]
		},
		{
			"mesh":15,
			"name":"Plane.038",
			"rotation":[
				0.5,
				0.5,
				-0.5,
				0.4999999701976776
			],
			"scale":[
				1.0411536693572998,
				1.0411536693572998,
				1.0411536693572998
			],
			"translation":[
				12.406509399414062,
				0.9720324873924255,
				-16.571311950683594
			]
		},
		{
			"mesh":15,
			"name":"Plane.039",
			"rotation":[
				0.5,
				0.5,
				-0.5,
				0.4999999701976776
			],
			"scale":[
				1.0411536693572998,
				1.0411536693572998,
				1.0411536693572998
			],
			"translation":[
				12.406509399414062,
				0.9720324873924255,
				-18.646530151367188
			]
		},
		{
			"mesh":15,
			"name":"Plane.040",
			"rotation":[
				0.5,
				0.5,
				-0.5,
				0.4999999701976776
			],
			"scale":[
				1.0411536693572998,
				1.0411536693572998,
				1.0411536693572998
			],
			"translation":[
				12.406509399414062,
				0.9720324873924255,
				-20.72241973876953
			]
		},
		{
			"mesh":15,
			"name":"Plane.041",
			"rotation":[
				0.5,
				0.5,
				-0.5,
				0.4999999701976776
			],
			"scale":[
				1.0411536693572998,
				1.0411536693572998,
				1.0411536693572998
			],
			"translation":[
				12.406509399414062,
				0.9720324873924255,
				-22.797637939453125
			]
		},
		{
			"mesh":15,
			"name":"Plane.042",
			"rotation":[
				0.5,
				0.5,
				-0.5,
				0.4999999701976776
			],
			"scale":[
				1.0411536693572998,
				1.0411536693572998,
				1.0411536693572998
			],
			"translation":[
				12.406509399414062,
				0.9720324873924255,
				-24.872726440429688
			]
		},
		{
			"mesh":16,
			"name":"Plane.043",
			"rotation":[
				0.35564425587654114,
				0.6111605167388916,
				-0.35564425587654114,
				0.6111604571342468
			],
			"scale":[
				1.0411536693572998,
				1.0411536693572998,
				1.0411536693572998
			],
			"translation":[
				11.314382553100586,
				3.958465814590454,
				24.95046615600586
			]
		},
		{
			"mesh":16,
			"name":"Plane.044",
			"rotation":[
				0.35564425587654114,
				0.6111605167388916,
				-0.35564425587654114,
				0.6111604571342468
			],
			"scale":[
				1.0411536693572998,
				1.0411536693572998,
				1.0411536693572998
			],
			"translation":[
				11.877806663513184,
				2.9209671020507812,
				24.95046615600586
			]
		},
		{
			"mesh":16,
			"name":"Plane.045",
			"rotation":[
				0.35564425587654114,
				0.6111605167388916,
				-0.35564425587654114,
				0.6111604571342468
			],
			"scale":[
				1.0411536693572998,
				1.0411536693572998,
				1.0411536693572998
			],
			"translation":[
				11.29052734375,
				3.958465814590454,
				22.945613861083984
			]
		},
		{
			"mesh":16,
			"name":"Plane.046",
			"rotation":[
				0.35564425587654114,
				0.6111605167388916,
				-0.35564425587654114,
				0.6111604571342468
			],
			"scale":[
				1.0411536693572998,
				1.0411536693572998,
				1.0411536693572998
			],
			"translation":[
				11.89601993560791,
				2.9209671020507812,
				22.945613861083984
			]
		},
		{
			"mesh":16,
			"name":"Plane.047",
			"rotation":[
				0.35564425587654114,
				0.6111605167388916,
				-0.35564425587654114,
				0.6111604571342468
			],
			"scale":[
				1.0411536693572998,
				1.0411536693572998,
				1.0411536693572998
			],
			"translation":[
				11.314382553100586,
				3.958465814590454,
				20.899898529052734
			]
		},
		{
			"mesh":16,
			"name":"Plane.048",
			"rotation":[
				0.35564425587654114,
				0.6111605167388916,
				-0.35564425587654114,
				0.6111604571342468
			],
			"scale":[
				1.0411536693572998,
				1.0411536693572998,
				1.0411536693572998
			],
			"translation":[
				11.877806663513184,
				2.9209671020507812,
				20.899898529052734
			]
		},
		{
			"mesh":16,
			"name":"Plane.049",
			"rotation":[
				0.35564425587654114,
				0.6111605167388916,
				-0.35564425587654114,
				0.6111604571342468
			],
			"scale":[
				1.0411536693572998,
				1.0411536693572998,
				1.0411536693572998
			],
			"translation":[
				11.29052734375,
				3.958465814590454,
				18.89504623413086
			]
		},
		{
			"mesh":16,
			"name":"Plane.050",
			"rotation":[
				0.35564425587654114,
				0.6111605167388916,
				-0.35564425587654114,
				0.6111604571342468
			],
			"scale":[
				1.0411536693572998,
				1.0411536693572998,
				1.0411536693572998
			],
			"translation":[
				11.89601993560791,
				2.9209671020507812,
				18.89504623413086
			]
		},
		{
			"mesh":16,
			"name":"Plane.051",
			"rotation":[
				0.35564425587654114,
				0.6111605167388916,
				-0.35564425587654114,
				0.6111604571342468
			],
			"scale":[
				1.0411536693572998,
				1.0411536693572998,
				1.0411536693572998
			],
			"translation":[
				11.314382553100586,
				3.958465814590454,
				16.898845672607422
			]
		},
		{
			"mesh":16,
			"name":"Plane.052",
			"rotation":[
				0.35564425587654114,
				0.6111605167388916,
				-0.35564425587654114,
				0.6111604571342468
			],
			"scale":[
				1.0411536693572998,
				1.0411536693572998,
				1.0411536693572998
			],
			"translation":[
				11.877806663513184,
				2.9209671020507812,
				16.898845672607422
			]
		},
		{
			"mesh":16,
			"name":"Plane.053",
			"rotation":[
				0.35564425587654114,
				0.6111605167388916,
				-0.35564425587654114,
				0.6111604571342468
			],
			"scale":[
				1.0411536693572998,
				1.0411536693572998,
				1.0411536693572998
			],
			"translation":[
				11.29052734375,
				3.958465814590454,
				14.893994331359863
			]
		},
		{
			"mesh":16,
			"name":"Plane.054",
			"rotation":[
				0.35564425587654114,
				0.6111605167388916,
				-0.35564425587654114,
				0.6111604571342468
			],
			"scale":[
				1.0411536693572998,
				1.0411536693572998,
				1.0411536693572998
			],
			"translation":[
				11.89601993560791,
				2.9209671020507812,
				14.893994331359863
			]
		},
		{
			"mesh":16,
			"name":"Plane.055",
			"rotation":[
				0.35564425587654114,
				0.6111605167388916,
				-0.35564425587654114,
				0.6111604571342468
			],
			"scale":[
				1.0411536693572998,
				1.0411536693572998,
				1.0411536693572998
			],
			"translation":[
				11.314382553100586,
				3.958465814590454,
				12.848278999328613
			]
		},
		{
			"mesh":16,
			"name":"Plane.056",
			"rotation":[
				0.35564425587654114,
				0.6111605167388916,
				-0.35564425587654114,
				0.6111604571342468
			],
			"scale":[
				1.0411536693572998,
				1.0411536693572998,
				1.0411536693572998
			],
			"translation":[
				11.877806663513184,
				2.9209671020507812,
				12.848278999328613
			]
		},
		{
			"mesh":16,
			"name":"Plane.057",
			"rotation":[
				0.35564425587654114,
				0.6111605167388916,
				-0.35564425587654114,
				0.6111604571342468
			],
			"scale":[
				1.0411536693572998,
				1.0411536693572998,
				1.0411536693572998
			],
			"translation":[
				11.29052734375,
				3.958465814590454,
				10.843426704406738
			]
		},
		{
			"mesh":16,
			"name":"Plane.058",
			"rotation":[
				0.35564425587654114,
				0.6111605167388916,
				-0.35564425587654114,
				0.6111604571342468
			],
			"scale":[
				1.0411536693572998,
				1.0411536693572998,
				1.0411536693572998
			],
			"translation":[
				11.89601993560791,
				2.9209671020507812,
				10.843426704406738
			]
		},
		{
			"mesh":16,
			"name":"Plane.059",
			"rotation":[
				0.35564425587654114,
				0.6111605167388916,
				-0.35564425587654114,
				0.6111604571342468
			],
			"scale":[
				1.0411536693572998,
				1.0411536693572998,
				1.0411536693572998
			],
			"translation":[
				11.314382553100586,
				3.958465814590454,
				8.784587860107422
			]
		},
		{
			"mesh":16,
			"name":"Plane.060",
			"rotation":[
				0.35564425587654114,
				0.6111605167388916,
				-0.35564425587654114,
				0.6111604571342468
			],
			"scale":[
				1.0411536693572998,
				1.0411536693572998,
				1.0411536693572998
			],
			"translation":[
				11.877806663513184,
				2.9209671020507812,
				8.784587860107422
			]
		},
		{
			"mesh":16,
			"name":"Plane.061",
			"rotation":[
				0.35564425587654114,
				0.6111605167388916,
				-0.35564425587654114,
				0.6111604571342468
			],
			"scale":[
				1.0411536693572998,
				1.0411536693572998,
				1.0411536693572998
			],
			"translation":[
				11.29052734375,
				3.958465814590454,
				6.779735565185547
			]
		},
		{
			"mesh":16,
			"name":"Plane.062",
			"rotation":[
				0.35564425587654114,
				0.6111605167388916,
				-0.35564425587654114,
				0.6111604571342468
			],
			"scale":[
				1.0411536693572998,
				1.0411536693572998,
				1.0411536693572998
			],
			"translation":[
				11.89601993560791,
				2.9209671020507812,
				6.779735565185547
			]
		},
		{
			"mesh":16,
			"name":"Plane.063",
			"rotation":[
				0.35564425587654114,
				0.6111605167388916,
				-0.35564425587654114,
				0.6111604571342468
			],
			"scale":[
				1.0411536693572998,
				1.0411536693572998,
				1.0411536693572998
			],
			"translation":[
				11.314382553100586,
				3.958465814590454,
				4.734020233154297
			]
		},
		{
			"mesh":16,
			"name":"Plane.064",
			"rotation":[
				0.35564425587654114,
				0.6111605167388916,
				-0.35564425587654114,
				0.6111604571342468
			],
			"scale":[
				1.0411536693572998,
				1.0411536693572998,
				1.0411536693572998
			],
			"translation":[
				11.877806663513184,
				2.9209671020507812,
				4.734020233154297
			]
		},
		{
			"mesh":16,
			"name":"Plane.065",
			"rotation":[
				0.35564425587654114,
				0.6111605167388916,
				-0.35564425587654114,
				0.6111604571342468
			],
			"scale":[
				1.0411536693572998,
				1.0411536693572998,
				1.0411536693572998
			],
			"translation":[
				11.29052734375,
				3.958465814590454,
				2.729167938232422
			]
		},
		{
			"mesh":16,
			"name":"Plane.066",
			"rotation":[
				0.35564425587654114,
				0.6111605167388916,
				-0.35564425587654114,
				0.6111604571342468
			],
			"scale":[
				1.0411536693572998,
				1.0411536693572998,
				1.0411536693572998
			],
			"translation":[
				11.89601993560791,
				2.9209671020507812,
				2.729167938232422
			]
		},
		{
			"mesh":16,
			"name":"Plane.067",
			"rotation":[
				0.35564425587654114,
				0.6111605167388916,
				-0.35564425587654114,
				0.6111604571342468
			],
			"scale":[
				1.0411536693572998,
				1.0411536693572998,
				1.0411536693572998
			],
			"translation":[
				11.314382553100586,
				3.958465814590454,
				0.7329673767089844
			]
		},
		{
			"mesh":16,
			"name":"Plane.068",
			"rotation":[
				0.35564425587654114,
				0.6111605167388916,
				-0.35564425587654114,
				0.6111604571342468
			],
			"scale":[
				1.0411536693572998,
				1.0411536693572998,
				1.0411536693572998
			],
			"translation":[
				11.877806663513184,
				2.9209671020507812,
				0.7329673767089844
			]
		},
		{
			"mesh":16,
			"name":"Plane.069",
			"rotation":[
				0.35564425587654114,
				0.6111605167388916,
				-0.35564425587654114,
				0.6111604571342468
			],
			"scale":[
				1.0411536693572998,
				1.0411536693572998,
				1.0411536693572998
			],
			"translation":[
				11.29052734375,
				3.958465814590454,
				-1.2718839645385742
			]
		},
		{
			"mesh":16,
			"name":"Plane.070",
			"rotation":[
				0.35564425587654114,
				0.6111605167388916,
				-0.35564425587654114,
				0.6111604571342468
			],
			"scale":[
				1.0411536693572998,
				1.0411536693572998,
				1.0411536693572998
			],
			"translation":[
				11.89601993560791,
				2.9209671020507812,
				-1.2718839645385742
			]
		},
		{
			"mesh":16,
			"name":"Plane.071",
			"rotation":[
				0.35564425587654114,
				0.6111605167388916,
				-0.35564425587654114,
				0.6111604571342468
			],
			"scale":[
				1.0411536693572998,
				1.0411536693572998,
				1.0411536693572998
			],
			"translation":[
				11.314382553100586,
				3.958465814590454,
				-3.317599296569824
			]
		},
		{
			"mesh":16,
			"name":"Plane.072",
			"rotation":[
				0.35564425587654114,
				0.6111605167388916,
				-0.35564425587654114,
				0.6111604571342468
			],
			"scale":[
				1.0411536693572998,
				1.0411536693572998,
				1.0411536693572998
			],
			"translation":[
				11.877806663513184,
				2.9209671020507812,
				-3.317599296569824
			]
		},
		{
			"mesh":16,
			"name":"Plane.073",
			"rotation":[
				0.35564425587654114,
				0.6111605167388916,
				-0.35564425587654114,
				0.6111604571342468
			],
			"scale":[
				1.0411536693572998,
				1.0411536693572998,
				1.0411536693572998
			],
			"translation":[
				11.29052734375,
				3.958465814590454,
				-5.322451591491699
			]
		},
		{
			"mesh":16,
			"name":"Plane.074",
			"rotation":[
				0.35564425587654114,
				0.6111605167388916,
				-0.35564425587654114,
				0.6111604571342468
			],
			"scale":[
				1.0411536693572998,
				1.0411536693572998,
				1.0411536693572998
			],
			"translation":[
				11.89601993560791,
				2.9209671020507812,
				-5.322451591491699
			]
		},
		{
			"mesh":16,
			"name":"Plane.075",
			"rotation":[
				0.35564425587654114,
				0.6111605167388916,
				-0.35564425587654114,
				0.6111604571342468
			],
			"scale":[
				1.0411536693572998,
				1.0411536693572998,
				1.0411536693572998
			],
			"translation":[
				11.314382553100586,
				3.958465814590454,
				-10.808303833007812
			]
		},
		{
			"mesh":16,
			"name":"Plane.076",
			"rotation":[
				0.35564425587654114,
				0.6111605167388916,
				-0.35564425587654114,
				0.6111604571342468
			],
			"scale":[
				1.0411536693572998,
				1.0411536693572998,
				1.0411536693572998
			],
			"translation":[
				11.877806663513184,
				2.9209671020507812,
				-10.808303833007812
			]
		},
		{
			"mesh":16,
			"name":"Plane.077",
			"rotation":[
				0.35564425587654114,
				0.6111605167388916,
				-0.35564425587654114,
				0.6111604571342468
			],
			"scale":[
				1.0411536693572998,
				1.0411536693572998,
				1.0411536693572998
			],
			"translation":[
				11.29052734375,
				3.958465814590454,
				-12.813156127929688
			]
		},
		{
			"mesh":16,
			"name":"Plane.078",
			"rotation":[
				0.35564425587654114,
				0.6111605167388916,
				-0.35564425587654114,
				0.6111604571342468
			],
			"scale":[
				1.0411536693572998,
				1.0411536693572998,
				1.0411536693572998
			],
			"translation":[
				11.89601993560791,
				2.9209671020507812,
				-12.813156127929688
			]
		},
		{
			"mesh":16,
			"name":"Plane.079",
			"rotation":[
				0.35564425587654114,
				0.6111605167388916,
				-0.35564425587654114,
				0.6111604571342468
			],
			"scale":[
				1.0411536693572998,
				1.0411536693572998,
				1.0411536693572998
			],
			"translation":[
				11.314382553100586,
				3.958465814590454,
				-14.858871459960938
			]
		},
		{
			"mesh":16,
			"name":"Plane.080",
			"rotation":[
				0.35564425587654114,
				0.6111605167388916,
				-0.35564425587654114,
				0.6111604571342468
			],
			"scale":[
				1.0411536693572998,
				1.0411536693572998,
				1.0411536693572998
			],
			"translation":[
				11.877806663513184,
				2.9209671020507812,
				-14.858871459960938
			]
		},
		{
			"mesh":16,
			"name":"Plane.081",
			"rotation":[
				0.35564425587654114,
				0.6111605167388916,
				-0.35564425587654114,
				0.6111604571342468
			],
			"scale":[
				1.0411536693572998,
				1.0411536693572998,
				1.0411536693572998
			],
			"translation":[
				11.29052734375,
				3.958465814590454,
				-16.863723754882812
			]
		},
		{
			"mesh":16,
			"name":"Plane.082",
			"rotation":[
				0.35564425587654114,
				0.6111605167388916,
				-0.35564425587654114,
				0.6111604571342468
			],
			"scale":[
				1.0411536693572998,
				1.0411536693572998,
				1.0411536693572998
			],
			"translation":[
				11.89601993560791,
				2.9209671020507812,
				-16.863723754882812
			]
		},
		{
			"mesh":16,
			"name":"Plane.083",
			"rotation":[
				0.35564425587654114,
				0.6111605167388916,
				-0.35564425587654114,
				0.6111604571342468
			],
			"scale":[
				1.0411536693572998,
				1.0411536693572998,
				1.0411536693572998
			],
			"translation":[
				11.314382553100586,
				3.958465814590454,
				-18.85992431640625
			]
		},
		{
			"mesh":16,
			"name":"Plane.084",
			"rotation":[
				0.35564425587654114,
				0.6111605167388916,
				-0.35564425587654114,
				0.6111604571342468
			],
			"scale":[
				1.0411536693572998,
				1.0411536693572998,
				1.0411536693572998
			],
			"translation":[
				11.877806663513184,
				2.9209671020507812,
				-18.85992431640625
			]
		},
		{
			"mesh":16,
			"name":"Plane.085",
			"rotation":[
				0.35564425587654114,
				0.6111605167388916,
				-0.35564425587654114,
				0.6111604571342468
			],
			"scale":[
				1.0411536693572998,
				1.0411536693572998,
				1.0411536693572998
			],
			"translation":[
				11.29052734375,
				3.958465814590454,
				-20.864776611328125
			]
		},
		{
			"mesh":16,
			"name":"Plane.086",
			"rotation":[
				0.35564425587654114,
				0.6111605167388916,
				-0.35564425587654114,
				0.6111604571342468
			],
			"scale":[
				1.0411536693572998,
				1.0411536693572998,
				1.0411536693572998
			],
			"translation":[
				11.89601993560791,
				2.9209671020507812,
				-20.864776611328125
			]
		},
		{
			"mesh":16,
			"name":"Plane.087",
			"rotation":[
				0.35564425587654114,
				0.6111605167388916,
				-0.35564425587654114,
				0.6111604571342468
			],
			"scale":[
				1.0411536693572998,
				1.0411536693572998,
				1.0411536693572998
			],
			"translation":[
				11.314382553100586,
				3.958465814590454,
				-22.910491943359375
			]
		},
		{
			"mesh":16,
			"name":"Plane.088",
			"rotation":[
				0.35564425587654114,
				0.6111605167388916,
				-0.35564425587654114,
				0.6111604571342468
			],
			"scale":[
				1.0411536693572998,
				1.0411536693572998,
				1.0411536693572998
			],
			"translation":[
				11.877806663513184,
				2.9209671020507812,
				-22.910491943359375
			]
		},
		{
			"mesh":16,
			"name":"Plane.089",
			"rotation":[
				0.35564425587654114,
				0.6111605167388916,
				-0.35564425587654114,
				0.6111604571342468
			],
			"scale":[
				1.0411536693572998,
				1.0411536693572998,
				1.0411536693572998
			],
			"translation":[
				11.29052734375,
				3.958465814590454,
				-24.91534423828125
			]
		},
		{
			"mesh":16,
			"name":"Plane.090",
			"rotation":[
				0.35564425587654114,
				0.6111605167388916,
				-0.35564425587654114,
				0.6111604571342468
			],
			"scale":[
				1.0411536693572998,
				1.0411536693572998,
				1.0411536693572998
			],
			"translation":[
				11.89601993560791,
				2.9209671020507812,
				-24.91534423828125
			]
		},
		{
			"mesh":16,
			"name":"Plane.091",
			"rotation":[
				0.35564425587654114,
				0.6111605167388916,
				-0.35564425587654114,
				0.6111604571342468
			],
			"scale":[
				1.0411536693572998,
				1.0411536693572998,
				1.0411536693572998
			],
			"translation":[
				11.314382553100586,
				3.958465814590454,
				-6.985651969909668
			]
		},
		{
			"mesh":16,
			"name":"Plane.092",
			"rotation":[
				0.35564425587654114,
				0.6111605167388916,
				-0.35564425587654114,
				0.6111604571342468
			],
			"scale":[
				1.0411536693572998,
				1.0411536693572998,
				1.0411536693572998
			],
			"translation":[
				11.877806663513184,
				2.9209671020507812,
				-6.985651969909668
			]
		},
		{
			"mesh":16,
			"name":"Plane.093",
			"rotation":[
				0.35564425587654114,
				0.6111605167388916,
				-0.35564425587654114,
				0.6111604571342468
			],
			"scale":[
				1.0411536693572998,
				1.0411536693572998,
				1.0411536693572998
			],
			"translation":[
				11.29052734375,
				3.958465814590454,
				-8.990504264831543
			]
		},
		{
			"mesh":16,
			"name":"Plane.094",
			"rotation":[
				0.35564425587654114,
				0.6111605167388916,
				-0.35564425587654114,
				0.6111604571342468
			],
			"scale":[
				1.0411536693572998,
				1.0411536693572998,
				1.0411536693572998
			],
			"translation":[
				11.89601993560791,
				2.9209671020507812,
				-8.990504264831543
			]
		}
	],
	"materials":[
		{
			"doubleSided":true,
			"name":"Material.003",
			"pbrMetallicRoughness":{
				"baseColorFactor":[
					0.04077857360243797,
					0.04507686197757721,
					0.06526123732328415,
					1
				],
				"metallicFactor":0
			}
		},
		{
			"alphaMode":"BLEND",
			"doubleSided":true,
			"name":"7rigahama",
			"pbrMetallicRoughness":{
				"baseColorTexture":{
					"index":0
				},
				"metallicFactor":0,
				"roughnessFactor":0
			}
		},
		{
			"doubleSided":true,
			"name":"Material.001",
			"pbrMetallicRoughness":{
				"baseColorFactor":[
					0.5355836749076843,
					0.5355836749076843,
					0.5355836749076843,
					1
				],
				"metallicFactor":0,
				"roughnessFactor":0.5
			}
		},
		{
			"doubleSided":true,
			"name":"Material.002",
			"pbrMetallicRoughness":{
				"baseColorFactor":[
					0.8000074625015259,
					0.17304129898548126,
					0.011889664456248283,
					1
				],
				"metallicFactor":0,
				"roughnessFactor":0.5
			}
		},
		{
			"doubleSided":true,
			"name":"Material.004",
			"pbrMetallicRoughness":{
				"baseColorFactor":[
					0.0037706680595874786,
					0.0031832328531891108,
					0.014348986558616161,
					1
				],
				"metallicFactor":0.5,
				"roughnessFactor":0
			}
		},
		{
			"doubleSided":true,
			"name":"kamakograss",
			"pbrMetallicRoughness":{
				"baseColorFactor":[
					0.150529682636261,
					0.05698264390230179,
					0.022610632702708244,
					1
				],
				"metallicFactor":0,
				"roughnessFactor":0
			}
		},
		{
			"doubleSided":true,
			"name":"Material",
			"pbrMetallicRoughness":{
				"baseColorFactor":[
					0.11336744576692581,
					0.21019485592842102,
					0.023688670247793198,
					1
				],
				"metallicFactor":0,
				"roughnessFactor":0.5
			}
		},
		{
			"alphaMode":"BLEND",
			"doubleSided":true,
			"name":"7riyoheki",
			"pbrMetallicRoughness":{
				"baseColorTexture":{
					"index":1
				},
				"metallicFactor":0
			}
		},
		{
			"alphaMode":"BLEND",
			"doubleSided":true,
			"name":"Material.005",
			"pbrMetallicRoughness":{
				"baseColorTexture":{
					"index":2
				},
				"metallicFactor":0
			}
		}
	],
	"meshes":[
		{
			"name":"Cube.001",
			"primitives":[
				{
					"attributes":{
						"POSITION":0,
						"NORMAL":1,
						"TEXCOORD_0":2
					},
					"indices":3,
					"material":0
				}
			]
		},
		{
			"name":"Cube.010",
			"primitives":[
				{
					"attributes":{
						"POSITION":4,
						"NORMAL":5,
						"TEXCOORD_0":6
					},
					"indices":7,
					"material":1
				}
			]
		},
		{
			"name":"7rigahama",
			"primitives":[
				{
					"attributes":{
						"POSITION":8,
						"NORMAL":9,
						"TEXCOORD_0":10
					},
					"indices":11,
					"material":1
				}
			]
		},
		{
			"name":"Cube.013",
			"primitives":[
				{
					"attributes":{
						"POSITION":12,
						"NORMAL":13,
						"TEXCOORD_0":14
					},
					"indices":15,
					"material":2
				}
			]
		},
		{
			"name":"Cube.003",
			"primitives":[
				{
					"attributes":{
						"POSITION":16,
						"NORMAL":17,
						"TEXCOORD_0":18
					},
					"indices":3,
					"material":3
				}
			]
		},
		{
			"name":"Cube.005",
			"primitives":[
				{
					"attributes":{
						"POSITION":19,
						"NORMAL":20,
						"TEXCOORD_0":21
					},
					"indices":22
				},
				{
					"attributes":{
						"POSITION":23,
						"NORMAL":24,
						"TEXCOORD_0":25
					},
					"indices":26,
					"material":4
				}
			]
		},
		{
			"name":"Cube.009",
			"primitives":[
				{
					"attributes":{
						"POSITION":27,
						"NORMAL":28,
						"TEXCOORD_0":29
					},
					"indices":7
				}
			]
		},
		{
			"name":"Cube.014",
			"primitives":[
				{
					"attributes":{
						"POSITION":30,
						"NORMAL":31,
						"TEXCOORD_0":32
					},
					"indices":7
				}
			]
		},
		{
			"name":"Cube.015",
			"primitives":[
				{
					"attributes":{
						"POSITION":33,
						"NORMAL":34,
						"TEXCOORD_0":35
					},
					"indices":36
				}
			]
		},
		{
			"name":"kamakograss",
			"primitives":[
				{
					"attributes":{
						"POSITION":37,
						"NORMAL":38,
						"TEXCOORD_0":39
					},
					"indices":11,
					"material":5
				}
			]
		},
		{
			"name":"Cube.016",
			"primitives":[
				{
					"attributes":{
						"POSITION":40,
						"NORMAL":41,
						"TEXCOORD_0":42
					},
					"indices":7
				}
			]
		},
		{
			"name":"Cube",
			"primitives":[
				{
					"attributes":{
						"POSITION":43,
						"NORMAL":44,
						"TEXCOORD_0":45
					},
					"indices":46,
					"material":2
				}
			]
		},
		{
			"name":"Cube.004",
			"primitives":[
				{
					"attributes":{
						"POSITION":47,
						"NORMAL":48,
						"TEXCOORD_0":49
					},
					"indices":50,
					"material":2
				}
			]
		},
		{
			"name":"Plane",
			"primitives":[
				{
					"attributes":{
						"POSITION":51,
						"NORMAL":52,
						"TEXCOORD_0":53
					},
					"indices":54,
					"material":3
				}
			]
		},
		{
			"name":"Plane.001",
			"primitives":[
				{
					"attributes":{
						"POSITION":55,
						"NORMAL":56,
						"TEXCOORD_0":57
					},
					"indices":58,
					"material":6
				}
			]
		},
		{
			"name":"Plane.002",
			"primitives":[
				{
					"attributes":{
						"POSITION":59,
						"NORMAL":60,
						"TEXCOORD_0":61
					},
					"indices":11,
					"material":7
				}
			]
		},
		{
			"name":"Plane.003",
			"primitives":[
				{
					"attributes":{
						"POSITION":62,
						"NORMAL":63,
						"TEXCOORD_0":64
					},
					"indices":11,
					"material":8
				}
			]
		}
	],
	"textures":[
		{
			"sampler":0,
			"source":0
		},
		{
			"sampler":1,
			"source":1
		},
		{
			"sampler":1,
			"source":2
		}
	],
	"images":[
		{
			"mimeType":"image/png",
			"name":"7rigahama",
			"uri":"7rigahama.png"
		},
		{
			"mimeType":"image/png",
			"name":"\u77f3\u57a3O001",
			"uri":"%E7%9F%B3%E5%9E%A3O001.png"
		},
		{
			"mimeType":"image/png",
			"name":"\u77f3\u57a3N06",
			"uri":"%E7%9F%B3%E5%9E%A3N06.png"
		}
	],
	"accessors":[
		{
			"bufferView":0,
			"componentType":5126,
			"count":4,
			"max":[
				5.0482707023620605,
				1,
				26.004098892211914
			],
			"min":[
				-1,
				1,
				-25.93086051940918
			],
			"type":"VEC3"
		},
		{
			"bufferView":1,
			"componentType":5126,
			"count":4,
			"type":"VEC3"
		},
		{
			"bufferView":2,
			"componentType":5126,
			"count":4,
			"type":"VEC2"
		},
		{
			"bufferView":3,
			"componentType":5123,
			"count":6,
			"type":"SCALAR"
		},
		{
			"bufferView":4,
			"componentType":5126,
			"count":24,
			"max":[
				0,
				0.3382272720336914,
				26.078914642333984
			],
			"min":[
				-1,
				-1.6617727279663086,
				-25.97361183166504
			],
			"type":"VEC3"
		},
		{
			"bufferView":5,
			"componentType":5126,
			"count":24,
			"type":"VEC3"
		},
		{
			"bufferView":6,
			"componentType":5126,
			"count":24,
			"type":"VEC2"
		},
		{
			"bufferView":7,
			"componentType":5123,
			"count":36,
			"type":"SCALAR"
		},
		{
			"bufferView":8,
			"componentType":5126,
			"count":4,
			"max":[
				1.0865384340286255,
				0,
				0.5
			],
			"min":[
				-1.0865384340286255,
				0,
				-0.5
			],
			"type":"VEC3"
		},
		{
			"bufferView":9,
			"componentType":5126,
			"count":4,
			"type":"VEC3"
		},
		{
			"bufferView":10,
			"componentType":5126,
			"count":4,
			"type":"VEC2"
		},
		{
			"bufferView":11,
			"componentType":5123,
			"count":6,
			"type":"SCALAR"
		},
		{
			"bufferView":12,
			"componentType":5126,
			"count":192,
			"max":[
				1,
				4.523305416107178,
				41.49413299560547
			],
			"min":[
				-3.158324718475342,
				-8.465497970581055,
				-1.277896523475647
			],
			"type":"VEC3"
		},
		{
			"bufferView":13,
			"componentType":5126,
			"count":192,
			"type":"VEC3"
		},
		{
			"bufferView":14,
			"componentType":5126,
			"count":192,
			"type":"VEC2"
		},
		{
			"bufferView":15,
			"componentType":5123,
			"count":288,
			"type":"SCALAR"
		},
		{
			"bufferView":16,
			"componentType":5126,
			"count":4,
			"max":[
				-0.8722802996635437,
				1,
				26.004098892211914
			],
			"min":[
				-1,
				1,
				-25.93086051940918
			],
			"type":"VEC3"
		},
		{
			"bufferView":17,
			"componentType":5126,
			"count":4,
			"type":"VEC3"
		},
		{
			"bufferView":18,
			"componentType":5126,
			"count":4,
			"type":"VEC2"
		},
		{
			"bufferView":19,
			"componentType":5126,
			"count":96,
			"max":[
				1.006472110748291,
				8.199443817138672,
				0.8840727806091309
			],
			"min":[
				-2.238222122192383,
				-1,
				-4.2934722900390625
			],
			"type":"VEC3"
		},
		{
			"bufferView":20,
			"componentType":5126,
			"count":96,
			"type":"VEC3"
		},
		{
			"bufferView":21,
			"componentType":5126,
			"count":96,
			"type":"VEC2"
		},
		{
			"bufferView":22,
			"componentType":5123,
			"count":144,
			"type":"SCALAR"
		},
		{
			"bufferView":23,
			"componentType":5126,
			"count":72,
			"max":[
				0.7869631052017212,
				8.012832641601562,
				0.6233710050582886
			],
			"min":[
				0.7869631052017212,
				-0.03966355323791504,
				-4.105901718139648
			],
			"type":"VEC3"
		},
		{
			"bufferView":24,
			"componentType":5126,
			"count":72,
			"type":"VEC3"
		},
		{
			"bufferView":25,
			"componentType":5126,
			"count":72,
			"type":"VEC2"
		},
		{
			"bufferView":26,
			"componentType":5123,
			"count":108,
			"type":"SCALAR"
		},
		{
			"bufferView":27,
			"componentType":5126,
			"count":24,
			"max":[
				0.9816503524780273,
				8.121334075927734,
				0.8840727806091309
			],
			"min":[
				0.4726930856704712,
				-1,
				0.6230615377426147
			],
			"type":"VEC3"
		},
		{
			"bufferView":28,
			"componentType":5126,
			"count":24,
			"type":"VEC3"
		},
		{
			"bufferView":29,
			"componentType":5126,
			"count":24,
			"type":"VEC2"
		},
		{
			"bufferView":30,
			"componentType":5126,
			"count":24,
			"max":[
				1.1736255884170532,
				37.394676208496094,
				0.8840740323066711
			],
			"min":[
				0.4726930856704712,
				-13.81498908996582,
				0.6230610013008118
			],
			"type":"VEC3"
		},
		{
			"bufferView":31,
			"componentType":5126,
			"count":24,
			"type":"VEC3"
		},
		{
			"bufferView":32,
			"componentType":5126,
			"count":24,
			"type":"VEC2"
		},
		{
			"bufferView":33,
			"componentType":5126,
			"count":20,
			"max":[
				7.2535929679870605,
				37.394676208496094,
				0.8840740323066711
			],
			"min":[
				-0.5426068305969238,
				-13.81498908996582,
				-8.459750175476074
			],
			"type":"VEC3"
		},
		{
			"bufferView":34,
			"componentType":5126,
			"count":20,
			"type":"VEC3"
		},
		{
			"bufferView":35,
			"componentType":5126,
			"count":20,
			"type":"VEC2"
		},
		{
			"bufferView":36,
			"componentType":5123,
			"count":30,
			"type":"SCALAR"
		},
		{
			"bufferView":37,
			"componentType":5126,
			"count":4,
			"max":[
				1.8536585569381714,
				0,
				0.5
			],
			"min":[
				-1.8536585569381714,
				0,
				-0.5
			],
			"type":"VEC3"
		},
		{
			"bufferView":38,
			"componentType":5126,
			"count":4,
			"type":"VEC3"
		},
		{
			"bufferView":39,
			"componentType":5126,
			"count":4,
			"type":"VEC2"
		},
		{
			"bufferView":40,
			"componentType":5126,
			"count":24,
			"max":[
				1.0892512798309326,
				8.568490028381348,
				1
			],
			"min":[
				-0.9107487797737122,
				-1,
				-0.17029529809951782
			],
			"type":"VEC3"
		},
		{
			"bufferView":41,
			"componentType":5126,
			"count":24,
			"type":"VEC3"
		},
		{
			"bufferView":42,
			"componentType":5126,
			"count":24,
			"type":"VEC2"
		},
		{
			"bufferView":43,
			"componentType":5126,
			"count":10,
			"max":[
				0.8657267689704895,
				1.3390191793441772,
				4.308483123779297
			],
			"min":[
				-10.084033966064453,
				-3.6166250705718994,
				-47.596256256103516
			],
			"type":"VEC3"
		},
		{
			"bufferView":44,
			"componentType":5126,
			"count":10,
			"type":"VEC3"
		},
		{
			"bufferView":45,
			"componentType":5126,
			"count":10,
			"type":"VEC2"
		},
		{
			"bufferView":46,
			"componentType":5123,
			"count":18,
			"type":"SCALAR"
		},
		{
			"bufferView":47,
			"componentType":5126,
			"count":24,
			"max":[
				5.913267135620117,
				-0.029792819172143936,
				26.023479461669922
			],
			"min":[
				-1,
				-5.874640941619873,
				-25.938261032104492
			],
			"type":"VEC3"
		},
		{
			"bufferView":48,
			"componentType":5126,
			"count":24,
			"type":"VEC3"
		},
		{
			"bufferView":49,
			"componentType":5126,
			"count":24,
			"type":"VEC2"
		},
		{
			"bufferView":50,
			"componentType":5123,
			"count":36,
			"type":"SCALAR"
		},
		{
			"bufferView":51,
			"componentType":5126,
			"count":75,
			"max":[
				0.4339752197265625,
				0,
				0.8887000679969788
			],
			"min":[
				-0.4262930750846863,
				0,
				-1
			],
			"type":"VEC3"
		},
		{
			"bufferView":52,
			"componentType":5126,
			"count":75,
			"type":"VEC3"
		},
		{
			"bufferView":53,
			"componentType":5126,
			"count":75,
			"type":"VEC2"
		},
		{
			"bufferView":54,
			"componentType":5123,
			"count":219,
			"type":"SCALAR"
		},
		{
			"bufferView":55,
			"componentType":5126,
			"count":16217,
			"max":[
				1.0000007152557373,
				6.825103497773086e-16,
				0.999992311000824
			],
			"min":[
				-0.09605396538972855,
				-7.105427357601002e-15,
				-99.98223114013672
			],
			"type":"VEC3"
		},
		{
			"bufferView":56,
			"componentType":5126,
			"count":16217,
			"type":"VEC3"
		},
		{
			"bufferView":57,
			"componentType":5126,
			"count":16217,
			"type":"VEC2"
		},
		{
			"bufferView":58,
			"componentType":5123,
			"count":58932,
			"type":"SCALAR"
		},
		{
			"bufferView":59,
			"componentType":5126,
			"count":4,
			"max":[
				1,
				0,
				1
			],
			"min":[
				-1,
				0,
				-1
			],
			"type":"VEC3"
		},
		{
			"bufferView":60,
			"componentType":5126,
			"count":4,
			"type":"VEC3"
		},
		{
			"bufferView":61,
			"componentType":5126,
			"count":4,
			"type":"VEC2"
		},
		{
			"bufferView":62,
			"componentType":5126,
			"count":4,
			"max":[
				1,
				0,
				1
			],
			"min":[
				-1,
				0,
				-1
			],
			"type":"VEC3"
		},
		{
			"bufferView":63,
			"componentType":5126,
			"count":4,
			"type":"VEC3"
		},
		{
			"bufferView":64,
			"componentType":5126,
			"count":4,
			"type":"VEC2"
		}
	],
	"bufferViews":[
		{
			"buffer":0,
			"byteLength":48,
			"byteOffset":0,
			"target":34962
		},
		{
			"buffer":0,
			"byteLength":48,
			"byteOffset":48,
			"target":34962
		},
		{
			"buffer":0,
			"byteLength":32,
			"byteOffset":96,
			"target":34962
		},
		{
			"buffer":0,
			"byteLength":12,
			"byteOffset":128,
			"target":34963
		},
		{
			"buffer":0,
			"byteLength":288,
			"byteOffset":140,
			"target":34962
		},
		{
			"buffer":0,
			"byteLength":288,
			"byteOffset":428,
			"target":34962
		},
		{
			"buffer":0,
			"byteLength":192,
			"byteOffset":716,
			"target":34962
		},
		{
			"buffer":0,
			"byteLength":72,
			"byteOffset":908,
			"target":34963
		},
		{
			"buffer":0,
			"byteLength":48,
			"byteOffset":980,
			"target":34962
		},
		{
			"buffer":0,
			"byteLength":48,
			"byteOffset":1028,
			"target":34962
		},
		{
			"buffer":0,
			"byteLength":32,
			"byteOffset":1076,
			"target":34962
		},
		{
			"buffer":0,
			"byteLength":12,
			"byteOffset":1108,
			"target":34963
		},
		{
			"buffer":0,
			"byteLength":2304,
			"byteOffset":1120,
			"target":34962
		},
		{
			"buffer":0,
			"byteLength":2304,
			"byteOffset":3424,
			"target":34962
		},
		{
			"buffer":0,
			"byteLength":1536,
			"byteOffset":5728,
			"target":34962
		},
		{
			"buffer":0,
			"byteLength":576,
			"byteOffset":7264,
			"target":34963
		},
		{
			"buffer":0,
			"byteLength":48,
			"byteOffset":7840,
			"target":34962
		},
		{
			"buffer":0,
			"byteLength":48,
			"byteOffset":7888,
			"target":34962
		},
		{
			"buffer":0,
			"byteLength":32,
			"byteOffset":7936,
			"target":34962
		},
		{
			"buffer":0,
			"byteLength":1152,
			"byteOffset":7968,
			"target":34962
		},
		{
			"buffer":0,
			"byteLength":1152,
			"byteOffset":9120,
			"target":34962
		},
		{
			"buffer":0,
			"byteLength":768,
			"byteOffset":10272,
			"target":34962
		},
		{
			"buffer":0,
			"byteLength":288,
			"byteOffset":11040,
			"target":34963
		},
		{
			"buffer":0,
			"byteLength":864,
			"byteOffset":11328,
			"target":34962
		},
		{
			"buffer":0,
			"byteLength":864,
			"byteOffset":12192,
			"target":34962
		},
		{
			"buffer":0,
			"byteLength":576,
			"byteOffset":13056,
			"target":34962
		},
		{
			"buffer":0,
			"byteLength":216,
			"byteOffset":13632,
			"target":34963
		},
		{
			"buffer":0,
			"byteLength":288,
			"byteOffset":13848,
			"target":34962
		},
		{
			"buffer":0,
			"byteLength":288,
			"byteOffset":14136,
			"target":34962
		},
		{
			"buffer":0,
			"byteLength":192,
			"byteOffset":14424,
			"target":34962
		},
		{
			"buffer":0,
			"byteLength":288,
			"byteOffset":14616,
			"target":34962
		},
		{
			"buffer":0,
			"byteLength":288,
			"byteOffset":14904,
			"target":34962
		},
		{
			"buffer":0,
			"byteLength":192,
			"byteOffset":15192,
			"target":34962
		},
		{
			"buffer":0,
			"byteLength":240,
			"byteOffset":15384,
			"target":34962
		},
		{
			"buffer":0,
			"byteLength":240,
			"byteOffset":15624,
			"target":34962
		},
		{
			"buffer":0,
			"byteLength":160,
			"byteOffset":15864,
			"target":34962
		},
		{
			"buffer":0,
			"byteLength":60,
			"byteOffset":16024,
			"target":34963
		},
		{
			"buffer":0,
			"byteLength":48,
			"byteOffset":16084,
			"target":34962
		},
		{
			"buffer":0,
			"byteLength":48,
			"byteOffset":16132,
			"target":34962
		},
		{
			"buffer":0,
			"byteLength":32,
			"byteOffset":16180,
			"target":34962
		},
		{
			"buffer":0,
			"byteLength":288,
			"byteOffset":16212,
			"target":34962
		},
		{
			"buffer":0,
			"byteLength":288,
			"byteOffset":16500,
			"target":34962
		},
		{
			"buffer":0,
			"byteLength":192,
			"byteOffset":16788,
			"target":34962
		},
		{
			"buffer":0,
			"byteLength":120,
			"byteOffset":16980,
			"target":34962
		},
		{
			"buffer":0,
			"byteLength":120,
			"byteOffset":17100,
			"target":34962
		},
		{
			"buffer":0,
			"byteLength":80,
			"byteOffset":17220,
			"target":34962
		},
		{
			"buffer":0,
			"byteLength":36,
			"byteOffset":17300,
			"target":34963
		},
		{
			"buffer":0,
			"byteLength":288,
			"byteOffset":17336,
			"target":34962
		},
		{
			"buffer":0,
			"byteLength":288,
			"byteOffset":17624,
			"target":34962
		},
		{
			"buffer":0,
			"byteLength":192,
			"byteOffset":17912,
			"target":34962
		},
		{
			"buffer":0,
			"byteLength":72,
			"byteOffset":18104,
			"target":34963
		},
		{
			"buffer":0,
			"byteLength":900,
			"byteOffset":18176,
			"target":34962
		},
		{
			"buffer":0,
			"byteLength":900,
			"byteOffset":19076,
			"target":34962
		},
		{
			"buffer":0,
			"byteLength":600,
			"byteOffset":19976,
			"target":34962
		},
		{
			"buffer":0,
			"byteLength":438,
			"byteOffset":20576,
			"target":34963
		},
		{
			"buffer":0,
			"byteLength":194604,
			"byteOffset":21016,
			"target":34962
		},
		{
			"buffer":0,
			"byteLength":194604,
			"byteOffset":215620,
			"target":34962
		},
		{
			"buffer":0,
			"byteLength":129736,
			"byteOffset":410224,
			"target":34962
		},
		{
			"buffer":0,
			"byteLength":117864,
			"byteOffset":539960,
			"target":34963
		},
		{
			"buffer":0,
			"byteLength":48,
			"byteOffset":657824,
			"target":34962
		},
		{
			"buffer":0,
			"byteLength":48,
			"byteOffset":657872,
			"target":34962
		},
		{
			"buffer":0,
			"byteLength":32,
			"byteOffset":657920,
			"target":34962
		},
		{
			"buffer":0,
			"byteLength":48,
			"byteOffset":657952,
			"target":34962
		},
		{
			"buffer":0,
			"byteLength":48,
			"byteOffset":658000,
			"target":34962
		},
		{
			"buffer":0,
			"byteLength":32,
			"byteOffset":658048,
			"target":34962
		}
	],
	"samplers":[
		{
			"magFilter":9729,
			"minFilter":9987,
			"wrapS":33071,
			"wrapT":33071
		},
		{
			"magFilter":9729,
			"minFilter":9987
		}
	],
	"buffers":[
		{
			"byteLength":658080,
			"uri":"kamako.bin"
		}
	]
}
