{
	"asset":{
		"generator":"Khronos glTF Blender I/O v5.2.40",
		"version":"2.0"
	},
	"scene":0,
	"scenes":[
		{
			"name":"Scene",
			"nodes":[
				0,
				1,
				2,
				3,
				4,
				5,
				6,
				7,
				8,
				9,
				10,
				11,
				12,
				13,
				14,
				15,
				16,
				17,
				18,
				19,
				20,
				21,
				22,
				23,
				24,
				25,
				26,
				27,
				28,
				29,
				30,
				31,
				32,
				33,
				34,
				35,
				36,
				37,
				38,
				39,
				40,
				41,
				42,
				43,
				44,
				45,
				46,
				47,
				48,
				49,
				50,
				51,
				52,
				53,
				54,
				55,
				56,
				57,
				58,
				59,
				60,
				61,
				62,
				63,
				64,
				65,
				66,
				67,
				68,
				69,
				70,
				71,
				72,
				73,
				74,
				75,
				76,
				77,
				78,
				79,
				80,
				81,
				82,
				83,
				84,
				85
			]
		}
	],
	"nodes":[
		{
			"mesh":0,
			"name":"Cone",
			"translation":[
				-26.57946014404297,
				9.263959884643555,
				10.46689224243164
			]
		},
		{
			"mesh":0,
			"name":"Cone.001",
			"scale":[
				0.8848695755004883,
				0.8848695755004883,
				0.8848695755004883
			],
			"translation":[
				-33.252525329589844,
				8.394575119018555,
				10.46689224243164
			]
		},
		{
			"mesh":0,
			"name":"Cone.002",
			"scale":[
				0.761300265789032,
				0.761300265789032,
				0.761300265789032
			],
			"translation":[
				-29.817190170288086,
				7.146829128265381,
				10.46689224243164
			]
		},
		{
			"mesh":0,
			"name":"Cone.003",
			"translation":[
				-10.991695404052734,
				-0.39342308044433594,
				-13.271133422851562
			]
		},
		{
			"mesh":0,
			"name":"Cone.004",
			"scale":[
				0.8848695755004883,
				0.8848695755004883,
				0.8848695755004883
			],
			"translation":[
				-15.648235321044922,
				2.2334351539611816,
				-6.227912902832031
			]
		},
		{
			"mesh":0,
			"name":"Cone.005",
			"scale":[
				0.761300265789032,
				0.761300265789032,
				0.761300265789032
			],
			"translation":[
				-12.212900161743164,
				0.9856891632080078,
				-10.26143741607666
			]
		},
		{
			"mesh":0,
			"name":"Cone.006",
			"scale":[
				0.761300265789032,
				0.761300265789032,
				0.761300265789032
			],
			"translation":[
				-16.725229263305664,
				0.9856891632080078,
				-10.26143741607666
			]
		},
		{
			"mesh":0,
			"name":"Cone.007",
			"translation":[
				-10.991695404052734,
				-3.558866024017334,
				31.075193405151367
			]
		},
		{
			"mesh":0,
			"name":"Cone.008",
			"scale":[
				0.8848695755004883,
				0.8848695755004883,
				0.8848695755004883
			],
			"translation":[
				-15.648235321044922,
				-0.9320077896118164,
				40.711158752441406
			]
		},
		{
			"mesh":0,
			"name":"Cone.009",
			"scale":[
				0.9319633841514587,
				0.9319633841514587,
				0.9319633841514587
			],
			"translation":[
				-12.212900161743164,
				-3.8760647773742676,
				46.062950134277344
			]
		},
		{
			"mesh":0,
			"name":"Cone.010",
			"scale":[
				0.761300265789032,
				0.761300265789032,
				0.761300265789032
			],
			"translation":[
				-16.725229263305664,
				-2.1797537803649902,
				36.677635192871094
			]
		},
		{
			"mesh":0,
			"name":"Cone.011",
			"scale":[
				0.8848695755004883,
				0.8848695755004883,
				0.8848695755004883
			],
			"translation":[
				-16.52508544921875,
				-0.9320077896118164,
				53.03690719604492
			]
		},
		{
			"mesh":0,
			"name":"Cone.012",
			"translation":[
				-27.891620635986328,
				9.644549369812012,
				57.78211212158203
			]
		},
		{
			"mesh":0,
			"name":"Cone.013",
			"scale":[
				0.5979378819465637,
				0.5979378819465637,
				0.5979378819465637
			],
			"translation":[
				-21.76348114013672,
				1.3762297630310059,
				53.03690719604492
			]
		},
		{
			"mesh":0,
			"name":"Cone.014",
			"scale":[
				0.8848695755004883,
				0.8848695755004883,
				0.8848695755004883
			],
			"translation":[
				-3.195004463195801,
				-13.353353500366211,
				40.711158752441406
			]
		},
		{
			"mesh":0,
			"name":"Cone.015",
			"scale":[
				0.9319633841514587,
				0.9319633841514587,
				0.9319633841514587
			],
			"translation":[
				0.24033069610595703,
				-16.29741096496582,
				36.677635192871094
			]
		},
		{
			"mesh":0,
			"name":"Cone.016",
			"scale":[
				0.761300265789032,
				0.761300265789032,
				0.761300265789032
			],
			"translation":[
				-4.271998405456543,
				-14.601099014282227,
				36.677635192871094
			]
		},
		{
			"mesh":0,
			"name":"Cone.017",
			"scale":[
				0.8848695755004883,
				0.8848695755004883,
				0.8848695755004883
			],
			"translation":[
				-4.071854591369629,
				-13.353353500366211,
				53.03690719604492
			]
		},
		{
			"mesh":0,
			"name":"Cone.018",
			"scale":[
				0.9319633841514587,
				0.9319633841514587,
				0.9319633841514587
			],
			"translation":[
				-10.522934913635254,
				-7.291680812835693,
				38.24117660522461
			]
		},
		{
			"mesh":0,
			"name":"Cone.019",
			"scale":[
				0.5979378819465637,
				0.5979378819465637,
				0.5979378819465637
			],
			"translation":[
				-9.310250282287598,
				-11.045116424560547,
				53.03690719604492
			]
		},
		{
			"mesh":0,
			"name":"Cone.020",
			"scale":[
				0.9319633841514587,
				0.9319633841514587,
				0.9319633841514587
			],
			"translation":[
				-10.522934913635254,
				-7.291680812835693,
				56.78437805175781
			]
		},
		{
			"mesh":0,
			"name":"Cone.021",
			"scale":[
				0.8848695755004883,
				0.8848695755004883,
				0.8848695755004883
			],
			"translation":[
				-19.895931243896484,
				1.847421646118164,
				54.147544860839844
			]
		},
		{
			"mesh":0,
			"name":"Cone.022",
			"translation":[
				-11.932028770446777,
				-0.39342308044433594,
				-1.4786767959594727
			]
		},
		{
			"mesh":0,
			"name":"Cone.023",
			"scale":[
				0.9319633841514587,
				0.9319633841514587,
				0.9319633841514587
			],
			"translation":[
				7.591939449310303,
				-22.22014045715332,
				36.677635192871094
			]
		},
		{
			"mesh":0,
			"name":"Cone.024",
			"scale":[
				0.8848695755004883,
				0.8848695755004883,
				0.8848695755004883
			],
			"translation":[
				3.279754161834717,
				-20.858654022216797,
				53.03690719604492
			]
		},
		{
			"mesh":0,
			"name":"Cone.025",
			"scale":[
				0.9319633841514587,
				0.9319633841514587,
				0.9319633841514587
			],
			"translation":[
				-3.171326160430908,
				-14.796981811523438,
				36.677635192871094
			]
		},
		{
			"mesh":0,
			"name":"Cone.026",
			"scale":[
				0.9319633841514587,
				0.9319633841514587,
				0.9319633841514587
			],
			"translation":[
				-3.171326160430908,
				-14.796981811523438,
				56.78437805175781
			]
		},
		{
			"mesh":0,
			"name":"Cone.027",
			"scale":[
				0.9319633841514587,
				0.9319633841514587,
				0.9319633841514587
			],
			"translation":[
				0.24033069610595703,
				-16.29741096496582,
				45.72611999511719
			]
		},
		{
			"mesh":0,
			"name":"Cone.028",
			"scale":[
				0.9319633841514587,
				0.9319633841514587,
				0.9319633841514587
			],
			"translation":[
				4.663969993591309,
				-22.22014045715332,
				55.132110595703125
			]
		},
		{
			"mesh":0,
			"name":"Cone.029",
			"scale":[
				0.825040876865387,
				0.825040876865387,
				0.825040876865387
			],
			"translation":[
				6.423335075378418,
				-24.214393615722656,
				48.58934020996094
			]
		},
		{
			"mesh":0,
			"name":"Cone.030",
			"translation":[
				8.116357803344727,
				-12.42027759552002,
				-37.9724006652832
			]
		},
		{
			"mesh":0,
			"name":"Cone.031",
			"scale":[
				0.8848695755004883,
				0.8848695755004883,
				0.8848695755004883
			],
			"translation":[
				3.459817886352539,
				-9.793418884277344,
				-30.929180145263672
			]
		},
		{
			"mesh":0,
			"name":"Cone.032",
			"translation":[
				7.176024436950684,
				-12.42027759552002,
				-26.179943084716797
			]
		},
		{
			"mesh":0,
			"name":"Cone.033",
			"translation":[
				-16.799415588378906,
				3.4611101150512695,
				4.976557731628418
			]
		},
		{
			"mesh":0,
			"name":"Cone.034",
			"scale":[
				1.2306462526321411,
				0.9843205809593201,
				1.2306462526321411
			],
			"translation":[
				15.38874340057373,
				-12.23647403717041,
				-30.929180145263672
			]
		},
		{
			"mesh":0,
			"name":"Cone.035",
			"translation":[
				-22.105485916137695,
				7.264858245849609,
				0.8013715744018555
			]
		},
		{
			"mesh":0,
			"name":"Cone.036",
			"translation":[
				-14.88075065612793,
				35.9310417175293,
				-20.263093948364258
			]
		},
		{
			"mesh":0,
			"name":"Cone.037",
			"scale":[
				0.8848695755004883,
				0.8848695755004883,
				0.8848695755004883
			],
			"translation":[
				-21.553815841674805,
				40.03365707397461,
				-20.263093948364258
			]
		},
		{
			"mesh":0,
			"name":"Cone.038",
			"scale":[
				0.761300265789032,
				0.761300265789032,
				0.761300265789032
			],
			"translation":[
				-18.118480682373047,
				35.28924560546875,
				-20.263093948364258
			]
		},
		{
			"mesh":0,
			"name":"Cone.039",
			"translation":[
				0.7070140838623047,
				34.67097091674805,
				-44.001121520996094
			]
		},
		{
			"mesh":0,
			"name":"Cone.040",
			"scale":[
				0.8848695755004883,
				0.8848695755004883,
				0.8848695755004883
			],
			"translation":[
				-3.949525833129883,
				33.87251663208008,
				-36.95790100097656
			]
		},
		{
			"mesh":0,
			"name":"Cone.041",
			"scale":[
				0.761300265789032,
				0.761300265789032,
				0.761300265789032
			],
			"translation":[
				-0.514190673828125,
				32.6247673034668,
				-40.991424560546875
			]
		},
		{
			"mesh":0,
			"name":"Cone.042",
			"scale":[
				0.761300265789032,
				0.761300265789032,
				0.761300265789032
			],
			"translation":[
				-5.026519775390625,
				32.6247673034668,
				-40.991424560546875
			]
		},
		{
			"mesh":0,
			"name":"Cone.043",
			"translation":[
				-6.15463924407959,
				34.09273147583008,
				-29.666397094726562
			]
		},
		{
			"mesh":0,
			"name":"Cone.044",
			"translation":[
				-11.022026062011719,
				35.100189208984375,
				-25.753427505493164
			]
		},
		{
			"mesh":0,
			"name":"Cone.045",
			"translation":[
				-10.406776428222656,
				38.90393829345703,
				-29.928613662719727
			]
		},
		{
			"mesh":0,
			"name":"Cone.046",
			"translation":[
				-11.022026062011719,
				32.900691986083984,
				-22.66569709777832
			]
		},
		{
			"mesh":0,
			"name":"Cone.047",
			"scale":[
				0.761300265789032,
				0.761300265789032,
				0.761300265789032
			],
			"translation":[
				-0.514190673828125,
				31.24244499206543,
				-36.08837890625
			]
		},
		{
			"mesh":0,
			"name":"Cone.048",
			"translation":[
				-14.88075065612793,
				35.9310417175293,
				-34.48262405395508
			]
		},
		{
			"mesh":0,
			"name":"Cone.049",
			"scale":[
				0.8848695755004883,
				0.8848695755004883,
				0.8848695755004883
			],
			"translation":[
				-21.553815841674805,
				40.03365707397461,
				-34.48262405395508
			]
		},
		{
			"mesh":0,
			"name":"Cone.050",
			"scale":[
				0.761300265789032,
				0.761300265789032,
				0.761300265789032
			],
			"translation":[
				-18.118480682373047,
				35.28924560546875,
				-34.48262405395508
			]
		},
		{
			"mesh":0,
			"name":"Cone.051",
			"translation":[
				-11.022026062011719,
				35.100189208984375,
				-39.972957611083984
			]
		},
		{
			"mesh":0,
			"name":"Cone.052",
			"translation":[
				-10.406776428222656,
				36.53318786621094,
				-44.14814376831055
			]
		},
		{
			"mesh":0,
			"name":"Cone.053",
			"translation":[
				-11.022026062011719,
				32.900691986083984,
				-36.88522720336914
			]
		},
		{
			"mesh":0,
			"name":"Cone.054",
			"scale":[
				0.6959665417671204,
				0.6959665417671204,
				0.6959665417671204
			],
			"translation":[
				-17.68372344970703,
				35.100189208984375,
				-25.753427505493164
			]
		},
		{
			"mesh":0,
			"name":"Cone.055",
			"scale":[
				0.5521195530891418,
				0.5521195530891418,
				0.5521195530891418
			],
			"translation":[
				-9.189619064331055,
				-11.045116424560547,
				45.75091552734375
			]
		},
		{
			"mesh":0,
			"name":"Cone.056",
			"scale":[
				0.8848695755004883,
				0.8848695755004883,
				0.8848695755004883
			],
			"translation":[
				-16.52508544921875,
				-0.9320077896118164,
				46.84931182861328
			]
		},
		{
			"mesh":0,
			"name":"Cone.057",
			"scale":[
				0.9319633841514587,
				0.9319633841514587,
				0.9319633841514587
			],
			"translation":[
				-22.976165771484375,
				5.129664897918701,
				57.787635803222656
			]
		},
		{
			"mesh":0,
			"name":"Cone.058",
			"scale":[
				0.8848695755004883,
				0.8848695755004883,
				0.8848695755004883
			],
			"translation":[
				-15.574082374572754,
				0.8729013204574585,
				9.93295669555664
			]
		},
		{
			"mesh":0,
			"name":"Cone.059",
			"translation":[
				22.176048278808594,
				37.900489807128906,
				-44.001121520996094
			]
		},
		{
			"mesh":0,
			"name":"Cone.060",
			"translation":[
				16.440032958984375,
				36.36537170410156,
				-42.664859771728516
			]
		},
		{
			"mesh":0,
			"name":"Cone.061",
			"translation":[
				11.062257766723633,
				34.95539474487305,
				-44.14814376831055
			]
		},
		{
			"mesh":0,
			"name":"Cone.062",
			"translation":[
				-33.1162223815918,
				9.590052604675293,
				37.036983489990234
			]
		},
		{
			"mesh":0,
			"name":"Cone.063",
			"translation":[
				-27.15513801574707,
				9.644549369812012,
				44.47847366333008
			]
		},
		{
			"mesh":0,
			"name":"Cone.068",
			"scale":[
				0.761300265789032,
				0.761300265789032,
				0.761300265789032
			],
			"translation":[
				-26.76350212097168,
				7.493350028991699,
				34.895179748535156
			]
		},
		{
			"mesh":0,
			"name":"Cone.069",
			"translation":[
				-28.65860939025879,
				9.644549369812012,
				51.41099548339844
			]
		},
		{
			"mesh":0,
			"name":"Cone.070",
			"translation":[
				-34.338287353515625,
				9.740421295166016,
				51.841739654541016
			]
		},
		{
			"mesh":0,
			"name":"Cone.071",
			"translation":[
				-32.143760681152344,
				9.621376037597656,
				47.66655349731445
			]
		},
		{
			"mesh":0,
			"name":"Cone.072",
			"translation":[
				-32.759010314941406,
				8.939013481140137,
				54.92947006225586
			]
		},
		{
			"mesh":0,
			"name":"Cone.074",
			"translation":[
				-34.37206268310547,
				9.606283187866211,
				43.112545013427734
			]
		},
		{
			"mesh":0,
			"name":"Cone.078",
			"translation":[
				-32.143760681152344,
				9.590052604675293,
				33.447021484375
			]
		},
		{
			"mesh":0,
			"name":"Cone.079",
			"translation":[
				-28.868732452392578,
				8.939013481140137,
				40.709938049316406
			]
		},
		{
			"mesh":1,
			"name":"Cube",
			"rotation":[
				0,
				-0.7071068286895752,
				0,
				0.7071068286895752
			],
			"translation":[
				0.0032606124877929688,
				-0.9696111679077148,
				28.749244689941406
			]
		},
		{
			"mesh":2,
			"name":"Cube.032",
			"rotation":[
				0,
				0.7071068286895752,
				0,
				0.7071068286895752
			],
			"scale":[
				-1,
				-1,
				-1
			],
			"translation":[
				0.02238178253173828,
				0.07100784778594971,
				2.3010034561157227
			]
		},
		{
			"mesh":3,
			"name":"Cube.195",
			"rotation":[
				0,
				-0.7071068286895752,
				0,
				0.7071068286895752
			],
			"translation":[
				0.0032606124877929688,
				-0.9696111679077148,
				22.490991592407227
			]
		},
		{
			"mesh":4,
			"name":"Plane",
			"rotation":[
				0.7071068286895752,
				0,
				0,
				0.7071068286895752
			],
			"scale":[
				0.20224197208881378,
				0.20224197208881378,
				0.20224197208881378
			],
			"translation":[
				-15.498104095458984,
				-0.20006521046161652,
				27.806316375732422
			]
		},
		{
			"mesh":4,
			"name":"Plane.001",
			"rotation":[
				0.7071068286895752,
				0,
				0,
				0.7071068286895752
			],
			"scale":[
				0.20224197208881378,
				0.20224197208881378,
				0.20224197208881378
			],
			"translation":[
				-25.966033935546875,
				-0.20006521046161652,
				27.806316375732422
			]
		},
		{
			"mesh":4,
			"name":"Plane.002",
			"rotation":[
				0.7071068286895752,
				0,
				0,
				0.7071068286895752
			],
			"scale":[
				0.20224197208881378,
				0.20224197208881378,
				0.20224197208881378
			],
			"translation":[
				5.463499069213867,
				-0.20006521046161652,
				27.806316375732422
			]
		},
		{
			"mesh":4,
			"name":"Plane.003",
			"rotation":[
				0.7071068286895752,
				0,
				0,
				0.7071068286895752
			],
			"scale":[
				0.20224197208881378,
				0.20224197208881378,
				0.20224197208881378
			],
			"translation":[
				-5.009579658508301,
				-0.20006521046161652,
				27.806316375732422
			]
		},
		{
			"mesh":5,
			"name":"Plane.004",
			"rotation":[
				0.7071068286895752,
				0,
				0,
				0.7071068286895752
			],
			"scale":[
				-35.03081130981445,
				-42.59158706665039,
				-42.59158706665039
			],
			"translation":[
				0,
				3.810047149658203,
				0
			]
		},
		{
			"mesh":4,
			"name":"Plane.005",
			"rotation":[
				0.7071068286895752,
				0,
				0,
				0.7071068286895752
			],
			"scale":[
				0.20224197208881378,
				0.20224197208881378,
				0.20224197208881378
			],
			"translation":[
				15.852156639099121,
				-0.20006521046161652,
				27.806316375732422
			]
		},
		{
			"mesh":6,
			"name":"Plane.006",
			"rotation":[
				0.7071068286895752,
				0,
				0,
				0.7071068286895752
			],
			"scale":[
				-35.03081130981445,
				-42.59158706665039,
				-42.59158706665039
			],
			"translation":[
				0,
				3.810047149658203,
				0
			]
		},
		{
			"mesh":7,
			"name":"Plane.007",
			"rotation":[
				0.7071068286895752,
				0,
				0,
				0.7071068286895752
			],
			"scale":[
				-35.03081130981445,
				-42.59158706665039,
				-42.59158706665039
			],
			"translation":[
				0,
				3.810047149658203,
				0
			]
		},
		{
			"mesh":8,
			"name":"Plane.008",
			"rotation":[
				0.7071068286895752,
				0,
				0,
				0.7071068286895752
			],
			"scale":[
				-35.03081130981445,
				-42.59158706665039,
				-42.59158706665039
			],
			"translation":[
				0,
				3.810047149658203,
				0
			]
		},
		{
			"mesh":9,
			"name":"Plane.009",
			"rotation":[
				0.7071068286895752,
				0,
				0,
				0.7071068286895752
			],
			"scale":[
				-35.03081130981445,
				-42.59158706665039,
				-42.59158706665039
			],
			"translation":[
				0,
				3.810047149658203,
				0
			]
		},
		{
			"mesh":10,
			"name":"Plane.010",
			"rotation":[
				0.7071068286895752,
				0,
				0,
				0.7071068286895752
			],
			"scale":[
				-35.03081130981445,
				-42.59158706665039,
				-42.59158706665039
			],
			"translation":[
				0,
				4.087210178375244,
				0
			]
		}
	],
	"materials":[
		{
			"doubleSided":true,
			"name":"Material.009",
			"pbrMetallicRoughness":{
				"baseColorFactor":[
					0.800039529800415,
					0.23935313522815704,
					0.12435321509838104,
					1
				],
				"metallicFactor":0,
				"roughnessFactor":0.5
			}
		},
		{
			"doubleSided":true,
			"name":"Material.002",
			"pbrMetallicRoughness":{
				"baseColorTexture":{
					"index":0
				},
				"metallicFactor":0
			}
		},
		{
			"doubleSided":true,
			"name":"snow",
			"pbrMetallicRoughness":{
				"baseColorFactor":[
					0.7623043656349182,
					0.72599196434021,
					0.7711269855499268,
					1
				],
				"metallicFactor":0,
				"roughnessFactor":0.5
			}
		},
		{
			"doubleSided":true,
			"name":"Material.005",
			"pbrMetallicRoughness":{
				"baseColorFactor":[
					0.8000074625015259,
					0.1955673098564148,
					0,
					1
				],
				"metallicFactor":0,
				"roughnessFactor":0.5
			}
		},
		{
			"doubleSided":true,
			"name":"Material.003",
			"pbrMetallicRoughness":{
				"baseColorTexture":{
					"index":1
				},
				"metallicFactor":0,
				"roughnessFactor":0.5
			}
		},
		{
			"doubleSided":true,
			"name":"Material.010",
			"pbrMetallicRoughness":{
				"baseColorTexture":{
					"index":2
				},
				"metallicFactor":0,
				"roughnessFactor":0.5
			}
		},
		{
			"doubleSided":true,
			"name":"Material.006",
			"pbrMetallicRoughness":{
				"baseColorFactor":[
					0,
					0,
					0,
					1
				],
				"metallicFactor":0
			}
		},
		{
			"doubleSided":true,
			"name":"Material.001",
			"pbrMetallicRoughness":{
				"baseColorFactor":[
					0.041433319449424744,
					0.020835064351558685,
					0.004697524476796389,
					1
				],
				"metallicFactor":0,
				"roughnessFactor":0.5
			}
		},
		{
			"doubleSided":true,
			"name":"Material.008",
			"pbrMetallicRoughness":{
				"baseColorFactor":[
					0.02156204730272293,
					0.19715696573257446,
					0.35366111993789673,
					1
				],
				"metallicFactor":0,
				"roughnessFactor":0.5
			}
		}
	],
	"meshes":[
		{
			"name":"Cone",
			"primitives":[
				{
					"attributes":{
						"POSITION":0,
						"NORMAL":1,
						"TEXCOORD_0":2
					},
					"indices":3,
					"material":0
				},
				{
					"attributes":{
						"POSITION":4,
						"NORMAL":5,
						"TEXCOORD_0":6
					},
					"indices":7,
					"material":1
				}
			]
		},
		{
			"name":"Cube.001",
			"primitives":[
				{
					"attributes":{
						"POSITION":8,
						"NORMAL":9,
						"TEXCOORD_0":10
					},
					"indices":11,
					"material":2
				}
			]
		},
		{
			"name":"Cube.006",
			"primitives":[
				{
					"attributes":{
						"POSITION":12,
						"NORMAL":13,
						"TEXCOORD_0":14
					},
					"indices":15,
					"material":2
				}
			]
		},
		{
			"name":"Cube.036",
			"primitives":[
				{
					"attributes":{
						"POSITION":16,
						"NORMAL":17,
						"TEXCOORD_0":18
					},
					"indices":11,
					"material":3
				}
			]
		},
		{
			"name":"Plane",
			"primitives":[
				{
					"attributes":{
						"POSITION":19,
						"NORMAL":20,
						"TEXCOORD_0":21
					},
					"indices":22,
					"material":4
				}
			]
		},
		{
			"name":"Plane.002",
			"primitives":[
				{
					"attributes":{
						"POSITION":23,
						"NORMAL":24,
						"TEXCOORD_0":25
					},
					"indices":26,
					"material":5
				}
			]
		},
		{
			"name":"Plane.001",
			"primitives":[
				{
					"attributes":{
						"POSITION":27,
						"NORMAL":28,
						"TEXCOORD_0":29
					},
					"indices":30,
					"material":6
				},
				{
					"attributes":{
						"POSITION":31,
						"NORMAL":32,
						"TEXCOORD_0":33
					},
					"indices":34,
					"material":5
				},
				{
					"attributes":{
						"POSITION":35,
						"NORMAL":36,
						"TEXCOORD_0":37
					},
					"indices":38,
					"material":7
				}
			]
		},
		{
			"name":"Plane.003",
			"primitives":[
				{
					"attributes":{
						"POSITION":39,
						"NORMAL":40,
						"TEXCOORD_0":41
					},
					"indices":42,
					"material":5
				}
			]
		},
		{
			"name":"Plane.004",
			"primitives":[
				{
					"attributes":{
						"POSITION":43,
						"NORMAL":44,
						"TEXCOORD_0":45
					},
					"indices":46,
					"material":5
				}
			]
		},
		{
			"name":"Plane.005",
			"primitives":[
				{
					"attributes":{
						"POSITION":47,
						"NORMAL":48,
						"TEXCOORD_0":49
					},
					"indices":50,
					"material":5
				}
			]
		},
		{
			"name":"Plane.006",
			"primitives":[
				{
					"attributes":{
						"POSITION":51,
						"NORMAL":52,
						"TEXCOORD_0":53
					},
					"indices":54,
					"material":8
				}
			]
		}
	],
	"textures":[
		{
			"sampler":0,
			"source":0
		},
		{
			"sampler":0,
			"source":1
		},
		{
			"sampler":0,
			"source":2
		}
	],
	"images":[
		{
			"mimeType":"image/jpeg",
			"name":"shinyouju",
			"uri":"shinyouju.jpg"
		},
		{
			"mimeType":"image/jpeg",
			"name":"\u77f3\u57a3N02",
			"uri":"%E7%9F%B3%E5%9E%A3N02.jpg"
		},
		{
			"mimeType":"image/jpeg",
			"name":"IMG_6715",
			"uri":"IMG_6715.jpg"
		}
	],
	"accessors":[
		{
			"bufferView":0,
			"componentType":5126,
			"count":24,
			"max":[
				0.25980761647224426,
				10,
				0.30000001192092896
			],
			"min":[
				-0.25980761647224426,
				-10,
				-0.30000001192092896
			],
			"type":"VEC3"
		},
		{
			"bufferView":1,
			"componentType":5126,
			"count":24,
			"type":"VEC3"
		},
		{
			"bufferView":2,
			"componentType":5126,
			"count":24,
			"type":"VEC2"
		},
		{
			"bufferView":3,
			"componentType":5123,
			"count":30,
			"type":"SCALAR"
		},
		{
			"bufferView":4,
			"componentType":5126,
			"count":468,
			"max":[
				3.005847930908203,
				8.984593391418457,
				3.0055971145629883
			],
			"min":[
				-3.05548095703125,
				-6.279468536376953,
				-2.9740591049194336
			],
			"type":"VEC3"
		},
		{
			"bufferView":5,
			"componentType":5126,
			"count":468,
			"type":"VEC3"
		},
		{
			"bufferView":6,
			"componentType":5126,
			"count":468,
			"type":"VEC2"
		},
		{
			"bufferView":7,
			"componentType":5123,
			"count":468,
			"type":"SCALAR"
		},
		{
			"bufferView":8,
			"componentType":5126,
			"count":4,
			"max":[
				5.265361309051514,
				1,
				26.004098892211914
			],
			"min":[
				-1,
				1,
				-25.93086051940918
			],
			"type":"VEC3"
		},
		{
			"bufferView":9,
			"componentType":5126,
			"count":4,
			"type":"VEC3"
		},
		{
			"bufferView":10,
			"componentType":5126,
			"count":4,
			"type":"VEC2"
		},
		{
			"bufferView":11,
			"componentType":5123,
			"count":6,
			"type":"SCALAR"
		},
		{
			"bufferView":12,
			"componentType":5126,
			"count":4,
			"max":[
				10.0222806930542,
				0,
				25.938419342041016
			],
			"min":[
				-8.170668601989746,
				0,
				-25.938419342041016
			],
			"type":"VEC3"
		},
		{
			"bufferView":13,
			"componentType":5126,
			"count":4,
			"type":"VEC3"
		},
		{
			"bufferView":14,
			"componentType":5126,
			"count":4,
			"type":"VEC2"
		},
		{
			"bufferView":15,
			"componentType":5123,
			"count":6,
			"type":"SCALAR"
		},
		{
			"bufferView":16,
			"componentType":5126,
			"count":4,
			"max":[
				5.265361309051514,
				1,
				26.004098892211914
			],
			"min":[
				-10.208855628967285,
				1,
				-25.93086051940918
			],
			"type":"VEC3"
		},
		{
			"bufferView":17,
			"componentType":5126,
			"count":4,
			"type":"VEC3"
		},
		{
			"bufferView":18,
			"componentType":5126,
			"count":4,
			"type":"VEC2"
		},
		{
			"bufferView":19,
			"componentType":5126,
			"count":138,
			"max":[
				50.88217544555664,
				0.00046148159890435636,
				153.3423614501953
			],
			"min":[
				-1,
				-76.33891296386719,
				-1.0033373832702637
			],
			"type":"VEC3"
		},
		{
			"bufferView":20,
			"componentType":5126,
			"count":138,
			"type":"VEC3"
		},
		{
			"bufferView":21,
			"componentType":5126,
			"count":138,
			"type":"VEC2"
		},
		{
			"bufferView":22,
			"componentType":5123,
			"count":264,
			"type":"SCALAR"
		},
		{
			"bufferView":23,
			"componentType":5126,
			"count":65,
			"max":[
				-0.44611966609954834,
				0.06628522276878357,
				0.6905059814453125
			],
			"min":[
				-1.0021145343780518,
				-1.3789446353912354,
				-0.8141571283340454
			],
			"type":"VEC3"
		},
		{
			"bufferView":24,
			"componentType":5126,
			"count":65,
			"type":"VEC3"
		},
		{
			"bufferView":25,
			"componentType":5126,
			"count":65,
			"type":"VEC2"
		},
		{
			"bufferView":26,
			"componentType":5123,
			"count":105,
			"type":"SCALAR"
		},
		{
			"bufferView":27,
			"componentType":5126,
			"count":119,
			"max":[
				1,
				1.1062791347503662,
				0.701232373714447
			],
			"min":[
				-1.0048885345458984,
				-1.3789446353912354,
				-1
			],
			"type":"VEC3"
		},
		{
			"bufferView":28,
			"componentType":5126,
			"count":119,
			"type":"VEC3"
		},
		{
			"bufferView":29,
			"componentType":5126,
			"count":119,
			"type":"VEC2"
		},
		{
			"bufferView":30,
			"componentType":5123,
			"count":219,
			"type":"SCALAR"
		},
		{
			"bufferView":31,
			"componentType":5126,
			"count":8,
			"max":[
				1,
				-0.09835729748010635,
				0.701232373714447
			],
			"min":[
				0.7338210344314575,
				-0.1989566683769226,
				-0.09053200483322144
			],
			"type":"VEC3"
		},
		{
			"bufferView":32,
			"componentType":5126,
			"count":8,
			"type":"VEC3"
		},
		{
			"bufferView":33,
			"componentType":5126,
			"count":8,
			"type":"VEC2"
		},
		{
			"bufferView":34,
			"componentType":5123,
			"count":12,
			"type":"SCALAR"
		},
		{
			"bufferView":35,
			"componentType":5126,
			"count":8,
			"max":[
				1,
				-0.1989566683769226,
				-0.08632141351699829
			],
			"min":[
				0.7338210344314575,
				-1.3789446353912354,
				-0.09053200483322144
			],
			"type":"VEC3"
		},
		{
			"bufferView":36,
			"componentType":5126,
			"count":8,
			"type":"VEC3"
		},
		{
			"bufferView":37,
			"componentType":5126,
			"count":8,
			"type":"VEC2"
		},
		{
			"bufferView":38,
			"componentType":5123,
			"count":12,
			"type":"SCALAR"
		},
		{
			"bufferView":39,
			"componentType":5126,
			"count":177,
			"max":[
				0.8144420981407166,
				1.1062791347503662,
				0.7046949863433838
			],
			"min":[
				-0.9944968223571777,
				-0.1989566683769226,
				-0.5744479298591614
			],
			"type":"VEC3"
		},
		{
			"bufferView":40,
			"componentType":5126,
			"count":177,
			"type":"VEC3"
		},
		{
			"bufferView":41,
			"componentType":5126,
			"count":177,
			"type":"VEC2"
		},
		{
			"bufferView":42,
			"componentType":5123,
			"count":231,
			"type":"SCALAR"
		},
		{
			"bufferView":43,
			"componentType":5126,
			"count":53,
			"max":[
				0.7803479433059692,
				0.9844377040863037,
				-0.08632141351699829
			],
			"min":[
				-0.2390149086713791,
				-1.3789446353912354,
				-0.9193376302719116
			],
			"type":"VEC3"
		},
		{
			"bufferView":44,
			"componentType":5126,
			"count":53,
			"type":"VEC3"
		},
		{
			"bufferView":45,
			"componentType":5126,
			"count":53,
			"type":"VEC2"
		},
		{
			"bufferView":46,
			"componentType":5123,
			"count":69,
			"type":"SCALAR"
		},
		{
			"bufferView":47,
			"componentType":5126,
			"count":20,
			"max":[
				-0.1549912393093109,
				0.9844377040863037,
				-0.5744479298591614
			],
			"min":[
				-1.0005332231521606,
				-1.3789446353912354,
				-0.9193376302719116
			],
			"type":"VEC3"
		},
		{
			"bufferView":48,
			"componentType":5126,
			"count":20,
			"type":"VEC3"
		},
		{
			"bufferView":49,
			"componentType":5126,
			"count":20,
			"type":"VEC2"
		},
		{
			"bufferView":50,
			"componentType":5123,
			"count":30,
			"type":"SCALAR"
		},
		{
			"bufferView":51,
			"componentType":5126,
			"count":29,
			"max":[
				-0.167246013879776,
				0.2945763170719147,
				-0.6113743185997009
			],
			"min":[
				-1.0005332231521606,
				-1.3789446353912354,
				-0.9004316329956055
			],
			"type":"VEC3"
		},
		{
			"bufferView":52,
			"componentType":5126,
			"count":29,
			"type":"VEC3"
		},
		{
			"bufferView":53,
			"componentType":5126,
			"count":29,
			"type":"VEC2"
		},
		{
			"bufferView":54,
			"componentType":5123,
			"count":45,
			"type":"SCALAR"
		}
	],
	"bufferViews":[
		{
			"buffer":0,
			"byteLength":288,
			"byteOffset":0,
			"target":34962
		},
		{
			"buffer":0,
			"byteLength":288,
			"byteOffset":288,
			"target":34962
		},
		{
			"buffer":0,
			"byteLength":192,
			"byteOffset":576,
			"target":34962
		},
		{
			"buffer":0,
			"byteLength":60,
			"byteOffset":768,
			"target":34963
		},
		{
			"buffer":0,
			"byteLength":5616,
			"byteOffset":828,
			"target":34962
		},
		{
			"buffer":0,
			"byteLength":5616,
			"byteOffset":6444,
			"target":34962
		},
		{
			"buffer":0,
			"byteLength":3744,
			"byteOffset":12060,
			"target":34962
		},
		{
			"buffer":0,
			"byteLength":936,
			"byteOffset":15804,
			"target":34963
		},
		{
			"buffer":0,
			"byteLength":48,
			"byteOffset":16740,
			"target":34962
		},
		{
			"buffer":0,
			"byteLength":48,
			"byteOffset":16788,
			"target":34962
		},
		{
			"buffer":0,
			"byteLength":32,
			"byteOffset":16836,
			"target":34962
		},
		{
			"buffer":0,
			"byteLength":12,
			"byteOffset":16868,
			"target":34963
		},
		{
			"buffer":0,
			"byteLength":48,
			"byteOffset":16880,
			"target":34962
		},
		{
			"buffer":0,
			"byteLength":48,
			"byteOffset":16928,
			"target":34962
		},
		{
			"buffer":0,
			"byteLength":32,
			"byteOffset":16976,
			"target":34962
		},
		{
			"buffer":0,
			"byteLength":12,
			"byteOffset":17008,
			"target":34963
		},
		{
			"buffer":0,
			"byteLength":48,
			"byteOffset":17020,
			"target":34962
		},
		{
			"buffer":0,
			"byteLength":48,
			"byteOffset":17068,
			"target":34962
		},
		{
			"buffer":0,
			"byteLength":32,
			"byteOffset":17116,
			"target":34962
		},
		{
			"buffer":0,
			"byteLength":1656,
			"byteOffset":17148,
			"target":34962
		},
		{
			"buffer":0,
			"byteLength":1656,
			"byteOffset":18804,
			"target":34962
		},
		{
			"buffer":0,
			"byteLength":1104,
			"byteOffset":20460,
			"target":34962
		},
		{
			"buffer":0,
			"byteLength":528,
			"byteOffset":21564,
			"target":34963
		},
		{
			"buffer":0,
			"byteLength":780,
			"byteOffset":22092,
			"target":34962
		},
		{
			"buffer":0,
			"byteLength":780,
			"byteOffset":22872,
			"target":34962
		},
		{
			"buffer":0,
			"byteLength":520,
			"byteOffset":23652,
			"target":34962
		},
		{
			"buffer":0,
			"byteLength":210,
			"byteOffset":24172,
			"target":34963
		},
		{
			"buffer":0,
			"byteLength":1428,
			"byteOffset":24384,
			"target":34962
		},
		{
			"buffer":0,
			"byteLength":1428,
			"byteOffset":25812,
			"target":34962
		},
		{
			"buffer":0,
			"byteLength":952,
			"byteOffset":27240,
			"target":34962
		},
		{
			"buffer":0,
			"byteLength":438,
			"byteOffset":28192,
			"target":34963
		},
		{
			"buffer":0,
			"byteLength":96,
			"byteOffset":28632,
			"target":34962
		},
		{
			"buffer":0,
			"byteLength":96,
			"byteOffset":28728,
			"target":34962
		},
		{
			"buffer":0,
			"byteLength":64,
			"byteOffset":28824,
			"target":34962
		},
		{
			"buffer":0,
			"byteLength":24,
			"byteOffset":28888,
			"target":34963
		},
		{
			"buffer":0,
			"byteLength":96,
			"byteOffset":28912,
			"target":34962
		},
		{
			"buffer":0,
			"byteLength":96,
			"byteOffset":29008,
			"target":34962
		},
		{
			"buffer":0,
			"byteLength":64,
			"byteOffset":29104,
			"target":34962
		},
		{
			"buffer":0,
			"byteLength":24,
			"byteOffset":29168,
			"target":34963
		},
		{
			"buffer":0,
			"byteLength":2124,
			"byteOffset":29192,
			"target":34962
		},
		{
			"buffer":0,
			"byteLength":2124,
			"byteOffset":31316,
			"target":34962
		},
		{
			"buffer":0,
			"byteLength":1416,
			"byteOffset":33440,
			"target":34962
		},
		{
			"buffer":0,
			"byteLength":462,
			"byteOffset":34856,
			"target":34963
		},
		{
			"buffer":0,
			"byteLength":636,
			"byteOffset":35320,
			"target":34962
		},
		{
			"buffer":0,
			"byteLength":636,
			"byteOffset":35956,
			"target":34962
		},
		{
			"buffer":0,
			"byteLength":424,
			"byteOffset":36592,
			"target":34962
		},
		{
			"buffer":0,
			"byteLength":138,
			"byteOffset":37016,
			"target":34963
		},
		{
			"buffer":0,
			"byteLength":240,
			"byteOffset":37156,
			"target":34962
		},
		{
			"buffer":0,
			"byteLength":240,
			"byteOffset":37396,
			"target":34962
		},
		{
			"buffer":0,
			"byteLength":160,
			"byteOffset":37636,
			"target":34962
		},
		{
			"buffer":0,
			"byteLength":60,
			"byteOffset":37796,
			"target":34963
		},
		{
			"buffer":0,
			"byteLength":348,
			"byteOffset":37856,
			"target":34962
		},
		{
			"buffer":0,
			"byteLength":348,
			"byteOffset":38204,
			"target":34962
		},
		{
			"buffer":0,
			"byteLength":232,
			"byteOffset":38552,
			"target":34962
		},
		{
			"buffer":0,
			"byteLength":90,
			"byteOffset":38784,
			"target":34963
		}
	],
	"samplers":[
		{
			"magFilter":9729,
			"minFilter":9987
		}
	],
	"buffers":[
		{
			"byteLength":38876,
			"uri":"swiss.bin"
		}
	]
}
