{
	"asset":{
		"generator":"Khronos glTF Blender I/O v5.2.40",
		"version":"2.0"
	},
	"scene":0,
	"scenes":[
		{
			"name":"Scene",
			"nodes":[
				0,
				1,
				2,
				3,
				4,
				5,
				6,
				7,
				8,
				9,
				10,
				11,
				12,
				13,
				14,
				15,
				16,
				17,
				18,
				19,
				20,
				21,
				22,
				23,
				24,
				25,
				26,
				27,
				28,
				29,
				30,
				31,
				32,
				33,
				34,
				35,
				36,
				37,
				38,
				39,
				40,
				41,
				42,
				43,
				44,
				45,
				46,
				47,
				48,
				49,
				50,
				51,
				52,
				53,
				54,
				55,
				56,
				57,
				58,
				59,
				60,
				61,
				62,
				63,
				64,
				65,
				66,
				67,
				68,
				69,
				70,
				71,
				72,
				73,
				74,
				75,
				76,
				77,
				78,
				79,
				80,
				81,
				82,
				83,
				84,
				85,
				86,
				87,
				88,
				89,
				90,
				91,
				92,
				93,
				94,
				95,
				96
			]
		}
	],
	"nodes":[
		{
			"mesh":0,
			"name":"36293d2e-52da-46e8-a376-773d77a16e18",
			"rotation":[
				0.29883629083633423,
				0.6408563256263733,
				-0.2988363206386566,
				0.6408563852310181
			],
			"scale":[
				3.0573229789733887,
				3.0573227405548096,
				3.0573227405548096
			],
			"translation":[
				28.64581871032715,
				-1.175251841545105,
				24.345922470092773
			]
		},
		{
			"mesh":0,
			"name":"36293d2e-52da-46e8-a376-773d77a16e18.001",
			"rotation":[
				0.29883629083633423,
				0.6408563256263733,
				-0.2988363206386566,
				0.6408563852310181
			],
			"scale":[
				3.0573229789733887,
				3.0573227405548096,
				3.0573227405548096
			],
			"translation":[
				28.64581871032715,
				-1.175251841545105,
				21.291767120361328
			]
		},
		{
			"mesh":0,
			"name":"36293d2e-52da-46e8-a376-773d77a16e18.002",
			"rotation":[
				0.29883629083633423,
				0.6408563256263733,
				-0.2988363206386566,
				0.6408563852310181
			],
			"scale":[
				3.0573229789733887,
				3.0573227405548096,
				3.0573227405548096
			],
			"translation":[
				28.64581871032715,
				-1.175251841545105,
				18.246007919311523
			]
		},
		{
			"mesh":0,
			"name":"36293d2e-52da-46e8-a376-773d77a16e18.003",
			"rotation":[
				0.29883629083633423,
				0.6408563256263733,
				-0.2988363206386566,
				0.6408563852310181
			],
			"scale":[
				3.0573229789733887,
				3.0573227405548096,
				3.0573227405548096
			],
			"translation":[
				28.64581871032715,
				-1.175251841545105,
				15.191853523254395
			]
		},
		{
			"mesh":0,
			"name":"36293d2e-52da-46e8-a376-773d77a16e18.004",
			"rotation":[
				0.29883629083633423,
				0.6408563256263733,
				-0.2988363206386566,
				0.6408563852310181
			],
			"scale":[
				3.0573229789733887,
				3.0573227405548096,
				3.0573227405548096
			],
			"translation":[
				28.64581871032715,
				-1.175251841545105,
				12.134100914001465
			]
		},
		{
			"mesh":0,
			"name":"36293d2e-52da-46e8-a376-773d77a16e18.012",
			"rotation":[
				0.29883629083633423,
				0.6408563256263733,
				-0.2988363206386566,
				0.6408563852310181
			],
			"scale":[
				3.0573229789733887,
				3.0573227405548096,
				3.0573227405548096
			],
			"translation":[
				28.64581871032715,
				-1.175251841545105,
				-12.277324676513672
			]
		},
		{
			"mesh":0,
			"name":"36293d2e-52da-46e8-a376-773d77a16e18.013",
			"rotation":[
				0.29883629083633423,
				0.6408563256263733,
				-0.2988363206386566,
				0.6408563852310181
			],
			"scale":[
				3.0573229789733887,
				3.0573227405548096,
				3.0573227405548096
			],
			"translation":[
				28.64581871032715,
				-1.175251841545105,
				-15.331480026245117
			]
		},
		{
			"mesh":0,
			"name":"36293d2e-52da-46e8-a376-773d77a16e18.014",
			"rotation":[
				0.29883629083633423,
				0.6408563256263733,
				-0.2988363206386566,
				0.6408563852310181
			],
			"scale":[
				3.0573229789733887,
				3.0573227405548096,
				3.0573227405548096
			],
			"translation":[
				28.64581871032715,
				-1.175251841545105,
				-18.377239227294922
			]
		},
		{
			"mesh":0,
			"name":"36293d2e-52da-46e8-a376-773d77a16e18.015",
			"rotation":[
				0.29883629083633423,
				0.6408563256263733,
				-0.2988363206386566,
				0.6408563852310181
			],
			"scale":[
				3.0573229789733887,
				3.0573227405548096,
				3.0573227405548096
			],
			"translation":[
				28.64581871032715,
				-1.175251841545105,
				-21.431394577026367
			]
		},
		{
			"mesh":0,
			"name":"36293d2e-52da-46e8-a376-773d77a16e18.016",
			"rotation":[
				0.29883629083633423,
				0.6408563256263733,
				-0.2988363206386566,
				0.6408563852310181
			],
			"scale":[
				3.0573229789733887,
				3.0573227405548096,
				3.0573227405548096
			],
			"translation":[
				28.64581871032715,
				-1.175251841545105,
				-24.465728759765625
			]
		},
		{
			"mesh":0,
			"name":"36293d2e-52da-46e8-a376-773d77a16e18.017",
			"rotation":[
				0.29883629083633423,
				0.6408563256263733,
				-0.2988363206386566,
				0.6408563852310181
			],
			"scale":[
				3.0573229789733887,
				3.0573227405548096,
				3.0573227405548096
			],
			"translation":[
				30.573993682861328,
				-3.4377574920654297,
				24.345922470092773
			]
		},
		{
			"mesh":0,
			"name":"36293d2e-52da-46e8-a376-773d77a16e18.018",
			"rotation":[
				0.29883629083633423,
				0.6408563256263733,
				-0.2988363206386566,
				0.6408563852310181
			],
			"scale":[
				3.0573229789733887,
				3.0573227405548096,
				3.0573227405548096
			],
			"translation":[
				30.573993682861328,
				-3.4377574920654297,
				21.291767120361328
			]
		},
		{
			"mesh":0,
			"name":"36293d2e-52da-46e8-a376-773d77a16e18.019",
			"rotation":[
				0.29883629083633423,
				0.6408563256263733,
				-0.2988363206386566,
				0.6408563852310181
			],
			"scale":[
				3.0573229789733887,
				3.0573227405548096,
				3.0573227405548096
			],
			"translation":[
				30.573993682861328,
				-3.4377574920654297,
				18.246007919311523
			]
		},
		{
			"mesh":0,
			"name":"36293d2e-52da-46e8-a376-773d77a16e18.020",
			"rotation":[
				0.29883629083633423,
				0.6408563256263733,
				-0.2988363206386566,
				0.6408563852310181
			],
			"scale":[
				3.0573229789733887,
				3.0573227405548096,
				3.0573227405548096
			],
			"translation":[
				30.573993682861328,
				-3.4377574920654297,
				15.191853523254395
			]
		},
		{
			"mesh":0,
			"name":"36293d2e-52da-46e8-a376-773d77a16e18.021",
			"rotation":[
				0.29883629083633423,
				0.6408563256263733,
				-0.2988363206386566,
				0.6408563852310181
			],
			"scale":[
				3.0573229789733887,
				3.0573227405548096,
				3.0573227405548096
			],
			"translation":[
				30.573993682861328,
				-3.4377574920654297,
				12.134100914001465
			]
		},
		{
			"mesh":0,
			"name":"36293d2e-52da-46e8-a376-773d77a16e18.029",
			"rotation":[
				0.29883629083633423,
				0.6408563256263733,
				-0.2988363206386566,
				0.6408563852310181
			],
			"scale":[
				3.0573229789733887,
				3.0573227405548096,
				3.0573227405548096
			],
			"translation":[
				30.573993682861328,
				-3.4377574920654297,
				-12.277324676513672
			]
		},
		{
			"mesh":0,
			"name":"36293d2e-52da-46e8-a376-773d77a16e18.030",
			"rotation":[
				0.29883629083633423,
				0.6408563256263733,
				-0.2988363206386566,
				0.6408563852310181
			],
			"scale":[
				3.0573229789733887,
				3.0573227405548096,
				3.0573227405548096
			],
			"translation":[
				30.573993682861328,
				-3.4377574920654297,
				-15.331480026245117
			]
		},
		{
			"mesh":0,
			"name":"36293d2e-52da-46e8-a376-773d77a16e18.031",
			"rotation":[
				0.29883629083633423,
				0.6408563256263733,
				-0.2988363206386566,
				0.6408563852310181
			],
			"scale":[
				3.0573229789733887,
				3.0573227405548096,
				3.0573227405548096
			],
			"translation":[
				30.573993682861328,
				-3.4377574920654297,
				-18.377239227294922
			]
		},
		{
			"mesh":0,
			"name":"36293d2e-52da-46e8-a376-773d77a16e18.032",
			"rotation":[
				0.29883629083633423,
				0.6408563256263733,
				-0.2988363206386566,
				0.6408563852310181
			],
			"scale":[
				3.0573229789733887,
				3.0573227405548096,
				3.0573227405548096
			],
			"translation":[
				30.573993682861328,
				-3.4377574920654297,
				-21.431394577026367
			]
		},
		{
			"mesh":0,
			"name":"36293d2e-52da-46e8-a376-773d77a16e18.033",
			"rotation":[
				0.29883629083633423,
				0.6408563256263733,
				-0.2988363206386566,
				0.6408563852310181
			],
			"scale":[
				3.0573229789733887,
				3.0573227405548096,
				3.0573227405548096
			],
			"translation":[
				30.573993682861328,
				-3.4377574920654297,
				-24.465728759765625
			]
		},
		{
			"mesh":0,
			"name":"36293d2e-52da-46e8-a376-773d77a16e18.034",
			"rotation":[
				0.29883629083633423,
				0.6408563256263733,
				-0.2988363206386566,
				0.6408563852310181
			],
			"scale":[
				3.0573229789733887,
				3.0573227405548096,
				3.0573227405548096
			],
			"translation":[
				32.518035888671875,
				-5.7342047691345215,
				24.345922470092773
			]
		},
		{
			"mesh":0,
			"name":"36293d2e-52da-46e8-a376-773d77a16e18.035",
			"rotation":[
				0.29883629083633423,
				0.6408563256263733,
				-0.2988363206386566,
				0.6408563852310181
			],
			"scale":[
				3.0573229789733887,
				3.0573227405548096,
				3.0573227405548096
			],
			"translation":[
				32.518035888671875,
				-5.7342047691345215,
				21.291767120361328
			]
		},
		{
			"mesh":0,
			"name":"36293d2e-52da-46e8-a376-773d77a16e18.036",
			"rotation":[
				0.29883629083633423,
				0.6408563256263733,
				-0.2988363206386566,
				0.6408563852310181
			],
			"scale":[
				3.0573229789733887,
				3.0573227405548096,
				3.0573227405548096
			],
			"translation":[
				32.518035888671875,
				-5.7342047691345215,
				18.246007919311523
			]
		},
		{
			"mesh":0,
			"name":"36293d2e-52da-46e8-a376-773d77a16e18.037",
			"rotation":[
				0.29883629083633423,
				0.6408563256263733,
				-0.2988363206386566,
				0.6408563852310181
			],
			"scale":[
				3.0573229789733887,
				3.0573227405548096,
				3.0573227405548096
			],
			"translation":[
				32.518035888671875,
				-5.7342047691345215,
				15.191853523254395
			]
		},
		{
			"mesh":0,
			"name":"36293d2e-52da-46e8-a376-773d77a16e18.038",
			"rotation":[
				0.29883629083633423,
				0.6408563256263733,
				-0.2988363206386566,
				0.6408563852310181
			],
			"scale":[
				3.0573229789733887,
				3.0573227405548096,
				3.0573227405548096
			],
			"translation":[
				32.518035888671875,
				-5.7342047691345215,
				12.134100914001465
			]
		},
		{
			"mesh":0,
			"name":"36293d2e-52da-46e8-a376-773d77a16e18.046",
			"rotation":[
				0.29883629083633423,
				0.6408563256263733,
				-0.2988363206386566,
				0.6408563852310181
			],
			"scale":[
				3.0573229789733887,
				3.0573227405548096,
				3.0573227405548096
			],
			"translation":[
				32.518035888671875,
				-5.7342047691345215,
				-12.277324676513672
			]
		},
		{
			"mesh":0,
			"name":"36293d2e-52da-46e8-a376-773d77a16e18.047",
			"rotation":[
				0.29883629083633423,
				0.6408563256263733,
				-0.2988363206386566,
				0.6408563852310181
			],
			"scale":[
				3.0573229789733887,
				3.0573227405548096,
				3.0573227405548096
			],
			"translation":[
				32.518035888671875,
				-5.7342047691345215,
				-15.331480026245117
			]
		},
		{
			"mesh":0,
			"name":"36293d2e-52da-46e8-a376-773d77a16e18.048",
			"rotation":[
				0.29883629083633423,
				0.6408563256263733,
				-0.2988363206386566,
				0.6408563852310181
			],
			"scale":[
				3.0573229789733887,
				3.0573227405548096,
				3.0573227405548096
			],
			"translation":[
				32.518035888671875,
				-5.7342047691345215,
				-18.377239227294922
			]
		},
		{
			"mesh":0,
			"name":"36293d2e-52da-46e8-a376-773d77a16e18.049",
			"rotation":[
				0.29883629083633423,
				0.6408563256263733,
				-0.2988363206386566,
				0.6408563852310181
			],
			"scale":[
				3.0573229789733887,
				3.0573227405548096,
				3.0573227405548096
			],
			"translation":[
				32.518035888671875,
				-5.7342047691345215,
				-21.431394577026367
			]
		},
		{
			"mesh":0,
			"name":"36293d2e-52da-46e8-a376-773d77a16e18.050",
			"rotation":[
				0.29883629083633423,
				0.6408563256263733,
				-0.2988363206386566,
				0.6408563852310181
			],
			"scale":[
				3.0573229789733887,
				3.0573227405548096,
				3.0573227405548096
			],
			"translation":[
				32.518035888671875,
				-5.7342047691345215,
				-24.465728759765625
			]
		},
		{
			"mesh":0,
			"name":"36293d2e-52da-46e8-a376-773d77a16e18.051",
			"rotation":[
				0.29883629083633423,
				-0.6408563256263733,
				0.29883626103401184,
				0.6408563852310181
			],
			"scale":[
				3.0573229789733887,
				3.0573227405548096,
				3.0573227405548096
			],
			"translation":[
				11.380831718444824,
				-1.1752517223358154,
				-24.48575782775879
			]
		},
		{
			"mesh":0,
			"name":"36293d2e-52da-46e8-a376-773d77a16e18.052",
			"rotation":[
				0.29883629083633423,
				-0.6408563256263733,
				0.29883626103401184,
				0.6408563852310181
			],
			"scale":[
				3.0573229789733887,
				3.0573227405548096,
				3.0573227405548096
			],
			"translation":[
				11.38083553314209,
				-1.1752517223358154,
				-21.431602478027344
			]
		},
		{
			"mesh":0,
			"name":"36293d2e-52da-46e8-a376-773d77a16e18.053",
			"rotation":[
				0.29883629083633423,
				-0.6408563256263733,
				0.29883626103401184,
				0.6408563852310181
			],
			"scale":[
				3.0573229789733887,
				3.0573227405548096,
				3.0573227405548096
			],
			"translation":[
				11.38083553314209,
				-1.1752517223358154,
				-18.38584327697754
			]
		},
		{
			"mesh":0,
			"name":"36293d2e-52da-46e8-a376-773d77a16e18.054",
			"rotation":[
				0.29883629083633423,
				-0.6408563256263733,
				0.29883626103401184,
				0.6408563852310181
			],
			"scale":[
				3.0573229789733887,
				3.0573227405548096,
				3.0573227405548096
			],
			"translation":[
				11.38083553314209,
				-1.1752517223358154,
				-15.33168888092041
			]
		},
		{
			"mesh":0,
			"name":"36293d2e-52da-46e8-a376-773d77a16e18.055",
			"rotation":[
				0.29883629083633423,
				-0.6408563256263733,
				0.29883626103401184,
				0.6408563852310181
			],
			"scale":[
				3.0573229789733887,
				3.0573227405548096,
				3.0573227405548096
			],
			"translation":[
				11.38083553314209,
				-1.1752517223358154,
				-12.27393627166748
			]
		},
		{
			"mesh":0,
			"name":"36293d2e-52da-46e8-a376-773d77a16e18.063",
			"rotation":[
				0.29883629083633423,
				-0.6408563256263733,
				0.29883626103401184,
				0.6408563852310181
			],
			"scale":[
				3.0573229789733887,
				3.0573227405548096,
				3.0573227405548096
			],
			"translation":[
				11.38083553314209,
				-1.1752517223358154,
				12.137489318847656
			]
		},
		{
			"mesh":0,
			"name":"36293d2e-52da-46e8-a376-773d77a16e18.064",
			"rotation":[
				0.29883629083633423,
				-0.6408563256263733,
				0.29883626103401184,
				0.6408563852310181
			],
			"scale":[
				3.0573229789733887,
				3.0573227405548096,
				3.0573227405548096
			],
			"translation":[
				11.38083553314209,
				-1.1752517223358154,
				15.191644668579102
			]
		},
		{
			"mesh":0,
			"name":"36293d2e-52da-46e8-a376-773d77a16e18.065",
			"rotation":[
				0.29883629083633423,
				-0.6408563256263733,
				0.29883626103401184,
				0.6408563852310181
			],
			"scale":[
				3.0573229789733887,
				3.0573227405548096,
				3.0573227405548096
			],
			"translation":[
				11.38083553314209,
				-1.1752517223358154,
				18.237403869628906
			]
		},
		{
			"mesh":0,
			"name":"36293d2e-52da-46e8-a376-773d77a16e18.066",
			"rotation":[
				0.29883629083633423,
				-0.6408563256263733,
				0.29883626103401184,
				0.6408563852310181
			],
			"scale":[
				3.0573229789733887,
				3.0573227405548096,
				3.0573227405548096
			],
			"translation":[
				11.38083553314209,
				-1.1752517223358154,
				21.29155921936035
			]
		},
		{
			"mesh":0,
			"name":"36293d2e-52da-46e8-a376-773d77a16e18.067",
			"rotation":[
				0.29883629083633423,
				-0.6408563256263733,
				0.29883626103401184,
				0.6408563852310181
			],
			"scale":[
				3.0573229789733887,
				3.0573227405548096,
				3.0573227405548096
			],
			"translation":[
				11.380839347839355,
				-1.1752517223358154,
				24.32589340209961
			]
		},
		{
			"mesh":0,
			"name":"36293d2e-52da-46e8-a376-773d77a16e18.068",
			"rotation":[
				0.29883629083633423,
				-0.6408563256263733,
				0.29883626103401184,
				0.6408563852310181
			],
			"scale":[
				3.0573229789733887,
				3.0573227405548096,
				3.0573227405548096
			],
			"translation":[
				9.452654838562012,
				-3.4377574920654297,
				-24.48575782775879
			]
		},
		{
			"mesh":0,
			"name":"36293d2e-52da-46e8-a376-773d77a16e18.069",
			"rotation":[
				0.29883629083633423,
				-0.6408563256263733,
				0.29883626103401184,
				0.6408563852310181
			],
			"scale":[
				3.0573229789733887,
				3.0573227405548096,
				3.0573227405548096
			],
			"translation":[
				9.452658653259277,
				-3.4377574920654297,
				-21.431602478027344
			]
		},
		{
			"mesh":0,
			"name":"36293d2e-52da-46e8-a376-773d77a16e18.070",
			"rotation":[
				0.29883629083633423,
				-0.6408563256263733,
				0.29883626103401184,
				0.6408563852310181
			],
			"scale":[
				3.0573229789733887,
				3.0573227405548096,
				3.0573227405548096
			],
			"translation":[
				9.452658653259277,
				-3.4377574920654297,
				-18.38584327697754
			]
		},
		{
			"mesh":0,
			"name":"36293d2e-52da-46e8-a376-773d77a16e18.071",
			"rotation":[
				0.29883629083633423,
				-0.6408563256263733,
				0.29883626103401184,
				0.6408563852310181
			],
			"scale":[
				3.0573229789733887,
				3.0573227405548096,
				3.0573227405548096
			],
			"translation":[
				9.452658653259277,
				-3.4377574920654297,
				-15.33168888092041
			]
		},
		{
			"mesh":0,
			"name":"36293d2e-52da-46e8-a376-773d77a16e18.072",
			"rotation":[
				0.29883629083633423,
				-0.6408563256263733,
				0.29883626103401184,
				0.6408563852310181
			],
			"scale":[
				3.0573229789733887,
				3.0573227405548096,
				3.0573227405548096
			],
			"translation":[
				9.452658653259277,
				-3.4377574920654297,
				-12.27393627166748
			]
		},
		{
			"mesh":0,
			"name":"36293d2e-52da-46e8-a376-773d77a16e18.080",
			"rotation":[
				0.29883629083633423,
				-0.6408563256263733,
				0.29883626103401184,
				0.6408563852310181
			],
			"scale":[
				3.0573229789733887,
				3.0573227405548096,
				3.0573227405548096
			],
			"translation":[
				9.452658653259277,
				-3.4377574920654297,
				12.137489318847656
			]
		},
		{
			"mesh":0,
			"name":"36293d2e-52da-46e8-a376-773d77a16e18.081",
			"rotation":[
				0.29883629083633423,
				-0.6408563256263733,
				0.29883626103401184,
				0.6408563852310181
			],
			"scale":[
				3.0573229789733887,
				3.0573227405548096,
				3.0573227405548096
			],
			"translation":[
				9.452658653259277,
				-3.4377574920654297,
				15.191644668579102
			]
		},
		{
			"mesh":0,
			"name":"36293d2e-52da-46e8-a376-773d77a16e18.082",
			"rotation":[
				0.29883629083633423,
				-0.6408563256263733,
				0.29883626103401184,
				0.6408563852310181
			],
			"scale":[
				3.0573229789733887,
				3.0573227405548096,
				3.0573227405548096
			],
			"translation":[
				9.452658653259277,
				-3.4377574920654297,
				18.237403869628906
			]
		},
		{
			"mesh":0,
			"name":"36293d2e-52da-46e8-a376-773d77a16e18.083",
			"rotation":[
				0.29883629083633423,
				-0.6408563256263733,
				0.29883626103401184,
				0.6408563852310181
			],
			"scale":[
				3.0573229789733887,
				3.0573227405548096,
				3.0573227405548096
			],
			"translation":[
				9.452658653259277,
				-3.4377574920654297,
				21.29155921936035
			]
		},
		{
			"mesh":0,
			"name":"36293d2e-52da-46e8-a376-773d77a16e18.084",
			"rotation":[
				0.29883629083633423,
				-0.6408563256263733,
				0.29883626103401184,
				0.6408563852310181
			],
			"scale":[
				3.0573229789733887,
				3.0573227405548096,
				3.0573227405548096
			],
			"translation":[
				9.452662467956543,
				-3.4377574920654297,
				24.32589340209961
			]
		},
		{
			"mesh":0,
			"name":"36293d2e-52da-46e8-a376-773d77a16e18.085",
			"rotation":[
				0.29883629083633423,
				-0.6408563256263733,
				0.29883626103401184,
				0.6408563852310181
			],
			"scale":[
				3.0573229789733887,
				3.0573227405548096,
				3.0573227405548096
			],
			"translation":[
				7.508612632751465,
				-5.7342047691345215,
				-24.48575782775879
			]
		},
		{
			"mesh":0,
			"name":"36293d2e-52da-46e8-a376-773d77a16e18.086",
			"rotation":[
				0.29883629083633423,
				-0.6408563256263733,
				0.29883626103401184,
				0.6408563852310181
			],
			"scale":[
				3.0573229789733887,
				3.0573227405548096,
				3.0573227405548096
			],
			"translation":[
				7.508612632751465,
				-5.7342047691345215,
				-21.431602478027344
			]
		},
		{
			"mesh":0,
			"name":"36293d2e-52da-46e8-a376-773d77a16e18.087",
			"rotation":[
				0.29883629083633423,
				-0.6408563256263733,
				0.29883626103401184,
				0.6408563852310181
			],
			"scale":[
				3.0573229789733887,
				3.0573227405548096,
				3.0573227405548096
			],
			"translation":[
				7.5086164474487305,
				-5.7342047691345215,
				-18.38584327697754
			]
		},
		{
			"mesh":0,
			"name":"36293d2e-52da-46e8-a376-773d77a16e18.088",
			"rotation":[
				0.29883629083633423,
				-0.6408563256263733,
				0.29883626103401184,
				0.6408563852310181
			],
			"scale":[
				3.0573229789733887,
				3.0573227405548096,
				3.0573227405548096
			],
			"translation":[
				7.5086164474487305,
				-5.7342047691345215,
				-15.33168888092041
			]
		},
		{
			"mesh":0,
			"name":"36293d2e-52da-46e8-a376-773d77a16e18.089",
			"rotation":[
				0.29883629083633423,
				-0.6408563256263733,
				0.29883626103401184,
				0.6408563852310181
			],
			"scale":[
				3.0573229789733887,
				3.0573227405548096,
				3.0573227405548096
			],
			"translation":[
				7.5086164474487305,
				-5.7342047691345215,
				-12.27393627166748
			]
		},
		{
			"mesh":0,
			"name":"36293d2e-52da-46e8-a376-773d77a16e18.097",
			"rotation":[
				0.29883629083633423,
				-0.6408563256263733,
				0.29883626103401184,
				0.6408563852310181
			],
			"scale":[
				3.0573229789733887,
				3.0573227405548096,
				3.0573227405548096
			],
			"translation":[
				7.5086164474487305,
				-5.7342047691345215,
				12.137489318847656
			]
		},
		{
			"mesh":0,
			"name":"36293d2e-52da-46e8-a376-773d77a16e18.098",
			"rotation":[
				0.29883629083633423,
				-0.6408563256263733,
				0.29883626103401184,
				0.6408563852310181
			],
			"scale":[
				3.0573229789733887,
				3.0573227405548096,
				3.0573227405548096
			],
			"translation":[
				7.5086164474487305,
				-5.7342047691345215,
				15.191644668579102
			]
		},
		{
			"mesh":0,
			"name":"36293d2e-52da-46e8-a376-773d77a16e18.099",
			"rotation":[
				0.29883629083633423,
				-0.6408563256263733,
				0.29883626103401184,
				0.6408563852310181
			],
			"scale":[
				3.0573229789733887,
				3.0573227405548096,
				3.0573227405548096
			],
			"translation":[
				7.5086164474487305,
				-5.7342047691345215,
				18.237403869628906
			]
		},
		{
			"mesh":0,
			"name":"36293d2e-52da-46e8-a376-773d77a16e18.100",
			"rotation":[
				0.29883629083633423,
				-0.6408563256263733,
				0.29883626103401184,
				0.6408563852310181
			],
			"scale":[
				3.0573229789733887,
				3.0573227405548096,
				3.0573227405548096
			],
			"translation":[
				7.508620262145996,
				-5.7342047691345215,
				21.29155921936035
			]
		},
		{
			"mesh":0,
			"name":"36293d2e-52da-46e8-a376-773d77a16e18.101",
			"rotation":[
				0.29883629083633423,
				-0.6408563256263733,
				0.29883626103401184,
				0.6408563852310181
			],
			"scale":[
				3.0573229789733887,
				3.0573227405548096,
				3.0573227405548096
			],
			"translation":[
				7.508620262145996,
				-5.7342047691345215,
				24.32589340209961
			]
		},
		{
			"mesh":1,
			"name":"Cone",
			"scale":[
				5.878818035125732,
				3.4479589462280273,
				5.878818035125732
			],
			"translation":[
				12.384539604187012,
				-3.467836618423462,
				10.584321975708008
			]
		},
		{
			"mesh":1,
			"name":"Cone.001",
			"scale":[
				5.878818035125732,
				3.4479589462280273,
				5.878818035125732
			],
			"translation":[
				27.64925193786621,
				-3.467836618423462,
				10.584321975708008
			]
		},
		{
			"mesh":1,
			"name":"Cone.002",
			"scale":[
				5.878818035125732,
				3.4479589462280273,
				5.878818035125732
			],
			"translation":[
				12.384539604187012,
				-3.467836618423462,
				-10.7654390335083
			]
		},
		{
			"mesh":1,
			"name":"Cone.003",
			"scale":[
				5.878818035125732,
				3.4479589462280273,
				5.878818035125732
			],
			"translation":[
				27.64925193786621,
				-3.467836618423462,
				-10.7654390335083
			]
		},
		{
			"mesh":2,
			"name":"Cube",
			"rotation":[
				0,
				0,
				-1,
				0
			],
			"scale":[
				-7.654249668121338,
				-3.427692413330078,
				-2.8574838638305664
			],
			"translation":[
				20.027944564819336,
				-3.449789524078369,
				7.531364917755127
			]
		},
		{
			"mesh":2,
			"name":"Cube.001",
			"rotation":[
				0,
				0,
				-1,
				0
			],
			"scale":[
				-7.654249668121338,
				-3.427692413330078,
				-2.8574838638305664
			],
			"translation":[
				20.027944564819336,
				-3.449789524078369,
				-7.70778751373291
			]
		},
		{
			"mesh":3,
			"name":"Cube.002",
			"scale":[
				0.14022277295589447,
				0.14022277295589447,
				0.14022277295589447
			],
			"translation":[
				11.310835838317871,
				0.06780552864074707,
				16.668758392333984
			]
		},
		{
			"mesh":4,
			"name":"Cube.003",
			"scale":[
				0.14022277295589447,
				0.14022277295589447,
				0.14022277295589447
			],
			"translation":[
				11.257226943969727,
				6.614010810852051,
				16.28449821472168
			]
		},
		{
			"mesh":5,
			"name":"Cube.004",
			"scale":[
				1.1064653396606445,
				3.427692413330078,
				1.2028119564056396
			],
			"translation":[
				11.278708457946777,
				-3.482893228530884,
				16.650293350219727
			]
		},
		{
			"mesh":6,
			"name":"Cube.005",
			"rotation":[
				0,
				0,
				-1,
				0
			],
			"scale":[
				-7.654249668121338,
				-3.427692413330078,
				-2.8574838638305664
			],
			"translation":[
				20.027944564819336,
				-3.449789524078369,
				29.05491065979004
			]
		},
		{
			"mesh":6,
			"name":"Cube.006",
			"rotation":[
				0,
				0,
				-1,
				0
			],
			"scale":[
				-7.654249668121338,
				-3.427692413330078,
				-2.8574838638305664
			],
			"translation":[
				20.027944564819336,
				-3.449789524078369,
				-22.87664794921875
			]
		},
		{
			"mesh":7,
			"name":"Cube.007",
			"scale":[
				0.4365586042404175,
				1.3207741975784302,
				0.47457239031791687
			],
			"translation":[
				12.539323806762695,
				1.2497711181640625,
				4.983144283294678
			]
		},
		{
			"mesh":7,
			"name":"Cube.008",
			"scale":[
				0.4365586042404175,
				1.3207741975784302,
				0.47457239031791687
			],
			"translation":[
				27.48653793334961,
				1.2497711181640625,
				4.983144283294678
			]
		},
		{
			"mesh":7,
			"name":"Cube.009",
			"scale":[
				0.4365586042404175,
				1.3207741975784302,
				0.47457239031791687
			],
			"translation":[
				12.539323806762695,
				1.2497711181640625,
				10.543028831481934
			]
		},
		{
			"mesh":7,
			"name":"Cube.010",
			"scale":[
				0.4365586042404175,
				1.3207741975784302,
				0.47457239031791687
			],
			"translation":[
				27.48653793334961,
				1.2497711181640625,
				10.543028831481934
			]
		},
		{
			"mesh":7,
			"name":"Cube.011",
			"scale":[
				0.4365586042404175,
				1.3207741975784302,
				0.47457239031791687
			],
			"translation":[
				12.539323806762695,
				1.2497711181640625,
				-5.051258563995361
			]
		},
		{
			"mesh":7,
			"name":"Cube.012",
			"scale":[
				0.4365586042404175,
				1.3207741975784302,
				0.47457239031791687
			],
			"translation":[
				27.48653793334961,
				1.2497711181640625,
				-5.051258563995361
			]
		},
		{
			"mesh":7,
			"name":"Cube.013",
			"scale":[
				0.4365586042404175,
				1.3207741975784302,
				0.47457239031791687
			],
			"translation":[
				12.539323806762695,
				1.2497711181640625,
				-10.595539093017578
			]
		},
		{
			"mesh":7,
			"name":"Cube.014",
			"scale":[
				0.4365586042404175,
				1.3207741975784302,
				0.47457239031791687
			],
			"translation":[
				27.48653793334961,
				1.2497711181640625,
				-10.595539093017578
			]
		},
		{
			"name":"Cube.039",
			"translation":[
				31.002111434936523,
				6.195373058319092,
				24.333084106445312
			]
		},
		{
			"name":"IMG_6105",
			"rotation":[
				0,
				0.7071068286895752,
				0,
				0.7071068286895752
			]
		},
		{
			"mesh":8,
			"name":"Plane",
			"rotation":[
				0,
				0,
				-0.7071068286895752,
				0.7071068286895752
			],
			"scale":[
				1.120710849761963,
				1.120710849761963,
				1.120710849761963
			],
			"translation":[
				27.41849708557129,
				1.160677433013916,
				3.354670524597168
			]
		},
		{
			"mesh":8,
			"name":"Plane.001",
			"rotation":[
				0,
				0,
				-0.7071068286895752,
				0.7071068286895752
			],
			"scale":[
				1.120710849761963,
				1.120710849761963,
				1.120710849761963
			],
			"translation":[
				27.41849708557129,
				1.160677433013916,
				1.0757033824920654
			]
		},
		{
			"mesh":8,
			"name":"Plane.002",
			"rotation":[
				0,
				0,
				-0.7071068286895752,
				0.7071068286895752
			],
			"scale":[
				1.120710849761963,
				1.120710849761963,
				1.120710849761963
			],
			"translation":[
				27.41849708557129,
				1.160677433013916,
				-1.176133155822754
			]
		},
		{
			"mesh":8,
			"name":"Plane.003",
			"rotation":[
				0,
				0,
				-0.7071068286895752,
				0.7071068286895752
			],
			"scale":[
				1.120710849761963,
				1.120710849761963,
				1.120710849761963
			],
			"translation":[
				27.41849708557129,
				1.160677433013916,
				-3.4551005363464355
			]
		},
		{
			"mesh":8,
			"name":"Plane.004",
			"rotation":[
				0,
				0,
				-0.7071068286895752,
				0.7071068286895752
			],
			"scale":[
				1.120710849761963,
				1.120710849761963,
				1.120710849761963
			],
			"translation":[
				27.41849708557129,
				1.160677433013916,
				8.874174118041992
			]
		},
		{
			"mesh":8,
			"name":"Plane.005",
			"rotation":[
				0,
				0,
				-0.7071068286895752,
				0.7071068286895752
			],
			"scale":[
				1.120710849761963,
				1.120710849761963,
				1.120710849761963
			],
			"translation":[
				27.41849708557129,
				1.160677433013916,
				6.595207214355469
			]
		},
		{
			"mesh":8,
			"name":"Plane.006",
			"rotation":[
				0,
				0,
				-0.7071068286895752,
				0.7071068286895752
			],
			"scale":[
				1.120710849761963,
				1.120710849761963,
				1.120710849761963
			],
			"translation":[
				27.41849708557129,
				1.160677433013916,
				-6.69179630279541
			]
		},
		{
			"mesh":8,
			"name":"Plane.007",
			"rotation":[
				0,
				0,
				-0.7071068286895752,
				0.7071068286895752
			],
			"scale":[
				1.120710849761963,
				1.120710849761963,
				1.120710849761963
			],
			"translation":[
				27.41849708557129,
				1.160677433013916,
				-8.970763206481934
			]
		},
		{
			"mesh":8,
			"name":"Plane.008",
			"rotation":[
				0,
				0,
				-0.7071068286895752,
				0.7071068286895752
			],
			"scale":[
				1.120710849761963,
				1.120710849761963,
				1.120710849761963
			],
			"translation":[
				12.433334350585938,
				1.160677433013916,
				3.354670524597168
			]
		},
		{
			"mesh":8,
			"name":"Plane.009",
			"rotation":[
				0,
				0,
				-0.7071068286895752,
				0.7071068286895752
			],
			"scale":[
				1.120710849761963,
				1.120710849761963,
				1.120710849761963
			],
			"translation":[
				12.433334350585938,
				1.160677433013916,
				1.0757033824920654
			]
		},
		{
			"mesh":8,
			"name":"Plane.010",
			"rotation":[
				0,
				0,
				-0.7071068286895752,
				0.7071068286895752
			],
			"scale":[
				1.120710849761963,
				1.120710849761963,
				1.120710849761963
			],
			"translation":[
				12.433334350585938,
				1.160677433013916,
				-1.176133155822754
			]
		},
		{
			"mesh":8,
			"name":"Plane.011",
			"rotation":[
				0,
				0,
				-0.7071068286895752,
				0.7071068286895752
			],
			"scale":[
				1.120710849761963,
				1.120710849761963,
				1.120710849761963
			],
			"translation":[
				12.433334350585938,
				1.160677433013916,
				-3.4551005363464355
			]
		},
		{
			"mesh":8,
			"name":"Plane.012",
			"rotation":[
				0,
				0,
				-0.7071068286895752,
				0.7071068286895752
			],
			"scale":[
				1.120710849761963,
				1.120710849761963,
				1.120710849761963
			],
			"translation":[
				12.433334350585938,
				1.160677433013916,
				8.874174118041992
			]
		},
		{
			"mesh":8,
			"name":"Plane.013",
			"rotation":[
				0,
				0,
				-0.7071068286895752,
				0.7071068286895752
			],
			"scale":[
				1.120710849761963,
				1.120710849761963,
				1.120710849761963
			],
			"translation":[
				12.433334350585938,
				1.160677433013916,
				6.595207214355469
			]
		},
		{
			"mesh":8,
			"name":"Plane.014",
			"rotation":[
				0,
				0,
				-0.7071068286895752,
				0.7071068286895752
			],
			"scale":[
				1.120710849761963,
				1.120710849761963,
				1.120710849761963
			],
			"translation":[
				12.433334350585938,
				1.160677433013916,
				-6.69179630279541
			]
		},
		{
			"mesh":8,
			"name":"Plane.015",
			"rotation":[
				0,
				0,
				-0.7071068286895752,
				0.7071068286895752
			],
			"scale":[
				1.120710849761963,
				1.120710849761963,
				1.120710849761963
			],
			"translation":[
				12.433334350585938,
				1.160677433013916,
				-8.970763206481934
			]
		}
	],
	"animations":[
		{
			"channels":[
				{
					"sampler":0,
					"target":{
						"node":67,
						"path":"translation"
					}
				},
				{
					"sampler":1,
					"target":{
						"node":67,
						"path":"rotation"
					}
				},
				{
					"sampler":2,
					"target":{
						"node":67,
						"path":"scale"
					}
				}
			],
			"name":"Cube.003Action",
			"samplers":[
				{
					"input":40,
					"interpolation":"LINEAR",
					"output":41
				},
				{
					"input":40,
					"interpolation":"LINEAR",
					"output":42
				},
				{
					"input":43,
					"interpolation":"STEP",
					"output":44
				}
			]
		}
	],
	"materials":[
		{
			"doubleSided":true,
			"name":"36293d2e-52da-46e8-a376-773d77a16e18",
			"pbrMetallicRoughness":{
				"baseColorTexture":{
					"index":0
				},
				"metallicFactor":0
			}
		},
		{
			"doubleSided":true,
			"name":"Material.001",
			"pbrMetallicRoughness":{
				"baseColorFactor":[
					0.9235967993736267,
					0.9818152189254761,
					1,
					1
				],
				"metallicFactor":0,
				"roughnessFactor":0.5
			}
		},
		{
			"doubleSided":true,
			"name":"Material.004",
			"pbrMetallicRoughness":{
				"baseColorFactor":[
					0,
					0,
					0,
					1
				],
				"metallicFactor":0,
				"roughnessFactor":0.5
			}
		}
	],
	"meshes":[
		{
			"name":"36293d2e-52da-46e8-a376-773d77a16e18",
			"primitives":[
				{
					"attributes":{
						"POSITION":0,
						"NORMAL":1,
						"TEXCOORD_0":2
					},
					"indices":3,
					"material":0
				}
			]
		},
		{
			"name":"Cone",
			"primitives":[
				{
					"attributes":{
						"POSITION":4,
						"NORMAL":5,
						"TEXCOORD_0":6
					},
					"indices":7,
					"material":0
				}
			]
		},
		{
			"name":"Cube.004",
			"primitives":[
				{
					"attributes":{
						"POSITION":8,
						"NORMAL":9,
						"TEXCOORD_0":10
					},
					"indices":11,
					"material":0
				}
			]
		},
		{
			"name":"Cube.003",
			"primitives":[
				{
					"attributes":{
						"POSITION":12,
						"NORMAL":13,
						"TEXCOORD_0":14
					},
					"indices":15,
					"material":1
				},
				{
					"attributes":{
						"POSITION":16,
						"NORMAL":17,
						"TEXCOORD_0":18
					},
					"indices":19,
					"material":2
				}
			]
		},
		{
			"name":"Cube.005",
			"primitives":[
				{
					"attributes":{
						"POSITION":20,
						"NORMAL":21,
						"TEXCOORD_0":22
					},
					"indices":11,
					"material":1
				},
				{
					"attributes":{
						"POSITION":23,
						"NORMAL":24,
						"TEXCOORD_0":25
					},
					"indices":11,
					"material":2
				}
			]
		},
		{
			"name":"Cube.006",
			"primitives":[
				{
					"attributes":{
						"POSITION":26,
						"NORMAL":27,
						"TEXCOORD_0":28
					},
					"indices":11,
					"material":0
				}
			]
		},
		{
			"name":"Cube.007",
			"primitives":[
				{
					"attributes":{
						"POSITION":29,
						"NORMAL":30,
						"TEXCOORD_0":31
					},
					"indices":32,
					"material":2
				}
			]
		},
		{
			"name":"Cube.008",
			"primitives":[
				{
					"attributes":{
						"POSITION":33,
						"NORMAL":34,
						"TEXCOORD_0":35
					},
					"indices":11,
					"material":0
				}
			]
		},
		{
			"name":"Plane",
			"primitives":[
				{
					"attributes":{
						"POSITION":36,
						"NORMAL":37,
						"TEXCOORD_0":38
					},
					"indices":39
				}
			]
		}
	],
	"textures":[
		{
			"sampler":0,
			"source":0
		}
	],
	"images":[
		{
			"mimeType":"image/jpeg",
			"name":"36293d2e-52da-46e8-a376-773d77a16e18",
			"uri":"36293d2e-52da-46e8-a376-773d77a16e18.jpg"
		}
	],
	"accessors":[
		{
			"bufferView":0,
			"componentType":5126,
			"count":4,
			"max":[
				0.5,
				0,
				0.5
			],
			"min":[
				-0.5,
				0,
				-0.5
			],
			"type":"VEC3"
		},
		{
			"bufferView":1,
			"componentType":5126,
			"count":4,
			"type":"VEC3"
		},
		{
			"bufferView":2,
			"componentType":5126,
			"count":4,
			"type":"VEC2"
		},
		{
			"bufferView":3,
			"componentType":5123,
			"count":6,
			"type":"SCALAR"
		},
		{
			"bufferView":4,
			"componentType":5126,
			"count":128,
			"max":[
				1,
				1,
				1
			],
			"min":[
				-1,
				-1,
				-1
			],
			"type":"VEC3"
		},
		{
			"bufferView":5,
			"componentType":5126,
			"count":128,
			"type":"VEC3"
		},
		{
			"bufferView":6,
			"componentType":5126,
			"count":128,
			"type":"VEC2"
		},
		{
			"bufferView":7,
			"componentType":5123,
			"count":186,
			"type":"SCALAR"
		},
		{
			"bufferView":8,
			"componentType":5126,
			"count":24,
			"max":[
				1,
				1,
				1.0962402820587158
			],
			"min":[
				-1,
				-1,
				-1.1060981750488281
			],
			"type":"VEC3"
		},
		{
			"bufferView":9,
			"componentType":5126,
			"count":24,
			"type":"VEC3"
		},
		{
			"bufferView":10,
			"componentType":5126,
			"count":24,
			"type":"VEC2"
		},
		{
			"bufferView":11,
			"componentType":5123,
			"count":36,
			"type":"SCALAR"
		},
		{
			"bufferView":12,
			"componentType":5126,
			"count":114,
			"max":[
				1.5882282257080078,
				52.676246643066406,
				1.2147585153579712
			],
			"min":[
				-1.5759203433990479,
				-1,
				-1.2147585153579712
			],
			"type":"VEC3"
		},
		{
			"bufferView":13,
			"componentType":5126,
			"count":114,
			"type":"VEC3"
		},
		{
			"bufferView":14,
			"componentType":5126,
			"count":114,
			"type":"VEC2"
		},
		{
			"bufferView":15,
			"componentType":5123,
			"count":180,
			"type":"SCALAR"
		},
		{
			"bufferView":16,
			"componentType":5126,
			"count":2224,
			"max":[
				1.3562630414962769,
				58.04900360107422,
				1.734039545059204
			],
			"min":[
				-1.7909362316131592,
				13.532529830932617,
				-1.3562633991241455
			],
			"type":"VEC3"
		},
		{
			"bufferView":17,
			"componentType":5126,
			"count":2224,
			"type":"VEC3"
		},
		{
			"bufferView":18,
			"componentType":5126,
			"count":2224,
			"type":"VEC2"
		},
		{
			"bufferView":19,
			"componentType":5123,
			"count":3324,
			"type":"SCALAR"
		},
		{
			"bufferView":20,
			"componentType":5126,
			"count":24,
			"max":[
				13.343328475952148,
				1,
				1
			],
			"min":[
				-1,
				-1,
				0.30264365673065186
			],
			"type":"VEC3"
		},
		{
			"bufferView":21,
			"componentType":5126,
			"count":24,
			"type":"VEC3"
		},
		{
			"bufferView":22,
			"componentType":5126,
			"count":24,
			"type":"VEC2"
		},
		{
			"bufferView":23,
			"componentType":5126,
			"count":24,
			"max":[
				11.90544605255127,
				1.0193148851394653,
				1.0360558032989502
			],
			"min":[
				10.384662628173828,
				-1.0229209661483765,
				0.2627164125442505
			],
			"type":"VEC3"
		},
		{
			"bufferView":24,
			"componentType":5126,
			"count":24,
			"type":"VEC3"
		},
		{
			"bufferView":25,
			"componentType":5126,
			"count":24,
			"type":"VEC2"
		},
		{
			"bufferView":26,
			"componentType":5126,
			"count":24,
			"max":[
				1,
				1,
				1.0962402820587158
			],
			"min":[
				-1,
				-1,
				-1.1060981750488281
			],
			"type":"VEC3"
		},
		{
			"bufferView":27,
			"componentType":5126,
			"count":24,
			"type":"VEC3"
		},
		{
			"bufferView":28,
			"componentType":5126,
			"count":24,
			"type":"VEC2"
		},
		{
			"bufferView":29,
			"componentType":5126,
			"count":4,
			"max":[
				1.7531964778900146,
				1,
				1.0962402820587158
			],
			"min":[
				-1.7531964778900146,
				-1,
				1.0962402820587158
			],
			"type":"VEC3"
		},
		{
			"bufferView":30,
			"componentType":5126,
			"count":4,
			"type":"VEC3"
		},
		{
			"bufferView":31,
			"componentType":5126,
			"count":4,
			"type":"VEC2"
		},
		{
			"bufferView":32,
			"componentType":5123,
			"count":6,
			"type":"SCALAR"
		},
		{
			"bufferView":33,
			"componentType":5126,
			"count":24,
			"max":[
				1,
				1,
				1.0962402820587158
			],
			"min":[
				-1,
				-1,
				-1.1060981750488281
			],
			"type":"VEC3"
		},
		{
			"bufferView":34,
			"componentType":5126,
			"count":24,
			"type":"VEC3"
		},
		{
			"bufferView":35,
			"componentType":5126,
			"count":24,
			"type":"VEC2"
		},
		{
			"bufferView":36,
			"componentType":5126,
			"count":100,
			"max":[
				1.046958327293396,
				0.15809527039527893,
				1.046958327293396
			],
			"min":[
				-1.046958327293396,
				-1.027477434799068e-16,
				-1.046958327293396
			],
			"type":"VEC3"
		},
		{
			"bufferView":37,
			"componentType":5126,
			"count":100,
			"type":"VEC3"
		},
		{
			"bufferView":38,
			"componentType":5126,
			"count":100,
			"type":"VEC2"
		},
		{
			"bufferView":39,
			"componentType":5123,
			"count":252,
			"type":"SCALAR"
		},
		{
			"bufferView":40,
			"componentType":5126,
			"count":217,
			"max":[
				9
			],
			"min":[
				0
			],
			"type":"SCALAR"
		},
		{
			"bufferView":41,
			"componentType":5126,
			"count":217,
			"type":"VEC3"
		},
		{
			"bufferView":42,
			"componentType":5126,
			"count":217,
			"type":"VEC4"
		},
		{
			"bufferView":43,
			"componentType":5126,
			"count":2,
			"max":[
				9
			],
			"min":[
				0
			],
			"type":"SCALAR"
		},
		{
			"bufferView":44,
			"componentType":5126,
			"count":2,
			"type":"VEC3"
		}
	],
	"bufferViews":[
		{
			"buffer":0,
			"byteLength":48,
			"byteOffset":0,
			"target":34962
		},
		{
			"buffer":0,
			"byteLength":48,
			"byteOffset":48,
			"target":34962
		},
		{
			"buffer":0,
			"byteLength":32,
			"byteOffset":96,
			"target":34962
		},
		{
			"buffer":0,
			"byteLength":12,
			"byteOffset":128,
			"target":34963
		},
		{
			"buffer":0,
			"byteLength":1536,
			"byteOffset":140,
			"target":34962
		},
		{
			"buffer":0,
			"byteLength":1536,
			"byteOffset":1676,
			"target":34962
		},
		{
			"buffer":0,
			"byteLength":1024,
			"byteOffset":3212,
			"target":34962
		},
		{
			"buffer":0,
			"byteLength":372,
			"byteOffset":4236,
			"target":34963
		},
		{
			"buffer":0,
			"byteLength":288,
			"byteOffset":4608,
			"target":34962
		},
		{
			"buffer":0,
			"byteLength":288,
			"byteOffset":4896,
			"target":34962
		},
		{
			"buffer":0,
			"byteLength":192,
			"byteOffset":5184,
			"target":34962
		},
		{
			"buffer":0,
			"byteLength":72,
			"byteOffset":5376,
			"target":34963
		},
		{
			"buffer":0,
			"byteLength":1368,
			"byteOffset":5448,
			"target":34962
		},
		{
			"buffer":0,
			"byteLength":1368,
			"byteOffset":6816,
			"target":34962
		},
		{
			"buffer":0,
			"byteLength":912,
			"byteOffset":8184,
			"target":34962
		},
		{
			"buffer":0,
			"byteLength":360,
			"byteOffset":9096,
			"target":34963
		},
		{
			"buffer":0,
			"byteLength":26688,
			"byteOffset":9456,
			"target":34962
		},
		{
			"buffer":0,
			"byteLength":26688,
			"byteOffset":36144,
			"target":34962
		},
		{
			"buffer":0,
			"byteLength":17792,
			"byteOffset":62832,
			"target":34962
		},
		{
			"buffer":0,
			"byteLength":6648,
			"byteOffset":80624,
			"target":34963
		},
		{
			"buffer":0,
			"byteLength":288,
			"byteOffset":87272,
			"target":34962
		},
		{
			"buffer":0,
			"byteLength":288,
			"byteOffset":87560,
			"target":34962
		},
		{
			"buffer":0,
			"byteLength":192,
			"byteOffset":87848,
			"target":34962
		},
		{
			"buffer":0,
			"byteLength":288,
			"byteOffset":88040,
			"target":34962
		},
		{
			"buffer":0,
			"byteLength":288,
			"byteOffset":88328,
			"target":34962
		},
		{
			"buffer":0,
			"byteLength":192,
			"byteOffset":88616,
			"target":34962
		},
		{
			"buffer":0,
			"byteLength":288,
			"byteOffset":88808,
			"target":34962
		},
		{
			"buffer":0,
			"byteLength":288,
			"byteOffset":89096,
			"target":34962
		},
		{
			"buffer":0,
			"byteLength":192,
			"byteOffset":89384,
			"target":34962
		},
		{
			"buffer":0,
			"byteLength":48,
			"byteOffset":89576,
			"target":34962
		},
		{
			"buffer":0,
			"byteLength":48,
			"byteOffset":89624,
			"target":34962
		},
		{
			"buffer":0,
			"byteLength":32,
			"byteOffset":89672,
			"target":34962
		},
		{
			"buffer":0,
			"byteLength":12,
			"byteOffset":89704,
			"target":34963
		},
		{
			"buffer":0,
			"byteLength":288,
			"byteOffset":89716,
			"target":34962
		},
		{
			"buffer":0,
			"byteLength":288,
			"byteOffset":90004,
			"target":34962
		},
		{
			"buffer":0,
			"byteLength":192,
			"byteOffset":90292,
			"target":34962
		},
		{
			"buffer":0,
			"byteLength":1200,
			"byteOffset":90484,
			"target":34962
		},
		{
			"buffer":0,
			"byteLength":1200,
			"byteOffset":91684,
			"target":34962
		},
		{
			"buffer":0,
			"byteLength":800,
			"byteOffset":92884,
			"target":34962
		},
		{
			"buffer":0,
			"byteLength":504,
			"byteOffset":93684,
			"target":34963
		},
		{
			"buffer":0,
			"byteLength":868,
			"byteOffset":94188
		},
		{
			"buffer":0,
			"byteLength":2604,
			"byteOffset":95056
		},
		{
			"buffer":0,
			"byteLength":3472,
			"byteOffset":97660
		},
		{
			"buffer":0,
			"byteLength":8,
			"byteOffset":101132
		},
		{
			"buffer":0,
			"byteLength":24,
			"byteOffset":101140
		}
	],
	"samplers":[
		{
			"magFilter":9729,
			"minFilter":9987
		}
	],
	"buffers":[
		{
			"byteLength":101164,
			"uri":"takanawa_new.bin"
		}
	]
}
