{
	"asset":{
		"generator":"Khronos glTF Blender I/O v5.2.40",
		"version":"2.0"
	},
	"extensionsUsed":[
		"KHR_materials_emissive_strength"
	],
	"scene":0,
	"scenes":[
		{
			"name":"Scene",
			"nodes":[
				0,
				1,
				2,
				3,
				4,
				5,
				6,
				7,
				8,
				9,
				10,
				11,
				12,
				13,
				14,
				15,
				16,
				17,
				18,
				19,
				20,
				21,
				22,
				23,
				24,
				25,
				26,
				27,
				28,
				29,
				30,
				31,
				32,
				33,
				34,
				35,
				36,
				37,
				38,
				39,
				40,
				41,
				42,
				43,
				44,
				45,
				46,
				47,
				48,
				49,
				50,
				51,
				52,
				53,
				54,
				55,
				56,
				57,
				58,
				59,
				60,
				61,
				62,
				63,
				64,
				65,
				66,
				67,
				68,
				69,
				70,
				71,
				72,
				73,
				74,
				75,
				76,
				77,
				78,
				79,
				80,
				81,
				82,
				83,
				84,
				85,
				86,
				87,
				88,
				89,
				90,
				91,
				92,
				93,
				94,
				95,
				96,
				97,
				98,
				99
			]
		}
	],
	"nodes":[
		{
			"mesh":0,
			"name":"Cube",
			"rotation":[
				0,
				-0.7071068286895752,
				0,
				0.7071068286895752
			],
			"translation":[
				0.03263533115386963,
				-0.9696111679077148,
				28.647300720214844
			]
		},
		{
			"mesh":1,
			"name":"Cube.001",
			"rotation":[
				0.5,
				-0.5,
				-0.5,
				0.5000000596046448
			],
			"translation":[
				0.03263533115386963,
				5.023765563964844,
				3.677750587463379
			]
		},
		{
			"mesh":1,
			"name":"Cube.002",
			"rotation":[
				-0.5000000596046448,
				-0.5,
				0.5,
				0.5
			],
			"scale":[
				-1,
				-1,
				-1
			],
			"translation":[
				0.05933952331542969,
				5.023765563964844,
				3.677750587463379
			]
		},
		{
			"mesh":2,
			"name":"Cube.003",
			"rotation":[
				0,
				-0.7071068286895752,
				0,
				0.7071067690849304
			],
			"scale":[
				-0.05094704404473305,
				-0.4359796941280365,
				-0.05094704404473305
			],
			"translation":[
				9.163385391235352,
				0.4611870050430298,
				27.800457000732422
			]
		},
		{
			"mesh":2,
			"name":"Cube.004",
			"rotation":[
				0,
				-0.7071068286895752,
				0,
				0.7071067690849304
			],
			"scale":[
				-0.05094704404473305,
				-0.4359796941280365,
				-0.05094704404473305
			],
			"translation":[
				7.858356475830078,
				0.4611870050430298,
				27.800457000732422
			]
		},
		{
			"mesh":2,
			"name":"Cube.005",
			"rotation":[
				0,
				-0.7071068286895752,
				0,
				0.7071067690849304
			],
			"scale":[
				-0.05094704404473305,
				-0.4359796941280365,
				-0.05094704404473305
			],
			"translation":[
				6.553328514099121,
				0.4611870050430298,
				27.800457000732422
			]
		},
		{
			"mesh":2,
			"name":"Cube.006",
			"rotation":[
				0,
				-0.7071068286895752,
				0,
				0.7071067690849304
			],
			"scale":[
				-0.05094704404473305,
				-0.4359796941280365,
				-0.05094704404473305
			],
			"translation":[
				15.675840377807617,
				0.4611870050430298,
				27.800457000732422
			]
		},
		{
			"mesh":2,
			"name":"Cube.007",
			"rotation":[
				0,
				-0.7071068286895752,
				0,
				0.7071067690849304
			],
			"scale":[
				-0.05094704404473305,
				-0.4359796941280365,
				-0.05094704404473305
			],
			"translation":[
				14.37081241607666,
				0.4611870050430298,
				27.800457000732422
			]
		},
		{
			"mesh":2,
			"name":"Cube.008",
			"rotation":[
				0,
				-0.7071068286895752,
				0,
				0.7071067690849304
			],
			"scale":[
				-0.05094704404473305,
				-0.4359796941280365,
				-0.05094704404473305
			],
			"translation":[
				13.065783500671387,
				0.4611870050430298,
				27.800457000732422
			]
		},
		{
			"mesh":2,
			"name":"Cube.009",
			"rotation":[
				0,
				-0.7071068286895752,
				0,
				0.7071067690849304
			],
			"scale":[
				-0.05094704404473305,
				-0.4359796941280365,
				-0.05094704404473305
			],
			"translation":[
				11.76075553894043,
				0.4611870050430298,
				27.800457000732422
			]
		},
		{
			"mesh":2,
			"name":"Cube.010",
			"rotation":[
				0,
				-0.7071068286895752,
				0,
				0.7071067690849304
			],
			"scale":[
				-0.05094704404473305,
				-0.4359796941280365,
				-0.05094704404473305
			],
			"translation":[
				10.468413352966309,
				0.4611870050430298,
				27.800457000732422
			]
		},
		{
			"mesh":2,
			"name":"Cube.011",
			"rotation":[
				0,
				-0.7071068286895752,
				0,
				0.7071067690849304
			],
			"scale":[
				-0.05094704404473305,
				-0.4359796941280365,
				-0.05094704404473305
			],
			"translation":[
				0.03405570983886719,
				0.4611870050430298,
				27.800457000732422
			]
		},
		{
			"mesh":2,
			"name":"Cube.012",
			"rotation":[
				0,
				-0.7071068286895752,
				0,
				0.7071067690849304
			],
			"scale":[
				-0.05094704404473305,
				-0.4359796941280365,
				-0.05094704404473305
			],
			"translation":[
				-1.2709722518920898,
				0.4611870050430298,
				27.800457000732422
			]
		},
		{
			"mesh":2,
			"name":"Cube.013",
			"rotation":[
				0,
				-0.7071068286895752,
				0,
				0.7071067690849304
			],
			"scale":[
				-0.05094704404473305,
				-0.4359796941280365,
				-0.05094704404473305
			],
			"translation":[
				-2.5760011672973633,
				0.4611870050430298,
				27.800457000732422
			]
		},
		{
			"mesh":2,
			"name":"Cube.014",
			"rotation":[
				0,
				-0.7071068286895752,
				0,
				0.7071067690849304
			],
			"scale":[
				-0.05094704404473305,
				-0.4359796941280365,
				-0.05094704404473305
			],
			"translation":[
				-3.8810291290283203,
				0.4611870050430298,
				27.800457000732422
			]
		},
		{
			"mesh":2,
			"name":"Cube.015",
			"rotation":[
				0,
				-0.7071068286895752,
				0,
				0.7071067690849304
			],
			"scale":[
				-0.05094704404473305,
				-0.4359796941280365,
				-0.05094704404473305
			],
			"translation":[
				5.241482734680176,
				0.4611870050430298,
				27.800457000732422
			]
		},
		{
			"mesh":2,
			"name":"Cube.016",
			"rotation":[
				0,
				-0.7071068286895752,
				0,
				0.7071067690849304
			],
			"scale":[
				-0.05094704404473305,
				-0.4359796941280365,
				-0.05094704404473305
			],
			"translation":[
				3.9364547729492188,
				0.4611870050430298,
				27.800457000732422
			]
		},
		{
			"mesh":2,
			"name":"Cube.017",
			"rotation":[
				0,
				-0.7071068286895752,
				0,
				0.7071067690849304
			],
			"scale":[
				-0.05094704404473305,
				-0.4359796941280365,
				-0.05094704404473305
			],
			"translation":[
				2.6314258575439453,
				0.4611870050430298,
				27.800457000732422
			]
		},
		{
			"mesh":2,
			"name":"Cube.018",
			"rotation":[
				0,
				-0.7071068286895752,
				0,
				0.7071067690849304
			],
			"scale":[
				-0.05094704404473305,
				-0.4359796941280365,
				-0.05094704404473305
			],
			"translation":[
				1.3263978958129883,
				0.4611870050430298,
				27.800457000732422
			]
		},
		{
			"mesh":2,
			"name":"Cube.019",
			"rotation":[
				0,
				-0.7071068286895752,
				0,
				0.7071067690849304
			],
			"scale":[
				-0.05094704404473305,
				-0.4359796941280365,
				-0.05094704404473305
			],
			"translation":[
				-10.396717071533203,
				0.4611870050430298,
				27.800457000732422
			]
		},
		{
			"mesh":2,
			"name":"Cube.020",
			"rotation":[
				0,
				-0.7071068286895752,
				0,
				0.7071067690849304
			],
			"scale":[
				-0.05094704404473305,
				-0.4359796941280365,
				-0.05094704404473305
			],
			"translation":[
				-11.70174503326416,
				0.4611870050430298,
				27.800457000732422
			]
		},
		{
			"mesh":2,
			"name":"Cube.021",
			"rotation":[
				0,
				-0.7071068286895752,
				0,
				0.7071067690849304
			],
			"scale":[
				-0.05094704404473305,
				-0.4359796941280365,
				-0.05094704404473305
			],
			"translation":[
				-13.006773948669434,
				0.4611870050430298,
				27.800457000732422
			]
		},
		{
			"mesh":2,
			"name":"Cube.022",
			"rotation":[
				0,
				-0.7071068286895752,
				0,
				0.7071067690849304
			],
			"scale":[
				-0.05094704404473305,
				-0.4359796941280365,
				-0.05094704404473305
			],
			"translation":[
				-14.31180191040039,
				0.4611870050430298,
				27.800457000732422
			]
		},
		{
			"mesh":2,
			"name":"Cube.023",
			"rotation":[
				0,
				-0.7071068286895752,
				0,
				0.7071067690849304
			],
			"scale":[
				-0.05094704404473305,
				-0.4359796941280365,
				-0.05094704404473305
			],
			"translation":[
				-5.1892900466918945,
				0.4611870050430298,
				27.800457000732422
			]
		},
		{
			"mesh":2,
			"name":"Cube.024",
			"rotation":[
				0,
				-0.7071068286895752,
				0,
				0.7071067690849304
			],
			"scale":[
				-0.05094704404473305,
				-0.4359796941280365,
				-0.05094704404473305
			],
			"translation":[
				-6.494318008422852,
				0.4611870050430298,
				27.800457000732422
			]
		},
		{
			"mesh":2,
			"name":"Cube.025",
			"rotation":[
				0,
				-0.7071068286895752,
				0,
				0.7071067690849304
			],
			"scale":[
				-0.05094704404473305,
				-0.4359796941280365,
				-0.05094704404473305
			],
			"translation":[
				-7.799346923828125,
				0.4611870050430298,
				27.800457000732422
			]
		},
		{
			"mesh":2,
			"name":"Cube.026",
			"rotation":[
				0,
				-0.7071068286895752,
				0,
				0.7071067690849304
			],
			"scale":[
				-0.05094704404473305,
				-0.4359796941280365,
				-0.05094704404473305
			],
			"translation":[
				-9.104374885559082,
				0.4611870050430298,
				27.800457000732422
			]
		},
		{
			"mesh":2,
			"name":"Cube.027",
			"rotation":[
				0,
				-0.7071068286895752,
				0,
				0.7071067690849304
			],
			"scale":[
				-0.05094704404473305,
				-0.4359796941280365,
				-0.05094704404473305
			],
			"translation":[
				-20.82748794555664,
				0.4611870050430298,
				27.800457000732422
			]
		},
		{
			"mesh":2,
			"name":"Cube.028",
			"rotation":[
				0,
				-0.7071068286895752,
				0,
				0.7071067690849304
			],
			"scale":[
				-0.05094704404473305,
				-0.4359796941280365,
				-0.05094704404473305
			],
			"translation":[
				-22.132516860961914,
				0.4611870050430298,
				27.800457000732422
			]
		},
		{
			"mesh":2,
			"name":"Cube.029",
			"rotation":[
				0,
				-0.7071068286895752,
				0,
				0.7071067690849304
			],
			"scale":[
				-0.05094704404473305,
				-0.4359796941280365,
				-0.05094704404473305
			],
			"translation":[
				-23.437545776367188,
				0.4611870050430298,
				27.800457000732422
			]
		},
		{
			"mesh":2,
			"name":"Cube.030",
			"rotation":[
				0,
				-0.7071068286895752,
				0,
				0.7071067690849304
			],
			"scale":[
				-0.05094704404473305,
				-0.4359796941280365,
				-0.05094704404473305
			],
			"translation":[
				-24.742572784423828,
				0.4611870050430298,
				27.800457000732422
			]
		},
		{
			"mesh":2,
			"name":"Cube.031",
			"rotation":[
				0,
				-0.7071068286895752,
				0,
				0.7071067690849304
			],
			"scale":[
				-0.05094704404473305,
				-0.4359796941280365,
				-0.05094704404473305
			],
			"translation":[
				-15.620061874389648,
				0.4611870050430298,
				27.800457000732422
			]
		},
		{
			"mesh":3,
			"name":"Cube.032",
			"rotation":[
				0,
				-0.7071068286895752,
				0,
				0.7071068286895752
			],
			"translation":[
				-0.7667611837387085,
				6.030200004577637,
				7.382708549499512
			]
		},
		{
			"mesh":2,
			"name":"Cube.033",
			"rotation":[
				0,
				-0.7071068286895752,
				0,
				0.7071067690849304
			],
			"scale":[
				-0.05094704404473305,
				-0.4359796941280365,
				-0.05094704404473305
			],
			"translation":[
				-16.925090789794922,
				0.4611870050430298,
				27.800457000732422
			]
		},
		{
			"mesh":2,
			"name":"Cube.034",
			"rotation":[
				0,
				-0.7071068286895752,
				0,
				0.7071067690849304
			],
			"scale":[
				-0.05094704404473305,
				-0.4359796941280365,
				-0.05094704404473305
			],
			"translation":[
				-18.230117797851562,
				0.4611870050430298,
				27.800457000732422
			]
		},
		{
			"mesh":2,
			"name":"Cube.035",
			"rotation":[
				0,
				-0.7071068286895752,
				0,
				0.7071067690849304
			],
			"scale":[
				-0.05094704404473305,
				-0.4359796941280365,
				-0.05094704404473305
			],
			"translation":[
				-19.535146713256836,
				0.4611870050430298,
				27.800457000732422
			]
		},
		{
			"mesh":2,
			"name":"Cube.036",
			"rotation":[
				0,
				-0.7071068286895752,
				0,
				0.7071067690849304
			],
			"scale":[
				-0.05094704404473305,
				-0.4359796941280365,
				-0.05094704404473305
			],
			"translation":[
				-26.04010009765625,
				0.4611870050430298,
				27.800457000732422
			]
		},
		{
			"mesh":2,
			"name":"Cube.037",
			"rotation":[
				0,
				-0.7071068286895752,
				0,
				0.7071067690849304
			],
			"scale":[
				-0.05094704404473305,
				-0.4359796941280365,
				-0.05094704404473305
			],
			"translation":[
				23.503597259521484,
				0.4611870050430298,
				27.800457000732422
			]
		},
		{
			"mesh":2,
			"name":"Cube.038",
			"rotation":[
				0,
				-0.7071068286895752,
				0,
				0.7071067690849304
			],
			"scale":[
				-0.05094704404473305,
				-0.4359796941280365,
				-0.05094704404473305
			],
			"translation":[
				22.198570251464844,
				0.4611870050430298,
				27.800457000732422
			]
		},
		{
			"mesh":2,
			"name":"Cube.039",
			"rotation":[
				0,
				-0.7071068286895752,
				0,
				0.7071067690849304
			],
			"scale":[
				-0.05094704404473305,
				-0.4359796941280365,
				-0.05094704404473305
			],
			"translation":[
				20.893539428710938,
				0.4611870050430298,
				27.800457000732422
			]
		},
		{
			"mesh":2,
			"name":"Cube.040",
			"rotation":[
				0,
				-0.7071068286895752,
				0,
				0.7071067690849304
			],
			"scale":[
				-0.05094704404473305,
				-0.4359796941280365,
				-0.05094704404473305
			],
			"translation":[
				19.588512420654297,
				0.4611870050430298,
				27.800457000732422
			]
		},
		{
			"mesh":2,
			"name":"Cube.041",
			"rotation":[
				0,
				-0.7071068286895752,
				0,
				0.7071067690849304
			],
			"scale":[
				-0.05094704404473305,
				-0.4359796941280365,
				-0.05094704404473305
			],
			"translation":[
				10.468413352966309,
				0.4611870050430298,
				12.041504859924316
			]
		},
		{
			"mesh":2,
			"name":"Cube.042",
			"rotation":[
				0,
				-0.7071068286895752,
				0,
				0.7071067690849304
			],
			"scale":[
				-0.05094704404473305,
				-0.4359796941280365,
				-0.05094704404473305
			],
			"translation":[
				9.163385391235352,
				0.4611870050430298,
				12.041504859924316
			]
		},
		{
			"mesh":2,
			"name":"Cube.043",
			"rotation":[
				0,
				-0.7071068286895752,
				0,
				0.7071067690849304
			],
			"scale":[
				-0.05094704404473305,
				-0.4359796941280365,
				-0.05094704404473305
			],
			"translation":[
				7.858356475830078,
				0.4611870050430298,
				12.041504859924316
			]
		},
		{
			"mesh":2,
			"name":"Cube.044",
			"rotation":[
				0,
				-0.7071068286895752,
				0,
				0.7071067690849304
			],
			"scale":[
				-0.05094704404473305,
				-0.4359796941280365,
				-0.05094704404473305
			],
			"translation":[
				24.795940399169922,
				0.4611870050430298,
				27.800457000732422
			]
		},
		{
			"mesh":2,
			"name":"Cube.045",
			"rotation":[
				0,
				-0.7071068286895752,
				0,
				0.7071067690849304
			],
			"scale":[
				-0.05094704404473305,
				-0.4359796941280365,
				-0.05094704404473305
			],
			"translation":[
				18.280250549316406,
				0.4611870050430298,
				27.800457000732422
			]
		},
		{
			"mesh":2,
			"name":"Cube.046",
			"rotation":[
				0,
				-0.7071068286895752,
				0,
				0.7071067690849304
			],
			"scale":[
				-0.05094704404473305,
				-0.4359796941280365,
				-0.05094704404473305
			],
			"translation":[
				16.975223541259766,
				0.4611870050430298,
				27.800457000732422
			]
		},
		{
			"mesh":2,
			"name":"Cube.047",
			"rotation":[
				0,
				-0.7071068286895752,
				0,
				0.7071067690849304
			],
			"scale":[
				-0.05094704404473305,
				-0.4359796941280365,
				-0.05094704404473305
			],
			"translation":[
				6.553328514099121,
				0.4611870050430298,
				12.041504859924316
			]
		},
		{
			"mesh":2,
			"name":"Cube.048",
			"rotation":[
				0,
				-0.7071068286895752,
				0,
				0.7071067690849304
			],
			"scale":[
				-0.05094704404473305,
				-0.4359796941280365,
				-0.05094704404473305
			],
			"translation":[
				15.675840377807617,
				0.4611870050430298,
				12.041504859924316
			]
		},
		{
			"mesh":2,
			"name":"Cube.049",
			"rotation":[
				0,
				-0.7071068286895752,
				0,
				0.7071067690849304
			],
			"scale":[
				-0.05094704404473305,
				-0.4359796941280365,
				-0.05094704404473305
			],
			"translation":[
				14.37081241607666,
				0.4611870050430298,
				12.041504859924316
			]
		},
		{
			"mesh":2,
			"name":"Cube.050",
			"rotation":[
				0,
				-0.7071068286895752,
				0,
				0.7071067690849304
			],
			"scale":[
				-0.05094704404473305,
				-0.4359796941280365,
				-0.05094704404473305
			],
			"translation":[
				13.065783500671387,
				0.4611870050430298,
				12.041504859924316
			]
		},
		{
			"mesh":2,
			"name":"Cube.051",
			"rotation":[
				0,
				-0.7071068286895752,
				0,
				0.7071067690849304
			],
			"scale":[
				-0.05094704404473305,
				-0.4359796941280365,
				-0.05094704404473305
			],
			"translation":[
				11.76075553894043,
				0.4611870050430298,
				12.041504859924316
			]
		},
		{
			"mesh":2,
			"name":"Cube.052",
			"rotation":[
				0,
				-0.7071068286895752,
				0,
				0.7071067690849304
			],
			"scale":[
				-0.05094704404473305,
				-0.4359796941280365,
				-0.05094704404473305
			],
			"translation":[
				0.03405570983886719,
				0.4611870050430298,
				12.041504859924316
			]
		},
		{
			"mesh":2,
			"name":"Cube.053",
			"rotation":[
				0,
				-0.7071068286895752,
				0,
				0.7071067690849304
			],
			"scale":[
				-0.05094704404473305,
				-0.4359796941280365,
				-0.05094704404473305
			],
			"translation":[
				-1.2709722518920898,
				0.4611870050430298,
				12.041504859924316
			]
		},
		{
			"mesh":2,
			"name":"Cube.054",
			"rotation":[
				0,
				-0.7071068286895752,
				0,
				0.7071067690849304
			],
			"scale":[
				-0.05094704404473305,
				-0.4359796941280365,
				-0.05094704404473305
			],
			"translation":[
				-2.5760011672973633,
				0.4611870050430298,
				12.041504859924316
			]
		},
		{
			"mesh":2,
			"name":"Cube.055",
			"rotation":[
				0,
				-0.7071068286895752,
				0,
				0.7071067690849304
			],
			"scale":[
				-0.05094704404473305,
				-0.4359796941280365,
				-0.05094704404473305
			],
			"translation":[
				-3.8810291290283203,
				0.4611870050430298,
				12.041504859924316
			]
		},
		{
			"mesh":2,
			"name":"Cube.056",
			"rotation":[
				0,
				-0.7071068286895752,
				0,
				0.7071067690849304
			],
			"scale":[
				-0.05094704404473305,
				-0.4359796941280365,
				-0.05094704404473305
			],
			"translation":[
				5.241482734680176,
				0.4611870050430298,
				12.041504859924316
			]
		},
		{
			"mesh":2,
			"name":"Cube.057",
			"rotation":[
				0,
				-0.7071068286895752,
				0,
				0.7071067690849304
			],
			"scale":[
				-0.05094704404473305,
				-0.4359796941280365,
				-0.05094704404473305
			],
			"translation":[
				3.9364547729492188,
				0.4611870050430298,
				12.041504859924316
			]
		},
		{
			"mesh":2,
			"name":"Cube.058",
			"rotation":[
				0,
				-0.7071068286895752,
				0,
				0.7071067690849304
			],
			"scale":[
				-0.05094704404473305,
				-0.4359796941280365,
				-0.05094704404473305
			],
			"translation":[
				2.6314258575439453,
				0.4611870050430298,
				12.041504859924316
			]
		},
		{
			"mesh":2,
			"name":"Cube.059",
			"rotation":[
				0,
				-0.7071068286895752,
				0,
				0.7071067690849304
			],
			"scale":[
				-0.05094704404473305,
				-0.4359796941280365,
				-0.05094704404473305
			],
			"translation":[
				1.3263978958129883,
				0.4611870050430298,
				12.041504859924316
			]
		},
		{
			"mesh":2,
			"name":"Cube.060",
			"rotation":[
				0,
				-0.7071068286895752,
				0,
				0.7071067690849304
			],
			"scale":[
				-0.05094704404473305,
				-0.4359796941280365,
				-0.05094704404473305
			],
			"translation":[
				-10.396717071533203,
				0.4611870050430298,
				12.041504859924316
			]
		},
		{
			"mesh":2,
			"name":"Cube.061",
			"rotation":[
				0,
				-0.7071068286895752,
				0,
				0.7071067690849304
			],
			"scale":[
				-0.05094704404473305,
				-0.4359796941280365,
				-0.05094704404473305
			],
			"translation":[
				-11.70174503326416,
				0.4611870050430298,
				12.041504859924316
			]
		},
		{
			"mesh":2,
			"name":"Cube.062",
			"rotation":[
				0,
				-0.7071068286895752,
				0,
				0.7071067690849304
			],
			"scale":[
				-0.05094704404473305,
				-0.4359796941280365,
				-0.05094704404473305
			],
			"translation":[
				-13.006773948669434,
				0.4611870050430298,
				12.041504859924316
			]
		},
		{
			"mesh":2,
			"name":"Cube.063",
			"rotation":[
				0,
				-0.7071068286895752,
				0,
				0.7071067690849304
			],
			"scale":[
				-0.05094704404473305,
				-0.4359796941280365,
				-0.05094704404473305
			],
			"translation":[
				-14.31180191040039,
				0.4611870050430298,
				12.041504859924316
			]
		},
		{
			"mesh":2,
			"name":"Cube.064",
			"rotation":[
				0,
				-0.7071068286895752,
				0,
				0.7071067690849304
			],
			"scale":[
				-0.05094704404473305,
				-0.4359796941280365,
				-0.05094704404473305
			],
			"translation":[
				-5.1892900466918945,
				0.4611870050430298,
				12.041504859924316
			]
		},
		{
			"mesh":2,
			"name":"Cube.065",
			"rotation":[
				0,
				-0.7071068286895752,
				0,
				0.7071067690849304
			],
			"scale":[
				-0.05094704404473305,
				-0.4359796941280365,
				-0.05094704404473305
			],
			"translation":[
				-6.494318008422852,
				0.4611870050430298,
				12.041504859924316
			]
		},
		{
			"mesh":2,
			"name":"Cube.066",
			"rotation":[
				0,
				-0.7071068286895752,
				0,
				0.7071067690849304
			],
			"scale":[
				-0.05094704404473305,
				-0.4359796941280365,
				-0.05094704404473305
			],
			"translation":[
				-7.799346923828125,
				0.4611870050430298,
				12.041504859924316
			]
		},
		{
			"mesh":2,
			"name":"Cube.067",
			"rotation":[
				0,
				-0.7071068286895752,
				0,
				0.7071067690849304
			],
			"scale":[
				-0.05094704404473305,
				-0.4359796941280365,
				-0.05094704404473305
			],
			"translation":[
				-9.104374885559082,
				0.4611870050430298,
				12.041504859924316
			]
		},
		{
			"mesh":2,
			"name":"Cube.068",
			"rotation":[
				0,
				-0.7071068286895752,
				0,
				0.7071067690849304
			],
			"scale":[
				-0.05094704404473305,
				-0.4359796941280365,
				-0.05094704404473305
			],
			"translation":[
				-20.82748794555664,
				0.4611870050430298,
				12.041504859924316
			]
		},
		{
			"mesh":2,
			"name":"Cube.069",
			"rotation":[
				0,
				-0.7071068286895752,
				0,
				0.7071067690849304
			],
			"scale":[
				-0.05094704404473305,
				-0.4359796941280365,
				-0.05094704404473305
			],
			"translation":[
				-22.132516860961914,
				0.4611870050430298,
				12.041504859924316
			]
		},
		{
			"mesh":2,
			"name":"Cube.070",
			"rotation":[
				0,
				-0.7071068286895752,
				0,
				0.7071067690849304
			],
			"scale":[
				-0.05094704404473305,
				-0.4359796941280365,
				-0.05094704404473305
			],
			"translation":[
				-23.437545776367188,
				0.4611870050430298,
				12.041504859924316
			]
		},
		{
			"mesh":2,
			"name":"Cube.071",
			"rotation":[
				0,
				-0.7071068286895752,
				0,
				0.7071067690849304
			],
			"scale":[
				-0.05094704404473305,
				-0.4359796941280365,
				-0.05094704404473305
			],
			"translation":[
				-24.742572784423828,
				0.4611870050430298,
				12.041504859924316
			]
		},
		{
			"mesh":2,
			"name":"Cube.072",
			"rotation":[
				0,
				-0.7071068286895752,
				0,
				0.7071067690849304
			],
			"scale":[
				-0.05094704404473305,
				-0.4359796941280365,
				-0.05094704404473305
			],
			"translation":[
				-15.620061874389648,
				0.4611870050430298,
				12.041504859924316
			]
		},
		{
			"mesh":2,
			"name":"Cube.073",
			"rotation":[
				0,
				-0.7071068286895752,
				0,
				0.7071067690849304
			],
			"scale":[
				-0.05094704404473305,
				-0.4359796941280365,
				-0.05094704404473305
			],
			"translation":[
				-16.925090789794922,
				0.4611870050430298,
				12.041504859924316
			]
		},
		{
			"mesh":2,
			"name":"Cube.074",
			"rotation":[
				0,
				-0.7071068286895752,
				0,
				0.7071067690849304
			],
			"scale":[
				-0.05094704404473305,
				-0.4359796941280365,
				-0.05094704404473305
			],
			"translation":[
				-18.230117797851562,
				0.4611870050430298,
				12.041504859924316
			]
		},
		{
			"mesh":2,
			"name":"Cube.075",
			"rotation":[
				0,
				-0.7071068286895752,
				0,
				0.7071067690849304
			],
			"scale":[
				-0.05094704404473305,
				-0.4359796941280365,
				-0.05094704404473305
			],
			"translation":[
				-19.535146713256836,
				0.4611870050430298,
				12.041504859924316
			]
		},
		{
			"mesh":2,
			"name":"Cube.076",
			"rotation":[
				0,
				-0.7071068286895752,
				0,
				0.7071067690849304
			],
			"scale":[
				-0.05094704404473305,
				-0.4359796941280365,
				-0.05094704404473305
			],
			"translation":[
				-26.04010009765625,
				0.4611870050430298,
				12.041504859924316
			]
		},
		{
			"mesh":2,
			"name":"Cube.077",
			"rotation":[
				0,
				-0.7071068286895752,
				0,
				0.7071067690849304
			],
			"scale":[
				-0.05094704404473305,
				-0.4359796941280365,
				-0.05094704404473305
			],
			"translation":[
				23.503597259521484,
				0.4611870050430298,
				12.041504859924316
			]
		},
		{
			"mesh":2,
			"name":"Cube.078",
			"rotation":[
				0,
				-0.7071068286895752,
				0,
				0.7071067690849304
			],
			"scale":[
				-0.05094704404473305,
				-0.4359796941280365,
				-0.05094704404473305
			],
			"translation":[
				22.198570251464844,
				0.4611870050430298,
				12.041504859924316
			]
		},
		{
			"mesh":2,
			"name":"Cube.079",
			"rotation":[
				0,
				-0.7071068286895752,
				0,
				0.7071067690849304
			],
			"scale":[
				-0.05094704404473305,
				-0.4359796941280365,
				-0.05094704404473305
			],
			"translation":[
				20.893539428710938,
				0.4611870050430298,
				12.041504859924316
			]
		},
		{
			"mesh":2,
			"name":"Cube.080",
			"rotation":[
				0,
				-0.7071068286895752,
				0,
				0.7071067690849304
			],
			"scale":[
				-0.05094704404473305,
				-0.4359796941280365,
				-0.05094704404473305
			],
			"translation":[
				19.588512420654297,
				0.4611870050430298,
				12.041504859924316
			]
		},
		{
			"mesh":2,
			"name":"Cube.081",
			"rotation":[
				0,
				-0.7071068286895752,
				0,
				0.7071067690849304
			],
			"scale":[
				-0.05094704404473305,
				-0.4359796941280365,
				-0.05094704404473305
			],
			"translation":[
				24.795940399169922,
				0.4611870050430298,
				12.041504859924316
			]
		},
		{
			"mesh":2,
			"name":"Cube.082",
			"rotation":[
				0,
				-0.7071068286895752,
				0,
				0.7071067690849304
			],
			"scale":[
				-0.05094704404473305,
				-0.4359796941280365,
				-0.05094704404473305
			],
			"translation":[
				18.280250549316406,
				0.4611870050430298,
				12.041504859924316
			]
		},
		{
			"mesh":2,
			"name":"Cube.083",
			"rotation":[
				0,
				-0.7071068286895752,
				0,
				0.7071067690849304
			],
			"scale":[
				-0.05094704404473305,
				-0.4359796941280365,
				-0.05094704404473305
			],
			"translation":[
				16.975223541259766,
				0.4611870050430298,
				12.041504859924316
			]
		},
		{
			"mesh":4,
			"name":"Cube.084",
			"scale":[
				0.15856288373470306,
				0.15856286883354187,
				0.15856288373470306
			],
			"translation":[
				5.0127058029174805,
				0.168220654129982,
				2.4299519062042236
			]
		},
		{
			"mesh":4,
			"name":"Cube.085",
			"scale":[
				0.15856288373470306,
				0.15856286883354187,
				0.15856288373470306
			],
			"translation":[
				-5.007595062255859,
				0.168220654129982,
				-4.229694366455078
			]
		},
		{
			"mesh":4,
			"name":"Cube.086",
			"scale":[
				0.15856288373470306,
				0.15856286883354187,
				0.15856288373470306
			],
			"translation":[
				5.0127058029174805,
				0.168220654129982,
				-4.229694366455078
			]
		},
		{
			"mesh":5,
			"name":"Cube.087",
			"rotation":[
				0.5,
				-0.5,
				-0.5,
				0.5000000596046448
			],
			"translation":[
				-0.7667611837387085,
				4.89609956741333,
				-1.8553465604782104
			]
		},
		{
			"mesh":6,
			"name":"Cube.088",
			"rotation":[
				0.5,
				-0.5,
				-0.5,
				0.5000000596046448
			],
			"scale":[
				0.1536026895046234,
				0.1536026895046234,
				0.1536026895046234
			],
			"translation":[
				3.0524446964263916,
				2.817518949508667,
				-7.1404595375061035
			]
		},
		{
			"mesh":7,
			"name":"Cube.089",
			"rotation":[
				0.5,
				-0.5,
				-0.5,
				0.5000000596046448
			],
			"translation":[
				-0.13318824768066406,
				-1.7098610401153564,
				-1.8553465604782104
			]
		},
		{
			"mesh":4,
			"name":"Cube.090",
			"scale":[
				0.15856288373470306,
				0.15856286883354187,
				0.15856288373470306
			],
			"translation":[
				-5.007595062255859,
				0.168220654129982,
				2.4299519062042236
			]
		},
		{
			"mesh":8,
			"name":"Cube.094",
			"rotation":[
				0.5,
				-0.5,
				-0.5,
				0.5000000596046448
			],
			"scale":[
				0.1536026895046234,
				0.1536026895046234,
				0.1536026895046234
			],
			"translation":[
				1.7083290815353394,
				3.2655575275421143,
				-7.1404595375061035
			]
		},
		{
			"mesh":9,
			"name":"Icosphere",
			"scale":[
				0.6843863129615784,
				0.5814157724380493,
				0.6246305108070374
			],
			"translation":[
				-5.648519992828369,
				0.5168929696083069,
				4.205440044403076
			]
		},
		{
			"mesh":10,
			"name":"Icosphere.001",
			"scale":[
				0.7012665867805481,
				0.5957563519477844,
				0.6400370001792908
			],
			"translation":[
				-5.648519992828369,
				0.5168929696083069,
				4.205440044403076
			]
		},
		{
			"mesh":11,
			"name":"Plane.001",
			"rotation":[
				0.7071068286895752,
				0,
				0,
				0.7071068286895752
			],
			"scale":[
				1,
				1,
				1.4187370538711548
			],
			"translation":[
				0,
				7.063606262207031,
				4.736873149871826
			]
		},
		{
			"mesh":11,
			"name":"Plane.002",
			"rotation":[
				-0.7071068286895752,
				0,
				0,
				0.7071068286895752
			],
			"scale":[
				-1,
				-1,
				-1.4187370538711548
			],
			"translation":[
				0.09197425842285156,
				7.063606262207031,
				4.736873149871826
			]
		},
		{
			"mesh":12,
			"name":"Plane.003",
			"rotation":[
				0.7071068286895752,
				0,
				0,
				0.7071068286895752
			],
			"scale":[
				2.329395294189453,
				2.329395294189453,
				3.3047990798950195
			],
			"translation":[
				-19.3210506439209,
				18.27733039855957,
				4.736873149871826
			]
		},
		{
			"mesh":13,
			"name":"Plane.004",
			"rotation":[
				0.7071068286895752,
				0,
				0,
				0.7071068286895752
			],
			"scale":[
				2.329395294189453,
				2.329395294189453,
				3.3047990798950195
			],
			"translation":[
				-5.765650749206543,
				16.120811462402344,
				4.736873149871826
			]
		},
		{
			"mesh":14,
			"name":"Plane.005",
			"rotation":[
				0.7071068286895752,
				0,
				0,
				0.7071068286895752
			],
			"scale":[
				2.329395294189453,
				2.329395294189453,
				3.3047990798950195
			],
			"translation":[
				7.829342842102051,
				17.53948974609375,
				4.736873149871826
			]
		},
		{
			"mesh":15,
			"name":"Plane.006",
			"rotation":[
				0.7071068286895752,
				0,
				0,
				0.7071068286895752
			],
			"scale":[
				2.329395294189453,
				2.329395294189453,
				3.3047990798950195
			],
			"translation":[
				20.201963424682617,
				16.838207244873047,
				4.736873149871826
			]
		}
	],
	"animations":[
		{
			"channels":[
				{
					"sampler":0,
					"target":{
						"node":88,
						"path":"translation"
					}
				},
				{
					"sampler":1,
					"target":{
						"node":88,
						"path":"rotation"
					}
				},
				{
					"sampler":2,
					"target":{
						"node":88,
						"path":"scale"
					}
				}
			],
			"name":"Cube.088Action",
			"samplers":[
				{
					"input":72,
					"interpolation":"LINEAR",
					"output":73
				},
				{
					"input":74,
					"interpolation":"STEP",
					"output":75
				},
				{
					"input":74,
					"interpolation":"STEP",
					"output":76
				}
			]
		},
		{
			"channels":[
				{
					"sampler":0,
					"target":{
						"node":89,
						"path":"translation"
					}
				},
				{
					"sampler":1,
					"target":{
						"node":89,
						"path":"rotation"
					}
				},
				{
					"sampler":2,
					"target":{
						"node":89,
						"path":"scale"
					}
				}
			],
			"name":"Cube.089Action",
			"samplers":[
				{
					"input":77,
					"interpolation":"LINEAR",
					"output":78
				},
				{
					"input":79,
					"interpolation":"STEP",
					"output":75
				},
				{
					"input":79,
					"interpolation":"STEP",
					"output":80
				}
			]
		},
		{
			"channels":[
				{
					"sampler":0,
					"target":{
						"node":91,
						"path":"translation"
					}
				},
				{
					"sampler":1,
					"target":{
						"node":91,
						"path":"rotation"
					}
				},
				{
					"sampler":2,
					"target":{
						"node":91,
						"path":"scale"
					}
				}
			],
			"name":"Cube.094Action",
			"samplers":[
				{
					"input":72,
					"interpolation":"LINEAR",
					"output":81
				},
				{
					"input":74,
					"interpolation":"STEP",
					"output":75
				},
				{
					"input":74,
					"interpolation":"STEP",
					"output":76
				}
			]
		},
		{
			"channels":[
				{
					"sampler":0,
					"target":{
						"node":96,
						"path":"translation"
					}
				},
				{
					"sampler":1,
					"target":{
						"node":96,
						"path":"rotation"
					}
				},
				{
					"sampler":2,
					"target":{
						"node":96,
						"path":"scale"
					}
				}
			],
			"name":"Plane.003Action",
			"samplers":[
				{
					"input":74,
					"interpolation":"STEP",
					"output":82
				},
				{
					"input":74,
					"interpolation":"STEP",
					"output":83
				},
				{
					"input":72,
					"interpolation":"LINEAR",
					"output":84
				}
			]
		},
		{
			"channels":[
				{
					"sampler":0,
					"target":{
						"node":97,
						"path":"translation"
					}
				},
				{
					"sampler":1,
					"target":{
						"node":97,
						"path":"rotation"
					}
				},
				{
					"sampler":2,
					"target":{
						"node":97,
						"path":"scale"
					}
				}
			],
			"name":"Plane.003Action.003",
			"samplers":[
				{
					"input":74,
					"interpolation":"STEP",
					"output":85
				},
				{
					"input":74,
					"interpolation":"STEP",
					"output":83
				},
				{
					"input":72,
					"interpolation":"LINEAR",
					"output":86
				}
			]
		},
		{
			"channels":[
				{
					"sampler":0,
					"target":{
						"node":98,
						"path":"translation"
					}
				},
				{
					"sampler":1,
					"target":{
						"node":98,
						"path":"rotation"
					}
				},
				{
					"sampler":2,
					"target":{
						"node":98,
						"path":"scale"
					}
				}
			],
			"name":"Plane.003Action.004",
			"samplers":[
				{
					"input":74,
					"interpolation":"STEP",
					"output":87
				},
				{
					"input":74,
					"interpolation":"STEP",
					"output":83
				},
				{
					"input":72,
					"interpolation":"LINEAR",
					"output":88
				}
			]
		},
		{
			"channels":[
				{
					"sampler":0,
					"target":{
						"node":99,
						"path":"translation"
					}
				},
				{
					"sampler":1,
					"target":{
						"node":99,
						"path":"rotation"
					}
				},
				{
					"sampler":2,
					"target":{
						"node":99,
						"path":"scale"
					}
				}
			],
			"name":"Plane.003Action.005",
			"samplers":[
				{
					"input":74,
					"interpolation":"STEP",
					"output":89
				},
				{
					"input":74,
					"interpolation":"STEP",
					"output":83
				},
				{
					"input":72,
					"interpolation":"LINEAR",
					"output":90
				}
			]
		}
	],
	"materials":[
		{
			"doubleSided":true,
			"name":"Material.006",
			"pbrMetallicRoughness":{
				"baseColorFactor":[
					0,
					0,
					0,
					1
				],
				"metallicFactor":0,
				"roughnessFactor":0.5
			}
		},
		{
			"doubleSided":true,
			"emissiveFactor":[
				1,
				1,
				0
			],
			"extensions":{
				"KHR_materials_emissive_strength":{
					"emissiveStrength":2
				}
			},
			"name":"Material.005",
			"pbrMetallicRoughness":{
				"baseColorFactor":[
					1,
					1,
					0,
					1
				],
				"metallicFactor":0,
				"roughnessFactor":0.5
			}
		},
		{
			"doubleSided":true,
			"name":"Material.001",
			"pbrMetallicRoughness":{
				"baseColorFactor":[
					0.041433319449424744,
					0.020835064351558685,
					0.004697524476796389,
					1
				],
				"metallicFactor":0,
				"roughnessFactor":0.5
			}
		},
		{
			"alphaMode":"BLEND",
			"doubleSided":true,
			"emissiveFactor":[
				1,
				1,
				0
			],
			"extensions":{
				"KHR_materials_emissive_strength":{
					"emissiveStrength":2
				}
			},
			"name":"Material",
			"pbrMetallicRoughness":{
				"baseColorFactor":[
					1,
					1,
					0,
					0.25
				],
				"metallicFactor":0,
				"roughnessFactor":0.5
			}
		},
		{
			"doubleSided":true,
			"emissiveFactor":[
				1,
				0.22670952451101967,
				0
			],
			"extensions":{
				"KHR_materials_emissive_strength":{
					"emissiveStrength":1.5982061624526978
				}
			},
			"name":"Material.004",
			"pbrMetallicRoughness":{
				"baseColorFactor":[
					0.7991030812263489,
					0.18116427958011627,
					0,
					1
				],
				"metallicFactor":0,
				"roughnessFactor":0.5
			}
		},
		{
			"doubleSided":true,
			"name":"Material.009",
			"pbrMetallicRoughness":{
				"baseColorFactor":[
					0.7991030812263489,
					0.18116427958011627,
					0,
					1
				],
				"metallicFactor":0,
				"roughnessFactor":0.5
			}
		}
	],
	"meshes":[
		{
			"name":"Cube.001",
			"primitives":[
				{
					"attributes":{
						"POSITION":0,
						"NORMAL":1,
						"TEXCOORD_0":2
					},
					"indices":3,
					"material":0
				}
			]
		},
		{
			"name":"Cube.002",
			"primitives":[
				{
					"attributes":{
						"POSITION":4,
						"NORMAL":5,
						"TEXCOORD_0":6
					},
					"indices":7,
					"material":1
				}
			]
		},
		{
			"name":"Cube.003",
			"primitives":[
				{
					"attributes":{
						"POSITION":8,
						"NORMAL":9,
						"TEXCOORD_0":10
					},
					"indices":11,
					"material":2
				},
				{
					"attributes":{
						"POSITION":12,
						"NORMAL":13,
						"TEXCOORD_0":14
					},
					"indices":15,
					"material":2
				}
			]
		},
		{
			"name":"Cube.006",
			"primitives":[
				{
					"attributes":{
						"POSITION":16,
						"NORMAL":17,
						"TEXCOORD_0":18
					},
					"indices":19,
					"material":0
				}
			]
		},
		{
			"name":"Cube",
			"primitives":[
				{
					"attributes":{
						"POSITION":20,
						"NORMAL":21,
						"TEXCOORD_0":22
					},
					"indices":23,
					"material":0
				},
				{
					"attributes":{
						"POSITION":24,
						"NORMAL":25,
						"TEXCOORD_0":26
					},
					"indices":27,
					"material":1
				},
				{
					"attributes":{
						"POSITION":28,
						"NORMAL":29,
						"TEXCOORD_0":30
					},
					"indices":31,
					"material":3
				}
			]
		},
		{
			"name":"Cube.007",
			"primitives":[
				{
					"attributes":{
						"POSITION":32,
						"NORMAL":33,
						"TEXCOORD_0":34
					},
					"indices":35,
					"material":0
				}
			]
		},
		{
			"name":"Cube.010",
			"primitives":[
				{
					"attributes":{
						"POSITION":36,
						"NORMAL":37,
						"TEXCOORD_0":38
					},
					"indices":39,
					"material":4
				}
			]
		},
		{
			"name":"Cube.005",
			"primitives":[
				{
					"attributes":{
						"POSITION":40,
						"NORMAL":41,
						"TEXCOORD_0":42
					},
					"indices":43,
					"material":0
				}
			]
		},
		{
			"name":"Cube.008",
			"primitives":[
				{
					"attributes":{
						"POSITION":44,
						"NORMAL":45,
						"TEXCOORD_0":46
					},
					"indices":39,
					"material":4
				}
			]
		},
		{
			"name":"Icosphere",
			"primitives":[
				{
					"attributes":{
						"POSITION":47,
						"NORMAL":48,
						"TEXCOORD_0":49
					},
					"indices":50,
					"material":0
				}
			]
		},
		{
			"name":"Icosphere.001",
			"primitives":[
				{
					"attributes":{
						"POSITION":51,
						"NORMAL":52,
						"TEXCOORD_0":53
					},
					"indices":54,
					"material":5
				}
			]
		},
		{
			"name":"Plane.007",
			"primitives":[
				{
					"attributes":{
						"POSITION":55,
						"NORMAL":56,
						"TEXCOORD_0":57
					},
					"indices":58,
					"material":0
				}
			]
		},
		{
			"name":"Plane.008",
			"primitives":[
				{
					"attributes":{
						"POSITION":59,
						"NORMAL":60,
						"TEXCOORD_0":61
					},
					"indices":62,
					"material":0
				}
			]
		},
		{
			"name":"Plane.011",
			"primitives":[
				{
					"attributes":{
						"POSITION":63,
						"NORMAL":64,
						"TEXCOORD_0":65
					},
					"indices":62,
					"material":0
				}
			]
		},
		{
			"name":"Plane.012",
			"primitives":[
				{
					"attributes":{
						"POSITION":66,
						"NORMAL":67,
						"TEXCOORD_0":68
					},
					"indices":62,
					"material":0
				}
			]
		},
		{
			"name":"Plane.013",
			"primitives":[
				{
					"attributes":{
						"POSITION":69,
						"NORMAL":70,
						"TEXCOORD_0":71
					},
					"indices":62,
					"material":0
				}
			]
		}
	],
	"accessors":[
		{
			"bufferView":0,
			"componentType":5126,
			"count":4,
			"max":[
				5.265361309051514,
				1,
				26.004098892211914
			],
			"min":[
				-1,
				1,
				-25.93086051940918
			],
			"type":"VEC3"
		},
		{
			"bufferView":1,
			"componentType":5126,
			"count":4,
			"type":"VEC3"
		},
		{
			"bufferView":2,
			"componentType":5126,
			"count":4,
			"type":"VEC2"
		},
		{
			"bufferView":3,
			"componentType":5123,
			"count":6,
			"type":"SCALAR"
		},
		{
			"bufferView":4,
			"componentType":5126,
			"count":22,
			"max":[
				5.265361309051514,
				1,
				24.41952133178711
			],
			"min":[
				-2.5453219413757324,
				1,
				6.600095748901367
			],
			"type":"VEC3"
		},
		{
			"bufferView":5,
			"componentType":5126,
			"count":22,
			"type":"VEC3"
		},
		{
			"bufferView":6,
			"componentType":5126,
			"count":22,
			"type":"VEC2"
		},
		{
			"bufferView":7,
			"componentType":5123,
			"count":48,
			"type":"SCALAR"
		},
		{
			"bufferView":8,
			"componentType":5126,
			"count":40,
			"max":[
				1,
				1,
				1
			],
			"min":[
				-1,
				-1.1593878269195557,
				-1
			],
			"type":"VEC3"
		},
		{
			"bufferView":9,
			"componentType":5126,
			"count":40,
			"type":"VEC3"
		},
		{
			"bufferView":10,
			"componentType":5126,
			"count":40,
			"type":"VEC2"
		},
		{
			"bufferView":11,
			"componentType":5123,
			"count":60,
			"type":"SCALAR"
		},
		{
			"bufferView":12,
			"componentType":5126,
			"count":30,
			"max":[
				0.06774967908859253,
				0.0509989894926548,
				24.746660232543945
			],
			"min":[
				0.0677485466003418,
				-1.0882420539855957,
				0.8324623107910156
			],
			"type":"VEC3"
		},
		{
			"bufferView":13,
			"componentType":5126,
			"count":30,
			"type":"VEC3"
		},
		{
			"bufferView":14,
			"componentType":5126,
			"count":30,
			"type":"VEC2"
		},
		{
			"bufferView":15,
			"componentType":5123,
			"count":72,
			"type":"SCALAR"
		},
		{
			"bufferView":16,
			"componentType":5126,
			"count":4,
			"max":[
				4.838632583618164,
				-5.959192276000977,
				25.11989974975586
			],
			"min":[
				-15.205928802490234,
				-5.959192276000977,
				-26.756938934326172
			],
			"type":"VEC3"
		},
		{
			"bufferView":17,
			"componentType":5126,
			"count":4,
			"type":"VEC3"
		},
		{
			"bufferView":18,
			"componentType":5126,
			"count":4,
			"type":"VEC2"
		},
		{
			"bufferView":19,
			"componentType":5123,
			"count":6,
			"type":"SCALAR"
		},
		{
			"bufferView":20,
			"componentType":5126,
			"count":48,
			"max":[
				1.3711568117141724,
				17.734403610229492,
				1.371160626411438
			],
			"min":[
				-1.3711568117141724,
				-1,
				-1.3711529970169067
			],
			"type":"VEC3"
		},
		{
			"bufferView":21,
			"componentType":5126,
			"count":48,
			"type":"VEC3"
		},
		{
			"bufferView":22,
			"componentType":5126,
			"count":48,
			"type":"VEC2"
		},
		{
			"bufferView":23,
			"componentType":5123,
			"count":72,
			"type":"SCALAR"
		},
		{
			"bufferView":24,
			"componentType":5126,
			"count":24,
			"max":[
				1,
				15.684497833251953,
				1.0000038146972656
			],
			"min":[
				-1,
				13.66533374786377,
				-0.9999961853027344
			],
			"type":"VEC3"
		},
		{
			"bufferView":25,
			"componentType":5126,
			"count":24,
			"type":"VEC3"
		},
		{
			"bufferView":26,
			"componentType":5126,
			"count":24,
			"type":"VEC2"
		},
		{
			"bufferView":27,
			"componentType":5123,
			"count":36,
			"type":"SCALAR"
		},
		{
			"bufferView":28,
			"componentType":5126,
			"count":32,
			"max":[
				6.533262252807617,
				-0.5179462432861328,
				6.286859512329102
			],
			"min":[
				-6.08003044128418,
				-0.5179462432861328,
				-6.326433181762695
			],
			"type":"VEC3"
		},
		{
			"bufferView":29,
			"componentType":5126,
			"count":32,
			"type":"VEC3"
		},
		{
			"bufferView":30,
			"componentType":5126,
			"count":32,
			"type":"VEC2"
		},
		{
			"bufferView":31,
			"componentType":5123,
			"count":90,
			"type":"SCALAR"
		},
		{
			"bufferView":32,
			"componentType":5126,
			"count":37,
			"max":[
				4.838632583618164,
				-5.959192276000977,
				3.381246328353882
			],
			"min":[
				3.0634236335754395,
				-5.959192276000977,
				-4.804637908935547
			],
			"type":"VEC3"
		},
		{
			"bufferView":33,
			"componentType":5126,
			"count":37,
			"type":"VEC3"
		},
		{
			"bufferView":34,
			"componentType":5126,
			"count":37,
			"type":"VEC2"
		},
		{
			"bufferView":35,
			"componentType":5123,
			"count":87,
			"type":"SCALAR"
		},
		{
			"bufferView":36,
			"componentType":5126,
			"count":96,
			"max":[
				3.9820423126220703,
				7.2259808803210035e-06,
				34.90981674194336
			],
			"min":[
				-5.725907802581787,
				-1.431670352758374e-05,
				-3.9187464714050293
			],
			"type":"VEC3"
		},
		{
			"bufferView":37,
			"componentType":5126,
			"count":96,
			"type":"VEC3"
		},
		{
			"bufferView":38,
			"componentType":5126,
			"count":96,
			"type":"VEC2"
		},
		{
			"bufferView":39,
			"componentType":5123,
			"count":270,
			"type":"SCALAR"
		},
		{
			"bufferView":40,
			"componentType":5126,
			"count":53,
			"max":[
				0.9911410808563232,
				-0.25043487548828125,
				1.6201555728912354
			],
			"min":[
				-1.1764885187149048,
				-0.25043487548828125,
				-1.7598060369491577
			],
			"type":"VEC3"
		},
		{
			"bufferView":41,
			"componentType":5126,
			"count":53,
			"type":"VEC3"
		},
		{
			"bufferView":42,
			"componentType":5126,
			"count":53,
			"type":"VEC2"
		},
		{
			"bufferView":43,
			"componentType":5123,
			"count":159,
			"type":"SCALAR"
		},
		{
			"bufferView":44,
			"componentType":5126,
			"count":96,
			"max":[
				3.127328872680664,
				8.29589225759264e-06,
				37.63875198364258
			],
			"min":[
				-4.284806251525879,
				5.023402991355397e-07,
				-0.7750584483146667
			],
			"type":"VEC3"
		},
		{
			"bufferView":45,
			"componentType":5126,
			"count":96,
			"type":"VEC3"
		},
		{
			"bufferView":46,
			"componentType":5126,
			"count":96,
			"type":"VEC2"
		},
		{
			"bufferView":47,
			"componentType":5126,
			"count":240,
			"max":[
				0.9510578513145447,
				1,
				0.9999999403953552
			],
			"min":[
				-0.9510578513145447,
				-1,
				-0.9999999403953552
			],
			"type":"VEC3"
		},
		{
			"bufferView":48,
			"componentType":5126,
			"count":240,
			"type":"VEC3"
		},
		{
			"bufferView":49,
			"componentType":5126,
			"count":240,
			"type":"VEC2"
		},
		{
			"bufferView":50,
			"componentType":5123,
			"count":240,
			"type":"SCALAR"
		},
		{
			"bufferView":51,
			"componentType":5126,
			"count":366,
			"max":[
				0.9510578513145447,
				1,
				0.9999999403953552
			],
			"min":[
				-0.9510578513145447,
				-1,
				-0.9999999403953552
			],
			"type":"VEC3"
		},
		{
			"bufferView":52,
			"componentType":5126,
			"count":366,
			"type":"VEC3"
		},
		{
			"bufferView":53,
			"componentType":5126,
			"count":366,
			"type":"VEC2"
		},
		{
			"bufferView":54,
			"componentType":5123,
			"count":546,
			"type":"SCALAR"
		},
		{
			"bufferView":55,
			"componentType":5126,
			"count":1766,
			"max":[
				-6.150838851928711,
				2.3867851695058562e-08,
				5.1151275634765625
			],
			"min":[
				-26.0124454498291,
				-12.918806076049805,
				-1.0000003576278687
			],
			"type":"VEC3"
		},
		{
			"bufferView":56,
			"componentType":5126,
			"count":1766,
			"type":"VEC3"
		},
		{
			"bufferView":57,
			"componentType":5126,
			"count":1766,
			"type":"VEC2"
		},
		{
			"bufferView":58,
			"componentType":5123,
			"count":3732,
			"type":"SCALAR"
		},
		{
			"bufferView":59,
			"componentType":5126,
			"count":23,
			"max":[
				0.4684133529663086,
				0,
				0.07153332233428955
			],
			"min":[
				-0.47478771209716797,
				0,
				-0.13684189319610596
			],
			"type":"VEC3"
		},
		{
			"bufferView":60,
			"componentType":5126,
			"count":23,
			"type":"VEC3"
		},
		{
			"bufferView":61,
			"componentType":5126,
			"count":23,
			"type":"VEC2"
		},
		{
			"bufferView":62,
			"componentType":5123,
			"count":57,
			"type":"SCALAR"
		},
		{
			"bufferView":63,
			"componentType":5126,
			"count":23,
			"max":[
				0.4684133529663086,
				0,
				0.07153332233428955
			],
			"min":[
				-0.47478771209716797,
				0,
				-0.13684189319610596
			],
			"type":"VEC3"
		},
		{
			"bufferView":64,
			"componentType":5126,
			"count":23,
			"type":"VEC3"
		},
		{
			"bufferView":65,
			"componentType":5126,
			"count":23,
			"type":"VEC2"
		},
		{
			"bufferView":66,
			"componentType":5126,
			"count":23,
			"max":[
				0.4684133529663086,
				0,
				0.07153332233428955
			],
			"min":[
				-0.47478771209716797,
				0,
				-0.13684189319610596
			],
			"type":"VEC3"
		},
		{
			"bufferView":67,
			"componentType":5126,
			"count":23,
			"type":"VEC3"
		},
		{
			"bufferView":68,
			"componentType":5126,
			"count":23,
			"type":"VEC2"
		},
		{
			"bufferView":69,
			"componentType":5126,
			"count":23,
			"max":[
				0.4684133529663086,
				0,
				0.07153332233428955
			],
			"min":[
				-0.47478771209716797,
				0,
				-0.13684189319610596
			],
			"type":"VEC3"
		},
		{
			"bufferView":70,
			"componentType":5126,
			"count":23,
			"type":"VEC3"
		},
		{
			"bufferView":71,
			"componentType":5126,
			"count":23,
			"type":"VEC2"
		},
		{
			"bufferView":72,
			"componentType":5126,
			"count":49,
			"max":[
				2
			],
			"min":[
				0
			],
			"type":"SCALAR"
		},
		{
			"bufferView":73,
			"componentType":5126,
			"count":49,
			"type":"VEC3"
		},
		{
			"bufferView":74,
			"componentType":5126,
			"count":2,
			"max":[
				2
			],
			"min":[
				0
			],
			"type":"SCALAR"
		},
		{
			"bufferView":75,
			"componentType":5126,
			"count":2,
			"type":"VEC4"
		},
		{
			"bufferView":76,
			"componentType":5126,
			"count":2,
			"type":"VEC3"
		},
		{
			"bufferView":77,
			"componentType":5126,
			"count":193,
			"max":[
				8
			],
			"min":[
				0
			],
			"type":"SCALAR"
		},
		{
			"bufferView":78,
			"componentType":5126,
			"count":193,
			"type":"VEC3"
		},
		{
			"bufferView":79,
			"componentType":5126,
			"count":2,
			"max":[
				8
			],
			"min":[
				0
			],
			"type":"SCALAR"
		},
		{
			"bufferView":80,
			"componentType":5126,
			"count":2,
			"type":"VEC3"
		},
		{
			"bufferView":81,
			"componentType":5126,
			"count":49,
			"type":"VEC3"
		},
		{
			"bufferView":82,
			"componentType":5126,
			"count":2,
			"type":"VEC3"
		},
		{
			"bufferView":83,
			"componentType":5126,
			"count":2,
			"type":"VEC4"
		},
		{
			"bufferView":84,
			"componentType":5126,
			"count":49,
			"type":"VEC3"
		},
		{
			"bufferView":85,
			"componentType":5126,
			"count":2,
			"type":"VEC3"
		},
		{
			"bufferView":86,
			"componentType":5126,
			"count":49,
			"type":"VEC3"
		},
		{
			"bufferView":87,
			"componentType":5126,
			"count":2,
			"type":"VEC3"
		},
		{
			"bufferView":88,
			"componentType":5126,
			"count":49,
			"type":"VEC3"
		},
		{
			"bufferView":89,
			"componentType":5126,
			"count":2,
			"type":"VEC3"
		},
		{
			"bufferView":90,
			"componentType":5126,
			"count":49,
			"type":"VEC3"
		}
	],
	"bufferViews":[
		{
			"buffer":0,
			"byteLength":48,
			"byteOffset":0,
			"target":34962
		},
		{
			"buffer":0,
			"byteLength":48,
			"byteOffset":48,
			"target":34962
		},
		{
			"buffer":0,
			"byteLength":32,
			"byteOffset":96,
			"target":34962
		},
		{
			"buffer":0,
			"byteLength":12,
			"byteOffset":128,
			"target":34963
		},
		{
			"buffer":0,
			"byteLength":264,
			"byteOffset":140,
			"target":34962
		},
		{
			"buffer":0,
			"byteLength":264,
			"byteOffset":404,
			"target":34962
		},
		{
			"buffer":0,
			"byteLength":176,
			"byteOffset":668,
			"target":34962
		},
		{
			"buffer":0,
			"byteLength":96,
			"byteOffset":844,
			"target":34963
		},
		{
			"buffer":0,
			"byteLength":480,
			"byteOffset":940,
			"target":34962
		},
		{
			"buffer":0,
			"byteLength":480,
			"byteOffset":1420,
			"target":34962
		},
		{
			"buffer":0,
			"byteLength":320,
			"byteOffset":1900,
			"target":34962
		},
		{
			"buffer":0,
			"byteLength":120,
			"byteOffset":2220,
			"target":34963
		},
		{
			"buffer":0,
			"byteLength":360,
			"byteOffset":2340,
			"target":34962
		},
		{
			"buffer":0,
			"byteLength":360,
			"byteOffset":2700,
			"target":34962
		},
		{
			"buffer":0,
			"byteLength":240,
			"byteOffset":3060,
			"target":34962
		},
		{
			"buffer":0,
			"byteLength":144,
			"byteOffset":3300,
			"target":34963
		},
		{
			"buffer":0,
			"byteLength":48,
			"byteOffset":3444,
			"target":34962
		},
		{
			"buffer":0,
			"byteLength":48,
			"byteOffset":3492,
			"target":34962
		},
		{
			"buffer":0,
			"byteLength":32,
			"byteOffset":3540,
			"target":34962
		},
		{
			"buffer":0,
			"byteLength":12,
			"byteOffset":3572,
			"target":34963
		},
		{
			"buffer":0,
			"byteLength":576,
			"byteOffset":3584,
			"target":34962
		},
		{
			"buffer":0,
			"byteLength":576,
			"byteOffset":4160,
			"target":34962
		},
		{
			"buffer":0,
			"byteLength":384,
			"byteOffset":4736,
			"target":34962
		},
		{
			"buffer":0,
			"byteLength":144,
			"byteOffset":5120,
			"target":34963
		},
		{
			"buffer":0,
			"byteLength":288,
			"byteOffset":5264,
			"target":34962
		},
		{
			"buffer":0,
			"byteLength":288,
			"byteOffset":5552,
			"target":34962
		},
		{
			"buffer":0,
			"byteLength":192,
			"byteOffset":5840,
			"target":34962
		},
		{
			"buffer":0,
			"byteLength":72,
			"byteOffset":6032,
			"target":34963
		},
		{
			"buffer":0,
			"byteLength":384,
			"byteOffset":6104,
			"target":34962
		},
		{
			"buffer":0,
			"byteLength":384,
			"byteOffset":6488,
			"target":34962
		},
		{
			"buffer":0,
			"byteLength":256,
			"byteOffset":6872,
			"target":34962
		},
		{
			"buffer":0,
			"byteLength":180,
			"byteOffset":7128,
			"target":34963
		},
		{
			"buffer":0,
			"byteLength":444,
			"byteOffset":7308,
			"target":34962
		},
		{
			"buffer":0,
			"byteLength":444,
			"byteOffset":7752,
			"target":34962
		},
		{
			"buffer":0,
			"byteLength":296,
			"byteOffset":8196,
			"target":34962
		},
		{
			"buffer":0,
			"byteLength":174,
			"byteOffset":8492,
			"target":34963
		},
		{
			"buffer":0,
			"byteLength":1152,
			"byteOffset":8668,
			"target":34962
		},
		{
			"buffer":0,
			"byteLength":1152,
			"byteOffset":9820,
			"target":34962
		},
		{
			"buffer":0,
			"byteLength":768,
			"byteOffset":10972,
			"target":34962
		},
		{
			"buffer":0,
			"byteLength":540,
			"byteOffset":11740,
			"target":34963
		},
		{
			"buffer":0,
			"byteLength":636,
			"byteOffset":12280,
			"target":34962
		},
		{
			"buffer":0,
			"byteLength":636,
			"byteOffset":12916,
			"target":34962
		},
		{
			"buffer":0,
			"byteLength":424,
			"byteOffset":13552,
			"target":34962
		},
		{
			"buffer":0,
			"byteLength":318,
			"byteOffset":13976,
			"target":34963
		},
		{
			"buffer":0,
			"byteLength":1152,
			"byteOffset":14296,
			"target":34962
		},
		{
			"buffer":0,
			"byteLength":1152,
			"byteOffset":15448,
			"target":34962
		},
		{
			"buffer":0,
			"byteLength":768,
			"byteOffset":16600,
			"target":34962
		},
		{
			"buffer":0,
			"byteLength":2880,
			"byteOffset":17368,
			"target":34962
		},
		{
			"buffer":0,
			"byteLength":2880,
			"byteOffset":20248,
			"target":34962
		},
		{
			"buffer":0,
			"byteLength":1920,
			"byteOffset":23128,
			"target":34962
		},
		{
			"buffer":0,
			"byteLength":480,
			"byteOffset":25048,
			"target":34963
		},
		{
			"buffer":0,
			"byteLength":4392,
			"byteOffset":25528,
			"target":34962
		},
		{
			"buffer":0,
			"byteLength":4392,
			"byteOffset":29920,
			"target":34962
		},
		{
			"buffer":0,
			"byteLength":2928,
			"byteOffset":34312,
			"target":34962
		},
		{
			"buffer":0,
			"byteLength":1092,
			"byteOffset":37240,
			"target":34963
		},
		{
			"buffer":0,
			"byteLength":21192,
			"byteOffset":38332,
			"target":34962
		},
		{
			"buffer":0,
			"byteLength":21192,
			"byteOffset":59524,
			"target":34962
		},
		{
			"buffer":0,
			"byteLength":14128,
			"byteOffset":80716,
			"target":34962
		},
		{
			"buffer":0,
			"byteLength":7464,
			"byteOffset":94844,
			"target":34963
		},
		{
			"buffer":0,
			"byteLength":276,
			"byteOffset":102308,
			"target":34962
		},
		{
			"buffer":0,
			"byteLength":276,
			"byteOffset":102584,
			"target":34962
		},
		{
			"buffer":0,
			"byteLength":184,
			"byteOffset":102860,
			"target":34962
		},
		{
			"buffer":0,
			"byteLength":114,
			"byteOffset":103044,
			"target":34963
		},
		{
			"buffer":0,
			"byteLength":276,
			"byteOffset":103160,
			"target":34962
		},
		{
			"buffer":0,
			"byteLength":276,
			"byteOffset":103436,
			"target":34962
		},
		{
			"buffer":0,
			"byteLength":184,
			"byteOffset":103712,
			"target":34962
		},
		{
			"buffer":0,
			"byteLength":276,
			"byteOffset":103896,
			"target":34962
		},
		{
			"buffer":0,
			"byteLength":276,
			"byteOffset":104172,
			"target":34962
		},
		{
			"buffer":0,
			"byteLength":184,
			"byteOffset":104448,
			"target":34962
		},
		{
			"buffer":0,
			"byteLength":276,
			"byteOffset":104632,
			"target":34962
		},
		{
			"buffer":0,
			"byteLength":276,
			"byteOffset":104908,
			"target":34962
		},
		{
			"buffer":0,
			"byteLength":184,
			"byteOffset":105184,
			"target":34962
		},
		{
			"buffer":0,
			"byteLength":196,
			"byteOffset":105368
		},
		{
			"buffer":0,
			"byteLength":588,
			"byteOffset":105564
		},
		{
			"buffer":0,
			"byteLength":8,
			"byteOffset":106152
		},
		{
			"buffer":0,
			"byteLength":32,
			"byteOffset":106160
		},
		{
			"buffer":0,
			"byteLength":24,
			"byteOffset":106192
		},
		{
			"buffer":0,
			"byteLength":772,
			"byteOffset":106216
		},
		{
			"buffer":0,
			"byteLength":2316,
			"byteOffset":106988
		},
		{
			"buffer":0,
			"byteLength":8,
			"byteOffset":109304
		},
		{
			"buffer":0,
			"byteLength":24,
			"byteOffset":109312
		},
		{
			"buffer":0,
			"byteLength":588,
			"byteOffset":109336
		},
		{
			"buffer":0,
			"byteLength":24,
			"byteOffset":109924
		},
		{
			"buffer":0,
			"byteLength":32,
			"byteOffset":109948
		},
		{
			"buffer":0,
			"byteLength":588,
			"byteOffset":109980
		},
		{
			"buffer":0,
			"byteLength":24,
			"byteOffset":110568
		},
		{
			"buffer":0,
			"byteLength":588,
			"byteOffset":110592
		},
		{
			"buffer":0,
			"byteLength":24,
			"byteOffset":111180
		},
		{
			"buffer":0,
			"byteLength":588,
			"byteOffset":111204
		},
		{
			"buffer":0,
			"byteLength":24,
			"byteOffset":111792
		},
		{
			"buffer":0,
			"byteLength":588,
			"byteOffset":111816
		}
	],
	"buffers":[
		{
			"byteLength":112404,
			"uri":"haloween.bin"
		}
	]
}
